ply
format ascii 1.0
comment Created in Blender version 4.2.1 LTS
element vertex 289
property float x
property float y
property float z
element face 256
property list uchar uint vertex_indices
end_header
0.9375 1 0.025
0.929355 0.929355 0.044679
1 0.9375 0.025
1 1 0
0.920821 0.866749 0.0624544
1 0.875 0.05
0.910337 0.804813 0.079388
1 0.8125 0.075
0.899798 0.743358 0.0944687
1 0.75 0.1
0.890358 0.682252 0.107105
1 0.6875 0.125
0.882939 0.621391 0.116671
1 0.625 0.15
0.878561 0.560678 0.122232
1 0.5625 0.175
0.878828 0.5 0.12205
1 0.5 0.2
0.878561 0.439322 0.122232
1 0.4375 0.175
0.882939 0.378609 0.116671
1 0.375 0.15
0.890358 0.317748 0.107105
1 0.3125 0.125
0.899798 0.256641 0.0944687
1 0.25 0.1
0.910337 0.195187 0.079388
1 0.1875 0.075
0.920821 0.133251 0.0624544
1 0.125 0.05
0.929355 0.0706445 0.044679
1 0.0625 0.025
0.9375 0 0.025
1 0 0
0.866749 0.0791795 0.0624544
0.875 0 0.05
0.804813 0.0896628 0.079388
0.8125 0 0.075
0.743358 0.100202 0.0944687
0.75 0 0.1
0.682252 0.109642 0.107105
0.6875 0 0.125
0.621391 0.117062 0.116671
0.625 0 0.15
0.560678 0.121439 0.122232
0.5625 0 0.175
0.5 0.121172 0.12205
0.5 0 0.2
0.439322 0.121439 0.122232
0.4375 0 0.175
0.378609 0.117062 0.116671
0.375 0 0.15
0.317748 0.109642 0.107105
0.3125 0 0.125
0.256641 0.100202 0.0944687
0.25 0 0.1
0.195187 0.0896628 0.079388
0.1875 0 0.075
0.133251 0.0791795 0.0624544
0.125 0 0.05
0.0706445 0.0706445 0.044679
0.0625 0 0.025
0 0.0625 0.025
0 0 0
0.0791795 0.133251 0.0624544
0 0.125 0.05
0.0896628 0.195187 0.079388
0 0.1875 0.075
0.100202 0.256641 0.0944687
0 0.25 0.1
0.109642 0.317748 0.107105
0 0.3125 0.125
0.117062 0.378609 0.116671
0 0.375 0.15
0.121439 0.439322 0.122232
0 0.4375 0.175
0.121172 0.5 0.12205
0 0.5 0.2
0.121439 0.560678 0.122232
0 0.5625 0.175
0.117062 0.621391 0.116671
0 0.625 0.15
0.109642 0.682252 0.107105
0 0.6875 0.125
0.100202 0.743358 0.0944687
0 0.75 0.1
0.0896628 0.804813 0.079388
0 0.8125 0.075
0.0791795 0.866749 0.0624544
0 0.875 0.05
0.0706445 0.929355 0.044679
0 0.9375 0.025
0.0625 1 0.025
0 1 0
0.133251 0.920821 0.0624544
0.125 1 0.05
0.195187 0.910337 0.079388
0.1875 1 0.075
0.256641 0.899798 0.0944687
0.25 1 0.1
0.317748 0.890358 0.107105
0.3125 1 0.125
0.378609 0.882939 0.116671
0.375 1 0.15
0.439322 0.878561 0.122232
0.4375 1 0.175
0.5 0.878828 0.12205
0.5 1 0.2
0.560678 0.878561 0.122232
0.5625 1 0.175
0.621391 0.882939 0.116671
0.625 1 0.15
0.682252 0.890358 0.107105
0.6875 1 0.125
0.743358 0.899798 0.0944687
0.75 1 0.1
0.804813 0.910337 0.079388
0.8125 1 0.075
0.866749 0.920821 0.0624544
0.875 1 0.05
0.799348 0.852007 0.0849808
0.859667 0.859667 0.07372
0.793647 0.793647 0.0914448
0.852007 0.799348 0.0849808
0.788092 0.735168 0.0979243
0.844365 0.739321 0.0954178
0.783168 0.676536 0.103702
0.837536 0.679425 0.104313
0.779345 0.61777 0.108191
0.832238 0.619595 0.111027
0.776963 0.55891 0.110986
0.829086 0.559794 0.114976
0.776164 0.5 0.111924
0.828115 0.5 0.116191
0.776963 0.44109 0.110986
0.829086 0.440206 0.114976
0.779345 0.38223 0.108191
0.832238 0.380405 0.111027
0.783168 0.323464 0.103702
0.837536 0.320575 0.104313
0.788092 0.264832 0.0979243
0.844365 0.260679 0.0954178
0.793647 0.206353 0.0914448
0.852007 0.200652 0.0849808
0.799348 0.147993 0.0849808
0.859667 0.140333 0.07372
0.735168 0.211908 0.0979243
0.739321 0.155635 0.0954178
0.676536 0.216832 0.103702
0.679425 0.162464 0.104313
0.61777 0.220655 0.108191
0.619595 0.167762 0.111027
0.55891 0.223037 0.110986
0.559794 0.170914 0.114976
0.5 0.223836 0.111924
0.5 0.171885 0.116191
0.44109 0.223037 0.110986
0.440206 0.170914 0.114976
0.38223 0.220655 0.108191
0.380405 0.167762 0.111027
0.323464 0.216832 0.103702
0.320575 0.162464 0.104313
0.264832 0.211908 0.0979243
0.260679 0.155635 0.0954178
0.206353 0.206353 0.0914448
0.200652 0.147993 0.0849808
0.147993 0.200652 0.0849808
0.140333 0.140333 0.07372
0.211908 0.264832 0.0979243
0.155635 0.260679 0.0954178
0.216832 0.323464 0.103702
0.162464 0.320575 0.104313
0.220655 0.38223 0.108191
0.167762 0.380405 0.111027
0.223037 0.44109 0.110986
0.170914 0.440206 0.114976
0.223836 0.5 0.111924
0.171885 0.5 0.116191
0.223037 0.55891 0.110986
0.170914 0.559794 0.114976
0.220655 0.61777 0.108191
0.167762 0.619595 0.111027
0.216832 0.676536 0.103702
0.162464 0.679425 0.104313
0.211908 0.735168 0.0979243
0.155635 0.739321 0.0954178
0.206353 0.793647 0.0914448
0.147993 0.799348 0.0849808
0.200652 0.852007 0.0849808
0.140333 0.859667 0.07372
0.264832 0.788092 0.0979243
0.260679 0.844365 0.0954178
0.323464 0.783168 0.103702
0.320575 0.837536 0.104313
0.38223 0.779345 0.108191
0.380405 0.832238 0.111027
0.44109 0.776963 0.110986
0.440206 0.829086 0.114976
0.5 0.776164 0.111924
0.5 0.828115 0.116191
0.55891 0.776963 0.110986
0.559794 0.829086 0.114976
0.61777 0.779345 0.108191
0.619595 0.832238 0.111027
0.676536 0.783168 0.103702
0.679425 0.837536 0.104313
0.735168 0.788092 0.0979243
0.739321 0.844365 0.0954178
0.673785 0.727672 0.104418
0.73118 0.73118 0.101162
0.671377 0.671377 0.105725
0.727672 0.673785 0.104418
0.669506 0.614535 0.107053
0.724943 0.616042 0.107128
0.668321 0.557351 0.108004
0.723221 0.558076 0.108897
0.667915 0.5 0.108346
0.722634 0.5 0.109509
0.668321 0.442649 0.108004
0.723221 0.441924 0.108897
0.669506 0.385465 0.107053
0.724943 0.383958 0.107128
0.671377 0.328623 0.105725
0.727672 0.326215 0.104418
0.673785 0.272328 0.104418
0.73118 0.26882 0.101162
0.614535 0.330494 0.107053
0.616042 0.275057 0.107128
0.557351 0.331679 0.108004
0.558076 0.276779 0.108897
0.5 0.332085 0.108346
0.5 0.277366 0.109509
0.442649 0.331679 0.108004
0.441924 0.276779 0.108897
0.385465 0.330494 0.107053
0.383958 0.275057 0.107128
0.328623 0.328623 0.105725
0.326215 0.272328 0.104418
0.272328 0.326215 0.104418
0.26882 0.26882 0.101162
0.330494 0.385465 0.107053
0.275057 0.383958 0.107128
0.331679 0.442649 0.108004
0.276779 0.441924 0.108897
0.332085 0.5 0.108346
0.277366 0.5 0.109509
0.331679 0.557351 0.108004
0.276779 0.558076 0.108897
0.330494 0.614535 0.107053
0.275057 0.616042 0.107128
0.328623 0.671377 0.105725
0.272328 0.673785 0.104418
0.326215 0.727672 0.104418
0.26882 0.73118 0.101162
0.385465 0.669506 0.107053
0.383958 0.724943 0.107128
0.442649 0.668321 0.108004
0.441924 0.723221 0.108897
0.5 0.667915 0.108346
0.5 0.722634 0.109509
0.557351 0.668321 0.108004
0.558076 0.723221 0.108897
0.614535 0.669506 0.107053
0.616042 0.724943 0.107128
0.556788 0.612625 0.107758
0.613366 0.613366 0.107395
0.556432 0.556432 0.107768
0.612625 0.556788 0.107758
0.55631 0.5 0.107798
0.612371 0.5 0.107906
0.556432 0.443568 0.107768
0.612625 0.443212 0.107758
0.556788 0.387375 0.107758
0.613366 0.386634 0.107395
0.5 0.44369 0.107798
0.5 0.387629 0.107906
0.443568 0.443568 0.107768
0.443212 0.387375 0.107758
0.387375 0.443212 0.107758
0.386634 0.386634 0.107395
0.44369 0.5 0.107798
0.387629 0.5 0.107906
0.443568 0.556432 0.107768
0.387375 0.556788 0.107758
0.443212 0.612625 0.107758
0.386634 0.613366 0.107395
0.5 0.55631 0.107798
0.5 0.612371 0.107906
0.5 0.5 0.107788
4 61 60 62 63
4 62 60 64 65
4 67 65 64 66
4 67 66 68 69
4 71 69 68 70
4 71 70 72 73
4 73 72 74 75
4 77 75 74 76
4 77 76 78 79
4 79 78 80 81
4 83 81 80 82
4 83 82 84 85
4 87 85 84 86
4 87 86 88 89
4 89 88 90 91
4 92 93 91 90
4 61 59 58 60
4 64 60 58 167
4 166 66 64 167
4 169 68 66 166
4 171 70 68 169
4 72 70 171 173
4 175 74 72 173
4 177 76 74 175
4 179 78 76 177
4 181 80 78 179
4 183 82 80 181
4 185 84 82 183
4 187 86 84 185
4 88 86 187 189
4 88 189 94 90
4 95 92 90 94
4 57 56 58 59
4 58 56 165 167
4 167 165 164 166
4 169 166 164 168
4 169 168 170 171
4 173 171 170 172
4 173 172 174 175
4 175 174 176 177
4 179 177 176 178
4 179 178 180 181
4 183 181 180 182
4 183 182 184 185
4 185 184 186 187
4 189 187 186 188
4 188 96 94 189
4 95 94 96 97
4 55 54 56 57
4 56 54 163 165
4 163 162 164 165
4 162 239 168 164
4 168 239 238 170
4 241 172 170 238
4 243 174 172 241
4 245 176 174 243
4 247 178 176 245
4 249 180 178 247
4 251 182 180 249
4 184 182 251 253
4 184 253 190 186
4 191 188 186 190
4 191 98 96 188
4 99 97 96 98
4 99 98 100 101
4 103 101 100 102
4 103 102 104 105
4 105 104 106 107
4 109 107 106 108
4 109 108 110 111
4 111 110 112 113
4 115 113 112 114
4 115 114 116 117
4 119 117 116 118
4 0 119 118 1
4 3 0 1 2
4 100 98 191 193
4 195 102 100 193
4 104 102 195 197
4 106 104 197 199
4 201 108 106 199
4 110 108 201 203
4 112 110 203 205
4 207 114 112 205
4 114 207 120 116
4 121 118 116 120
4 121 4 1 118
4 2 1 4 5
4 7 5 4 6
4 123 6 4 121
4 121 120 122 123
4 120 207 206 122
4 205 204 206 207
4 205 203 202 204
4 201 200 202 203
4 199 198 200 201
4 199 197 196 198
4 195 194 196 197
4 195 193 192 194
4 191 190 192 193
4 252 192 190 253
4 255 194 192 252
4 196 194 255 257
4 259 198 196 257
4 200 198 259 261
4 202 200 261 263
4 208 204 202 263
4 206 204 208 209
4 209 124 122 206
4 125 123 122 124
4 8 6 123 125
4 7 6 8 9
4 9 8 10 11
4 13 11 10 12
4 13 12 14 15
4 15 14 16 17
4 19 17 16 18
4 19 18 20 21
4 23 21 20 22
4 23 22 24 25
4 25 24 26 27
4 29 27 26 28
4 29 28 30 31
4 31 30 32 33
4 253 251 250 252
4 255 252 250 254
4 255 254 256 257
4 259 257 256 258
4 259 258 260 261
4 263 261 260 262
4 262 210 208 263
4 211 209 208 210
4 211 126 124 209
4 125 124 126 127
4 127 10 8 125
4 249 248 250 251
4 248 285 254 250
4 284 256 254 285
4 287 258 256 284
4 258 287 264 260
4 265 262 260 264
4 265 212 210 262
4 211 210 212 213
4 213 128 126 211
4 127 126 128 129
4 129 12 10 127
4 247 246 248 249
4 248 246 283 285
4 285 283 282 284
4 287 284 282 286
4 264 287 286 266
4 265 264 266 267
4 267 214 212 265
4 215 213 212 214
4 215 130 128 213
4 131 129 128 130
4 131 14 12 129
4 247 245 244 246
4 283 246 244 281
4 281 280 282 283
4 280 288 286 282
4 288 268 266 286
4 269 267 266 268
4 216 214 267 269
4 215 214 216 217
4 217 132 130 215
4 131 130 132 133
4 133 16 14 131
4 55 53 52 54
4 51 50 52 53
4 51 49 48 50
4 47 46 48 49
4 45 44 46 47
4 45 43 42 44
4 41 40 42 43
4 39 38 40 41
4 39 37 36 38
4 35 34 36 37
4 35 32 30 34
4 163 54 52 161
4 163 161 160 162
4 239 162 160 237
4 237 236 238 239
4 238 236 240 241
4 243 241 240 242
4 243 242 244 245
4 281 244 242 278
4 281 278 276 280
4 274 288 280 276
4 268 288 274 270
4 269 268 270 271
4 271 218 216 269
4 217 216 218 219
4 219 134 132 217
4 135 133 132 134
4 135 18 16 133
4 278 242 240 279
4 279 277 276 278
4 275 274 276 277
4 275 272 270 274
4 271 270 272 273
4 273 220 218 271
4 221 219 218 220
4 136 134 219 221
4 135 134 136 137
4 137 20 18 135
4 240 236 234 279
4 234 232 277 279
4 232 230 275 277
4 275 230 228 272
4 226 273 272 228
4 220 273 226 222
4 221 220 222 223
4 223 138 136 221
4 137 136 138 139
4 139 22 20 137
4 237 235 234 236
4 233 232 234 235
4 231 230 232 233
4 231 229 228 230
4 227 226 228 229
4 227 224 222 226
4 223 222 224 225
4 225 140 138 223
4 141 139 138 140
4 24 22 139 141
4 160 158 235 237
4 158 156 233 235
4 233 156 154 231
4 154 152 229 231
4 152 150 227 229
4 227 150 148 224
4 146 225 224 148
4 140 225 146 142
4 141 140 142 143
4 143 26 24 141
4 145 28 26 143
4 143 142 144 145
4 147 144 142 146
4 147 146 148 149
4 151 149 148 150
4 151 150 152 153
4 153 152 154 155
4 157 155 154 156
4 157 156 158 159
4 159 158 160 161
4 52 50 159 161
4 159 50 48 157
4 48 46 155 157
4 46 44 153 155
4 153 44 42 151
4 42 40 149 151
4 40 38 147 149
4 147 38 36 144
4 34 145 144 36
4 28 145 34 30
