ply
format ascii 1.0
comment Created in Blender version 4.4.3
element vertex 1089
property float x
property float y
property float z
element face 1024
property list uchar uint vertex_indices
end_header
0.882903 0.882903 0.0305091
0.916515 0.887874 0.0125
0.916515 0.916515 0
0.887874 0.916515 0.0125
0.429131 0.871578 0.0442497
0.458148 0.871651 0.0424237
0.458258 0.916515 0.2
0.429616 0.916515 0.1875
0.429548 0.429548 -2.20579e-08
0.458185 0.429548 -1.9631e-08
0.458185 0.458185 -2.08674e-08
0.429548 0.458186 -2.14635e-08
0.871572 0.429127 0.0442441
0.916515 0.429616 0.1875
0.916515 0.458258 0.2
0.871653 0.458151 0.0424247
0.658642 0.429549 -1.17414e-07
0.687278 0.429549 -3.32307e-06
0.687278 0.458186 6.7747e-07
0.658642 0.458186 -1.05751e-07
0.658642 0.200456 -3.11429e-05
0.687278 0.200456 -9.61976e-05
0.687278 0.229092 -3.16517e-05
0.658642 0.229092 -7.47235e-06
0.877119 0.200328 0.0330855
0.916515 0.200488 0.0875
0.916515 0.229129 0.1
0.876274 0.228237 0.0349885
0.200455 0.429549 1.55756e-05
0.229092 0.429549 -4.74026e-07
0.229092 0.458186 1.74666e-06
0.200455 0.458186 4.02203e-05
0.200454 0.200455 -0.000354651
0.229092 0.200456 -9.62664e-05
0.229092 0.229093 -3.14521e-05
0.200455 0.229093 -9.62156e-05
0.429548 0.200456 1.55355e-05
0.458185 0.200456 4.02494e-05
0.458185 0.229093 1.74646e-06
0.429548 0.229093 -4.8226e-07
0.200324 0.877124 0.0330898
0.228238 0.876277 0.0349907
0.229129 0.916515 0.1
0.200488 0.916515 0.0875
0.200455 0.658643 -3.11839e-05
0.229092 0.658643 -7.46938e-06
0.229092 0.687279 -3.16485e-05
0.200455 0.687279 -9.61076e-05
0.429548 0.658643 -1.14095e-07
0.458185 0.658643 -1.01974e-07
0.458185 0.68728 6.7871e-07
0.429548 0.68728 -3.32176e-06
0.65902 0.875797 0.0383438
0.688132 0.876254 0.0349838
0.687386 0.916515 0.1
0.658745 0.916515 0.1125
0.658642 0.658643 -1.74941e-06
0.687278 0.658643 -7.54436e-06
0.687278 0.68728 -3.18159e-05
0.658642 0.68728 -7.54245e-06
0.875799 0.659017 0.03835
0.916515 0.658745 0.1125
0.916515 0.687386 0.1
0.876255 0.688128 0.0349866
0.773134 0.658644 0.000639685
0.801199 0.658655 0.00343847
0.801357 0.687195 0.00380292
0.773141 0.687287 0.000749987
0.773149 0.544101 0.000813737
0.801247 0.544103 0.00319806
0.80155 0.572742 0.00326773
0.773163 0.572738 0.000798445
0.872644 0.54487 0.0444275
0.916515 0.544181 0.1625
0.916515 0.572822 0.15
0.872688 0.572988 0.042277
0.544096 0.658643 1.40642e-07
0.572732 0.658643 1.80662e-07
0.572732 0.68728 2.05892e-06
0.544096 0.68728 1.49227e-06
0.544096 0.544097 -4.11994e-08
0.572732 0.544097 -3.94684e-08
0.572733 0.572733 -4.18543e-08
0.544096 0.572733 -4.03961e-08
0.658642 0.544097 1.24586e-07
0.687279 0.544097 1.4831e-06
0.687279 0.572733 2.04524e-06
0.658642 0.572734 1.64099e-07
0.544868 0.872647 0.0444297
0.572986 0.872684 0.0422715
0.572822 0.916515 0.15
0.544181 0.916515 0.1625
0.544101 0.77315 0.000815095
0.572737 0.773165 0.000797911
0.572741 0.80155 0.00326857
0.544102 0.80125 0.00319648
0.658643 0.773136 0.000639403
0.687286 0.773143 0.000749374
0.687194 0.801356 0.0038049
0.658654 0.801201 0.00343911
0.315003 0.658643 5.0549e-08
0.343639 0.658643 1.62656e-07
0.343639 0.68728 2.09027e-06
0.315003 0.68728 1.69846e-06
0.315003 0.544097 -4.44726e-08
0.343639 0.544097 -4.49866e-08
0.343639 0.572734 -4.62659e-08
0.315003 0.572734 -4.33531e-08
0.429549 0.544097 -3.72422e-08
0.458186 0.544097 -3.62745e-08
0.458186 0.572733 -3.73171e-08
0.429549 0.572733 -3.55428e-08
0.0880524 0.658577 0.00996931
0.115143 0.658656 0.00345939
0.115017 0.687193 0.00380764
0.0877234 0.687084 0.00951068
0.089547 0.544169 0.0111549
0.115055 0.544131 0.00320704
0.114728 0.572737 0.00327217
0.0887017 0.572854 0.0110355
0.200457 0.544097 1.40083e-05
0.229093 0.544097 2.23431e-06
0.229093 0.572733 2.36772e-06
0.200457 0.572733 2.16526e-05
0.0870861 0.876338 0.0218808
0.113318 0.880556 0.0260465
0.114564 0.916515 0.05
0.0859233 0.916515 0.0375
0.0872698 0.772834 0.010922
0.114991 0.772665 0.00708274
0.115119 0.801255 0.00890955
0.0867304 0.800951 0.0127177
0.200471 0.773089 0.00113686
0.229086 0.773143 0.000746951
0.229179 0.80136 0.00380754
0.200472 0.80152 0.00456111
0.315003 0.200456 1.66307e-05
0.34364 0.200457 2.26234e-05
0.34364 0.229093 2.36681e-06
0.315003 0.229093 1.71794e-06
0.314985 0.0886291 0.0106752
0.343486 0.0886147 0.0110784
0.343632 0.114733 0.00325855
0.315008 0.114934 0.00314217
0.429696 0.0889469 0.0115116
0.45814 0.0887244 0.0114412
0.458185 0.115296 0.00400082
0.429512 0.115013 0.0037231
0.0874927 0.200534 0.0096205
0.114856 0.200472 0.00455193
0.115017 0.22918 0.00380887
0.0877342 0.229292 0.00951308
0.087806 0.087805 0.0170009
0.115426 0.0867203 0.0126962
0.115119 0.115119 0.00890255
0.0867207 0.115426 0.0126971
0.200534 0.0874925 0.00962033
0.229292 0.0877321 0.00951305
0.22918 0.115016 0.00380938
0.200472 0.114855 0.00455264
0.0889453 0.429695 0.0115119
0.115013 0.429512 0.00372389
0.115296 0.458184 0.00400064
0.0887238 0.45814 0.0114419
0.0886324 0.314984 0.010675
0.114935 0.315007 0.00314197
0.114733 0.343631 0.00325881
0.0886143 0.343486 0.0110795
0.200457 0.315002 1.66343e-05
0.229094 0.315002 1.70682e-06
0.229093 0.343639 2.35672e-06
0.200457 0.343639 2.26114e-05
0.773089 0.20047 0.00113736
0.80152 0.200471 0.00456052
0.801359 0.229178 0.00380758
0.773143 0.229085 0.000746767
0.772834 0.0872687 0.0109228
0.800951 0.0867293 0.012718
0.801255 0.115117 0.0089087
0.772665 0.114989 0.0070829
0.876337 0.0870845 0.0218793
0.916515 0.0859233 0.0375
0.916515 0.114564 0.05
0.880554 0.113318 0.0260446
0.544097 0.200455 1.39625e-05
0.572733 0.200455 2.1663e-05
0.572733 0.229092 2.37184e-06
0.544097 0.229092 2.23665e-06
0.54417 0.0895435 0.0111559
0.572854 0.088702 0.0110349
0.572737 0.114728 0.00327265
0.544131 0.115053 0.00320688
0.658577 0.0880518 0.00996982
0.687084 0.0877216 0.00951119
0.687193 0.115016 0.00380789
0.658655 0.115141 0.00345898
0.544097 0.429548 -2.44431e-08
0.572733 0.429548 -2.3362e-08
0.572733 0.458185 -2.50065e-08
0.544097 0.458185 -2.42174e-08
0.544097 0.315002 -3.14194e-08
0.572733 0.315002 -3.08408e-08
0.572733 0.343638 -3.31293e-08
0.544097 0.343638 -3.22995e-08
0.658643 0.315002 6.30142e-08
0.68728 0.315002 1.7098e-06
0.687279 0.343638 2.09849e-06
0.658643 0.343638 1.74415e-07
0.773126 0.429553 0.000761826
0.801356 0.429467 0.00370868
0.800978 0.458184 0.00407402
0.773216 0.458186 0.000681166
0.773167 0.315002 0.000708434
0.801497 0.315003 0.00314834
0.801561 0.343627 0.0032552
0.773163 0.343634 0.000814761
0.873508 0.314485 0.0417093
0.916515 0.315052 0.1375
0.916515 0.343693 0.15
0.872852 0.343372 0.0424444
0.315002 0.429548 -6.13302e-08
0.343639 0.429548 -6.04209e-08
0.343639 0.458185 -6.18239e-08
0.315002 0.458185 -5.82427e-08
0.315002 0.315002 -5.69344e-08
0.343639 0.315002 -5.25811e-08
0.343639 0.343638 -5.49723e-08
0.315002 0.343638 -5.22221e-08
0.429549 0.315002 -4.48495e-08
0.458186 0.315002 -4.2957e-08
0.458186 0.343638 -4.49229e-08
0.429549 0.343638 -4.34519e-08
0.31448 0.873508 0.0417088
0.343376 0.872853 0.0424456
0.343693 0.916515 0.15
0.315052 0.916515 0.1375
0.315002 0.773167 0.000707969
0.343634 0.773162 0.000814648
0.343628 0.80156 0.0032543
0.315003 0.801496 0.00314852
0.429553 0.773125 0.000763124
0.458186 0.773215 0.000680802
0.458184 0.800975 0.00407414
0.429467 0.801353 0.00370675
0.772698 0.878589 0.0280114
0.803057 0.88054 0.0260483
0.801951 0.916515 0.05
0.77331 0.916515 0.0625
0.772961 0.772961 0.00407763
0.801376 0.772662 0.00709088
0.801256 0.801257 0.00889321
0.772662 0.801376 0.00708946
0.878596 0.772691 0.0280193
0.916515 0.77331 0.0625
0.916515 0.801951 0.05
0.880537 0.803058 0.0260464
0.829111 0.772836 0.0109282
0.854622 0.772443 0.0159188
0.855882 0.803075 0.0146768
0.829638 0.800953 0.0127202
0.828913 0.715817 0.00963701
0.852931 0.715779 0.0181953
0.854976 0.745264 0.0166968
0.828826 0.744471 0.00954529
0.877149 0.716081 0.0331047
0.916515 0.716027 0.0875
0.916515 0.744669 0.075
0.87863 0.745678 0.0307047
0.715901 0.773088 0.00113999
0.744492 0.773046 0.00231225
0.744395 0.80128 0.005475
0.7159 0.80152 0.00455794
0.715917 0.715917 -0.000356304
0.744556 0.715934 6.29685e-05
0.744525 0.744525 0.000863614
0.715933 0.744556 6.30823e-05
0.773087 0.715901 0.00114101
0.80152 0.715901 0.00455699
0.80128 0.744396 0.00547459
0.773046 0.744493 0.00231104
0.716073 0.877162 0.0331135
0.745673 0.878627 0.0307026
0.744669 0.916515 0.075
0.716027 0.916515 0.0875
0.715816 0.828914 0.00963855
0.744471 0.828826 0.00954755
0.745256 0.854978 0.0166971
0.715773 0.852942 0.0181996
0.772836 0.829111 0.0109311
0.800952 0.829639 0.0127211
0.803078 0.855884 0.0146781
0.772445 0.854618 0.0159189
0.37227 0.773151 0.000792427
0.400908 0.773143 0.00108817
0.400905 0.801614 0.00343843
0.372268 0.80122 0.00321058
0.372275 0.715916 4.08861e-06
0.400911 0.715917 2.30902e-05
0.400911 0.744555 8.73961e-05
0.372274 0.744551 0.000166569
0.429548 0.715917 6.81005e-06
0.458185 0.715917 4.58768e-05
0.458185 0.744552 0.000433814
0.42955 0.744547 0.00010341
0.257728 0.773136 0.000624267
0.286365 0.773163 0.000637227
0.286373 0.801289 0.00320496
0.257716 0.801196 0.00344292
0.257729 0.715917 -3.11168e-05
0.286365 0.715917 2.14801e-06
0.286365 0.744553 6.57537e-05
0.257728 0.744555 -0.000113448
0.315002 0.715917 1.65554e-05
0.343639 0.715917 2.34681e-05
0.343638 0.744552 0.000172336
0.315002 0.744553 9.26525e-05
0.257363 0.875825 0.0383913
0.285682 0.874098 0.0389918
0.286411 0.916515 0.125
0.25777 0.916515 0.1125
0.257778 0.828247 0.00995304
0.28626 0.827877 0.0101303
0.286094 0.851739 0.0219411
0.25765 0.852281 0.02106
0.315013 0.827931 0.0107404
0.343479 0.827642 0.0109943
0.343553 0.850955 0.0245947
0.314715 0.850652 0.0233544
0.372276 0.315003 -3.91172e-08
0.400912 0.315003 -3.17493e-08
0.400912 0.34364 -3.51241e-08
0.372276 0.34364 -3.64285e-08
0.372276 0.25773 2.11142e-07
0.400912 0.25773 1.07876e-07
0.400912 0.286367 -6.16083e-09
0.372276 0.286367 -9.0847e-09
0.429549 0.25773 3.37237e-08
0.458186 0.25773 4.45734e-08
0.458186 0.286366 -1.95864e-08
0.429549 0.286366 -1.67806e-08
0.25773 0.315003 7.4146e-08
0.286366 0.315003 -3.96064e-08
0.286366 0.34364 -2.40978e-08
0.25773 0.34364 2.0053e-07
0.25773 0.25773 -1.74191e-06
0.286366 0.25773 -2.93243e-07
0.286366 0.286367 -9.15222e-08
0.25773 0.286367 -2.97274e-07
0.315003 0.25773 8.12463e-08
0.34364 0.25773 2.06361e-07
0.34364 0.286366 -2.35134e-08
0.315003 0.286366 -3.83271e-08
0.25773 0.42955 2.9663e-08
0.286366 0.42955 -2.52593e-08
0.286366 0.458187 -2.91434e-08
0.25773 0.458187 4.03464e-08
0.25773 0.372276 2.07919e-07
0.286367 0.372276 -1.02553e-08
0.286367 0.400913 -1.0536e-08
0.25773 0.400913 1.05e-07
0.315003 0.372276 -4.05895e-08
0.34364 0.372276 -3.88505e-08
0.34364 0.400913 -4.63261e-08
0.315003 0.400913 -4.05657e-08
0.827934 0.315014 0.0107419
0.850656 0.31472 0.0233552
0.850949 0.343548 0.0245911
0.827638 0.343479 0.0109928
0.828247 0.25778 0.00995333
0.852282 0.257648 0.0210599
0.851741 0.286099 0.0219431
0.827879 0.286261 0.010133
0.875825 0.25736 0.0383908
0.916515 0.25777 0.1125
0.916515 0.286411 0.125
0.874099 0.285686 0.0389934
0.715917 0.315003 1.65745e-05
0.744553 0.315003 9.26479e-05
0.744552 0.343639 0.00017266
0.715917 0.343639 2.3461e-05
0.715917 0.257729 -3.11037e-05
0.744555 0.257729 -0.000112986
0.744553 0.286366 6.54727e-05
0.715917 0.286366 2.13474e-06
0.773136 0.257729 0.000623949
0.801196 0.257717 0.00344338
0.801291 0.286374 0.00320529
0.773163 0.286366 0.000637315
0.715917 0.429549 6.84379e-06
0.744548 0.429551 0.000104263
0.744553 0.458186 0.000433547
0.715917 0.458186 4.58895e-05
0.715917 0.372275 4.02531e-06
0.744551 0.372275 0.00016623
0.744555 0.400911 8.69691e-05
0.715917 0.400912 2.30295e-05
0.773152 0.372271 0.000792906
0.801221 0.372269 0.00321087
0.801611 0.400905 0.00343859
0.773143 0.400908 0.00108822
0.60137 0.315002 -2.82614e-08
0.630007 0.315002 -3.2097e-08
0.630007 0.343639 -1.64078e-08
0.60137 0.343639 -2.3916e-08
0.60137 0.257729 9.72214e-08
0.630007 0.257729 -2.92927e-07
0.630007 0.286365 -8.7801e-08
0.60137 0.286365 -2.2081e-08
0.658643 0.257729 -1.75841e-06
0.68728 0.257729 -7.51636e-06
0.68728 0.286365 -7.55389e-07
0.658643 0.286365 -3.01151e-07
0.486824 0.315002 -3.15598e-08
0.51546 0.315002 -2.34655e-08
0.51546 0.343638 -2.71614e-08
0.486823 0.343638 -2.92714e-08
0.486823 0.257729 5.6379e-08
0.51546 0.257728 1.29112e-07
0.51546 0.286365 4.10034e-09
0.486823 0.286365 -6.97879e-09
0.544097 0.257728 2.24705e-07
0.572733 0.257728 2.22751e-07
0.572733 0.286365 -5.4742e-09
0.544097 0.286365 2.45822e-09
0.486823 0.429548 -1.55701e-08
0.51546 0.429548 -1.64262e-08
0.51546 0.458185 -1.85815e-08
0.486823 0.458185 -1.49883e-08
0.486823 0.372275 -1.77864e-08
0.51546 0.372275 -1.87835e-08
0.51546 0.400911 -1.31878e-08
0.486823 0.400911 -1.34965e-08
0.544096 0.372275 -2.41673e-08
0.572733 0.372275 -2.1531e-08
0.572733 0.400911 -1.91606e-08
0.544096 0.400911 -1.81218e-08
0.601388 0.0886521 0.0106569
0.630096 0.0884469 0.0101465
0.629999 0.115106 0.00321905
0.601366 0.114952 0.0031427
0.60192 0.0429018 0.0416596
0.630687 0.0422472 0.0390697
0.630274 0.0645494 0.0220165
0.601708 0.0659527 0.0231779
0.659013 0.0405097 0.0384902
0.68815 0.0401781 0.0349751
0.687399 0.0629147 0.0195508
0.658703 0.063934 0.0211239
0.486671 0.0888772 0.0114612
0.515448 0.0890247 0.0116543
0.515475 0.11494 0.00346367
0.486858 0.11503 0.00378801
0.487429 0.0450518 0.044077
0.515347 0.0443889 0.0439018
0.515378 0.0667751 0.0263453
0.487308 0.0694132 0.0261028
0.544708 0.0437619 0.0444549
0.572936 0.0436293 0.0423569
0.572732 0.0655999 0.0244811
0.544659 0.067205 0.0250577
0.486822 0.200455 1.62322e-05
0.515459 0.200455 2.00984e-05
0.515459 0.229092 1.08814e-06
0.486822 0.229092 -4.50381e-07
0.486815 0.143221 0.000679664
0.515462 0.143238 0.00104556
0.515459 0.171818 9.19882e-05
0.486821 0.171823 0.000151835
0.544101 0.143222 0.000825631
0.572735 0.143205 0.00081625
0.572732 0.17182 0.000163146
0.544096 0.171821 0.0001552
0.828566 0.0878126 0.0170068
0.851659 0.0868846 0.0157157
0.855899 0.113265 0.0146722
0.829645 0.115423 0.0127115
0.829288 0.0400624 0.0219037
0.856822 0.031116 0.0252893
0.85948 0.0569019 0.0210302
0.829477 0.0647134 0.0157173
0.882869 0.0335514 0.030508
0.916515 0.0286411 0.0125
0.916515 0.0572822 0.025
0.885291 0.0595671 0.0252608
0.715834 0.0874832 0.00961539
0.744466 0.0875237 0.00954789
0.744397 0.115093 0.00548221
0.7159 0.114855 0.00454997
0.716022 0.0393213 0.0330575
0.745662 0.0376887 0.0308066
0.745207 0.06132 0.0167403
0.715748 0.0635449 0.0181722
0.772762 0.0378489 0.0280203
0.80307 0.0358792 0.0260633
0.803104 0.0604963 0.0146819
0.77246 0.0617599 0.0159224
0.715917 0.200455 -0.000355399
0.744556 0.200438 6.0658e-05
0.744554 0.229096 -4.55472e-05
0.715916 0.229093 -9.69539e-05
0.715901 0.143286 0.00115236
0.744492 0.143325 0.0023126
0.744525 0.171847 0.000863635
0.715934 0.171816 5.39958e-05
0.772961 0.143411 0.00408293
0.801378 0.143707 0.00709249
0.801279 0.171977 0.00547494
0.773045 0.17188 0.00232101
0.143208 0.315004 0.000720309
0.171819 0.315003 9.43476e-05
0.171821 0.343639 0.000163063
0.143208 0.343636 0.000832855
0.143234 0.257729 0.000617922
0.171817 0.257729 -0.000112962
0.171819 0.286367 7.16662e-05
0.143209 0.286366 0.000623824
0.200455 0.25773 -3.10672e-05
0.229092 0.25773 -7.42025e-06
0.229092 0.286366 -7.61688e-07
0.200456 0.286366 2.51751e-06
0.0429434 0.314438 0.0416274
0.0659455 0.314653 0.0232121
0.0652715 0.343632 0.0246844
0.0434314 0.343454 0.0425515
0.0405148 0.257347 0.0385155
0.0639234 0.257675 0.0211603
0.0646542 0.286093 0.0219665
0.0422846 0.285674 0.0389929
0.0880223 0.257807 0.00998568
0.115146 0.257718 0.0034613
0.115111 0.286374 0.0032266
0.088494 0.286272 0.0101303
0.0446851 0.428975 0.0443587
0.0688937 0.429081 0.0264128
0.0691708 0.458098 0.0271865
0.0446875 0.458138 0.0423494
0.0438581 0.371671 0.0443339
0.0674961 0.371735 0.0248821
0.067096 0.401087 0.0261363
0.0446043 0.401058 0.0435933
0.0896129 0.37222 0.0111065
0.115085 0.372244 0.00323643
0.11492 0.400902 0.00347111
0.0890675 0.400984 0.0116371
0.143538 0.0872775 0.0109228
0.171905 0.0875119 0.00953845
0.171976 0.115095 0.00548772
0.143706 0.11499 0.00708317
0.143588 0.0378727 0.0280151
0.170733 0.0376515 0.0308331
0.171197 0.0612724 0.016759
0.143901 0.0617783 0.0159378
0.200393 0.0393457 0.0330573
0.228208 0.0401725 0.0349756
0.228939 0.0629202 0.019551
0.200637 0.0635877 0.0181804
0.0400785 0.0871043 0.0218924
0.0647226 0.0868956 0.0157177
0.0604885 0.11325 0.0146699
0.0358764 0.113307 0.0260582
0.0335424 0.033542 0.0305141
0.0595605 0.031118 0.0252909
0.0569057 0.0569066 0.0210218
0.0311173 0.0595599 0.0252915
0.0871044 0.0400781 0.0218922
0.113306 0.0358755 0.0260584
0.113249 0.060486 0.0146711
0.0868947 0.0647211 0.0157178
0.0393443 0.200394 0.0330592
0.0635868 0.200636 0.0181807
0.0629214 0.228937 0.0195508
0.0401715 0.228207 0.0349764
0.0378747 0.143586 0.028015
0.0617788 0.1439 0.0159375
0.0612701 0.171199 0.016761
0.0376503 0.170734 0.0308341
0.0872778 0.143537 0.0109218
0.11499 0.143706 0.00708358
0.115094 0.171976 0.00548746
0.087511 0.171905 0.00953833
0.37222 0.0896152 0.0111053
0.400984 0.0890642 0.0116391
0.400902 0.114918 0.00347041
0.372244 0.115085 0.00323598
0.371669 0.0438588 0.0443332
0.401059 0.0446046 0.0435937
0.401089 0.0670936 0.0261381
0.371734 0.0674989 0.0248807
0.428975 0.0446839 0.0443605
0.45814 0.0446888 0.0423491
0.458099 0.069173 0.027185
0.429082 0.0688932 0.0264127
0.257807 0.0880222 0.00998519
0.286272 0.0884941 0.0101291
0.286374 0.115111 0.00322692
0.257718 0.115147 0.00346116
0.257348 0.0405116 0.038519
0.285673 0.0422853 0.0389926
0.286092 0.0646557 0.0219653
0.257676 0.0639199 0.0211617
0.314438 0.0429444 0.0416271
0.343453 0.0434312 0.042552
0.34363 0.0652716 0.0246853
0.314654 0.0659447 0.0232135
0.25773 0.200455 -3.10837e-05
0.286367 0.200455 2.52806e-06
0.286366 0.229092 -7.5548e-07
0.25773 0.229092 -7.42119e-06
0.257729 0.143234 0.000618051
0.286366 0.143209 0.000623637
0.286366 0.171819 7.17209e-05
0.257729 0.171817 -0.000113143
0.315004 0.143207 0.000720004
0.343636 0.143208 0.000832536
0.343639 0.17182 0.000163048
0.315003 0.171819 9.42528e-05
0.143411 0.772961 0.00408289
0.17188 0.773045 0.00232151
0.171977 0.801279 0.00547498
0.143707 0.801378 0.00709187
0.143286 0.715901 0.00115274
0.171816 0.715934 5.34556e-05
0.171847 0.744525 0.000863653
0.143325 0.744492 0.00231287
0.200455 0.715917 -0.000355422
0.229093 0.715916 -9.70438e-05
0.229096 0.744554 -4.56052e-05
0.200438 0.744556 6.1316e-05
0.0378514 0.772764 0.0280172
0.0617608 0.772462 0.0159216
0.0604961 0.803105 0.0146812
0.035879 0.80307 0.0260629
0.0393197 0.716019 0.0330591
0.0635435 0.715746 0.0181725
0.0613159 0.745204 0.0167413
0.0376865 0.745661 0.0308081
0.0874829 0.715834 0.009615
0.114855 0.7159 0.00454986
0.115093 0.744397 0.00548181
0.0875233 0.744465 0.00954797
0.0335499 0.882869 0.0305074
0.0595685 0.88529 0.0252625
0.0572822 0.916515 0.025
0.0286411 0.916515 0.0125
0.0400638 0.829288 0.021902
0.064714 0.829477 0.0157164
0.0569037 0.859481 0.0210301
0.0311148 0.856823 0.0252876
0.0878121 0.828566 0.0170076
0.115423 0.829644 0.0127114
0.113263 0.8559 0.014674
0.0868833 0.851661 0.0157175
0.143222 0.544101 0.000825511
0.171821 0.544096 0.000155367
0.171821 0.572732 0.000163068
0.143205 0.572735 0.00081679
0.143221 0.486815 0.000680083
0.171823 0.486822 0.000151902
0.171818 0.51546 9.21774e-05
0.143238 0.515462 0.0010459
0.200456 0.486823 1.62492e-05
0.229092 0.486823 -4.44422e-07
0.229092 0.515459 1.08825e-06
0.200456 0.515459 2.01057e-05
0.0437627 0.544708 0.0444544
0.0672088 0.544658 0.0250559
0.065598 0.572732 0.0244831
0.0436283 0.572936 0.0423581
0.0450508 0.487431 0.0440787
0.0694132 0.48731 0.0261023
0.0667774 0.515379 0.0263446
0.0443902 0.515348 0.0438994
0.0888799 0.486672 0.011461
0.115031 0.486859 0.00378754
0.11494 0.515475 0.00346354
0.0890251 0.515448 0.0116544
0.0405095 0.659014 0.0384912
0.0639333 0.658704 0.0211241
0.0629176 0.687402 0.0195491
0.0401794 0.688152 0.0349732
0.0429025 0.601921 0.0416597
0.0659515 0.601709 0.0231796
0.0645512 0.630274 0.0220162
0.0422479 0.630687 0.0390686
0.0886496 0.601388 0.0106579
0.114952 0.601366 0.00314333
0.115108 0.63 0.00321942
0.0884488 0.630096 0.0101454
0.372275 0.544097 -3.39886e-08
0.400912 0.544097 -2.6957e-08
0.400912 0.572733 -2.87808e-08
0.372275 0.572733 -3.05149e-08
0.372275 0.486823 -2.42039e-08
0.400912 0.486823 -1.75946e-08
0.400912 0.51546 -1.87001e-08
0.372275 0.51546 -2.59384e-08
0.429549 0.486823 -1.93186e-08
0.458186 0.486823 -1.77917e-08
0.458186 0.51546 -2.65521e-08
0.429549 0.51546 -2.3729e-08
0.257729 0.544097 2.18646e-07
0.286366 0.544097 -5.6657e-09
0.286366 0.572733 -1.43506e-08
0.257729 0.572733 2.17556e-07
0.257729 0.486823 5.28878e-08
0.286366 0.486823 -1.40044e-08
0.286366 0.51546 -1.83524e-09
0.257729 0.51546 1.24675e-07
0.315003 0.486823 -4.22939e-08
0.343639 0.486823 -3.94639e-08
0.343639 0.51546 -3.71974e-08
0.315003 0.51546 -3.26062e-08
0.257729 0.658643 -1.75798e-06
0.286366 0.658643 -3.07128e-07
0.286366 0.68728 -7.63702e-07
0.257729 0.68728 -7.51819e-06
0.25773 0.60137 9.47376e-08
0.286366 0.60137 -2.816e-08
0.286366 0.630006 -9.20254e-08
0.25773 0.630006 -2.93109e-07
0.315003 0.60137 -3.78696e-08
0.343639 0.60137 -3.28609e-08
0.343639 0.630006 -2.59969e-08
0.315003 0.630006 -4.07116e-08
0.601369 0.773167 0.000704837
0.630006 0.773162 0.000643356
0.629999 0.801301 0.00319805
0.601372 0.801484 0.00314896
0.60137 0.715916 1.66697e-05
0.630006 0.715916 2.07959e-06
0.630006 0.744553 6.25154e-05
0.60137 0.744553 9.48405e-05
0.658643 0.715916 -3.0942e-05
0.687279 0.715917 -9.73015e-05
0.687276 0.744554 -4.34243e-05
0.658644 0.744554 -0.000112942
0.486817 0.773133 0.000713777
0.515464 0.77314 0.00109169
0.51547 0.801607 0.00343321
0.486903 0.801319 0.00375959
0.486823 0.715916 5.85348e-06
0.51546 0.715916 2.16045e-05
0.515461 0.744555 7.36654e-05
0.486821 0.744547 0.00012449
0.544097 0.715916 2.62961e-06
0.572733 0.715916 2.30493e-05
0.572733 0.744551 0.000175277
0.544097 0.744551 0.00015871
0.487235 0.871292 0.0440442
0.515239 0.872067 0.0439424
0.51554 0.916515 0.175
0.486899 0.916515 0.1875
0.486711 0.827578 0.0115066
0.515452 0.827642 0.0118217
0.515238 0.849842 0.0265296
0.487141 0.847092 0.0262144
0.544153 0.826614 0.0110725
0.57286 0.827536 0.0109457
0.572791 0.850666 0.024403
0.544772 0.848962 0.0249166
0.60137 0.544096 -3.06136e-08
0.630006 0.544096 -1.5202e-08
0.630006 0.572732 -2.26933e-08
0.60137 0.572732 -2.98327e-08
0.60137 0.486822 -1.48606e-08
0.630006 0.486822 -1.01473e-08
0.630006 0.515459 -7.30838e-09
0.60137 0.515459 -2.07791e-08
0.658643 0.486822 -1.18391e-07
0.687279 0.486822 -3.5214e-06
0.687279 0.515459 -6.52957e-07
0.658643 0.515459 -2.35214e-08
0.486823 0.544096 -2.93037e-08
0.51546 0.544096 -2.8193e-08
0.51546 0.572732 -3.13617e-08
0.486823 0.572732 -2.6947e-08
0.486823 0.486822 -1.3646e-08
0.51546 0.486822 -1.58384e-08
0.51546 0.515459 -1.8225e-08
0.486823 0.515459 -2.03814e-08
0.544096 0.486822 -2.13902e-08
0.572733 0.486822 -2.01775e-08
0.572733 0.515459 -2.82832e-08
0.544096 0.515459 -2.54452e-08
0.486823 0.658642 -1.14118e-07
0.515459 0.658642 -1.54129e-08
0.515459 0.687279 -6.44841e-07
0.486823 0.687279 -3.52113e-06
0.486823 0.601369 -1.74853e-08
0.515459 0.601369 -2.14487e-08
0.515459 0.630005 -3.53301e-09
0.486823 0.630005 -8.60198e-09
0.544096 0.601369 -2.94777e-08
0.572733 0.601369 -2.74498e-08
0.572732 0.630005 -1.15563e-08
0.544096 0.630005 -6.5774e-09
0.826609 0.544151 0.011069
0.848952 0.544771 0.0249095
0.850675 0.572792 0.0244106
0.82754 0.57286 0.0109483
0.827577 0.48671 0.0115064
0.847103 0.487144 0.0262197
0.84983 0.515229 0.0265237
0.827642 0.515448 0.0118212
0.871299 0.487238 0.0440511
0.916515 0.486899 0.1875
0.916515 0.51554 0.175
0.872059 0.515233 0.0439337
0.715916 0.544096 2.66232e-06
0.74455 0.544096 0.000158988
0.74455 0.572733 0.000175054
0.715915 0.572733 2.30512e-05
0.715916 0.486823 5.88448e-06
0.744546 0.486821 0.000124193
0.744554 0.51546 7.42138e-05
0.715916 0.515459 2.16543e-05
0.773132 0.486816 0.000715822
0.801317 0.486902 0.0037583
0.801607 0.51547 0.00343404
0.773139 0.515464 0.00109215
0.715915 0.658643 -3.09699e-05
0.744553 0.658643 -0.000112909
0.744554 0.687276 -4.37118e-05
0.715916 0.687279 -9.72747e-05
0.715916 0.60137 1.66673e-05
0.744552 0.60137 9.48498e-05
0.744552 0.630006 6.27666e-05
0.715916 0.630006 2.09588e-06
0.773166 0.601369 0.000705175
0.801485 0.601371 0.00314967
0.801298 0.629999 0.00319729
0.773161 0.630006 0.000642543
0.828212 0.658604 0.00994453
0.852244 0.658739 0.0210211
0.853474 0.687365 0.0195581
0.828691 0.687075 0.00950636
0.827907 0.601361 0.0107275
0.850654 0.601651 0.0233293
0.851844 0.630246 0.0219925
0.827921 0.630106 0.0101539
0.873551 0.601875 0.0417438
0.916515 0.601463 0.1375
0.916515 0.630104 0.125
0.874143 0.630662 0.0390704
0.601369 0.658643 8.26618e-08
0.630006 0.658643 -2.86301e-07
0.630006 0.68728 -7.32823e-07
0.601369 0.68728 1.72833e-06
0.601369 0.60137 -2.34925e-08
0.630006 0.60137 -3.00265e-08
0.630006 0.630006 -8.31776e-08
0.601369 0.630006 -2.3267e-08
0.658643 0.60137 7.09657e-08
0.687279 0.60137 1.71978e-06
0.687279 0.630006 -7.37435e-07
0.658643 0.630006 -2.90181e-07
0.601875 0.873554 0.0417455
0.63066 0.874145 0.0390732
0.630104 0.916515 0.125
0.601463 0.916515 0.1375
0.601362 0.827902 0.0107263
0.630105 0.82793 0.0101567
0.630242 0.851852 0.0219946
0.601652 0.850653 0.0233268
0.658603 0.828212 0.00994494
0.687077 0.828689 0.00950519
0.687376 0.853471 0.0195551
0.658741 0.852239 0.0210186
0.372276 0.658643 1.4116e-07
0.400913 0.658643 -1.0964e-08
0.400912 0.687279 -6.20612e-07
0.372276 0.687279 1.63323e-06
0.372276 0.601369 -2.17715e-08
0.400913 0.601369 -2.03065e-08
0.400913 0.630006 -5.12394e-09
0.372276 0.630006 -1.05034e-08
0.429549 0.601369 -2.55074e-08
0.458186 0.601369 -2.33428e-08
0.458186 0.630006 -1.54348e-08
0.42955 0.630006 -1.24269e-08
0.143235 0.658643 0.000624877
0.171818 0.658643 -0.000114267
0.171818 0.687276 -4.82838e-05
0.143229 0.687285 0.000731518
0.143208 0.601368 0.000714482
0.17182 0.601369 9.78783e-05
0.17182 0.630006 6.96518e-05
0.14321 0.630006 0.000625955
0.200456 0.601369 1.67218e-05
0.229093 0.601369 1.72862e-06
0.229093 0.630006 -7.4081e-07
0.200456 0.630006 2.67242e-06
0.143659 0.878567 0.0280038
0.170718 0.87866 0.0307061
0.171847 0.916515 0.075
0.143205 0.916515 0.0625
0.143535 0.829105 0.0109299
0.171898 0.828833 0.00954547
0.171141 0.855008 0.0167153
0.143925 0.854594 0.0159237
0.200553 0.828902 0.00964133
0.229298 0.828685 0.0095036
0.228981 0.853487 0.0195679
0.200606 0.852895 0.0181885
0.372276 0.200456 1.39826e-05
0.400912 0.200456 2.1762e-05
0.400912 0.229092 1.02576e-06
0.372276 0.229092 2.24916e-06
0.37227 0.143219 0.00079452
0.400909 0.143235 0.00104195
0.400912 0.171819 9.95047e-05
0.372275 0.171821 0.000164744
0.429556 0.143229 0.000732223
0.458186 0.143182 0.000733897
0.458186 0.171821 0.000340324
0.42955 0.171823 0.000134509
0.143286 0.20047 0.00115047
0.171815 0.200438 5.25116e-05
0.171817 0.229096 -4.93254e-05
0.143228 0.229086 0.000725832
0.143411 0.143411 0.00408404
0.171879 0.143325 0.00231796
0.171846 0.171846 0.000865641
0.143325 0.171879 0.00231764
0.20047 0.143286 0.00115036
0.229086 0.143228 0.00072596
0.229096 0.171818 -4.9364e-05
0.200438 0.171815 5.29856e-05
0.143229 0.429556 0.000731484
0.171823 0.42955 0.000134552
0.171821 0.458186 0.000339947
0.143183 0.458186 0.000734123
0.143219 0.37227 0.000794575
0.171821 0.372275 0.000164652
0.171819 0.400912 9.94887e-05
0.143235 0.40091 0.00104131
0.200456 0.372276 1.40266e-05
0.229092 0.372276 2.24547e-06
0.229093 0.400912 1.02822e-06
0.200456 0.400912 2.17408e-05
0.828902 0.200551 0.00963981
0.852888 0.200607 0.0181859
0.853485 0.22898 0.0195675
0.828683 0.229298 0.00950375
0.829105 0.143535 0.0109274
0.854596 0.143923 0.015922
0.855015 0.171142 0.0167181
0.828835 0.171899 0.00954374
0.878568 0.143657 0.0280049
0.916515 0.143205 0.0625
0.916515 0.171847 0.075
0.878668 0.170718 0.0307138
0.601369 0.200456 1.6735e-05
0.630006 0.200456 2.66802e-06
0.630006 0.229093 -7.41091e-07
0.601369 0.229093 1.73067e-06
0.601368 0.143208 0.0007144
0.630007 0.14321 0.000626235
0.630006 0.17182 6.94141e-05
0.601369 0.17182 9.80402e-05
0.658643 0.143235 0.000625585
0.687285 0.143229 0.000731759
0.687276 0.171818 -4.80763e-05
0.658643 0.171818 -0.000114195
0.60137 0.429549 -1.81825e-08
0.630006 0.429549 -1.19254e-08
0.630006 0.458186 -1.61829e-08
0.60137 0.458186 -1.76519e-08
0.60137 0.372276 -1.55442e-08
0.630006 0.372276 -4.32082e-09
0.630006 0.400912 -2.59469e-09
0.60137 0.400912 -1.41147e-08
0.658643 0.372276 1.48084e-07
0.687279 0.372276 1.62981e-06
0.687279 0.400912 -6.17972e-07
0.658643 0.400912 -1.05771e-08
0.827602 0.429655 0.0115741
0.847577 0.429208 0.0265356
0.846813 0.458121 0.0268299
0.827374 0.458154 0.0112419
0.826514 0.372232 0.0110193
0.848683 0.371636 0.0247466
0.849565 0.401252 0.0263584
0.827576 0.400975 0.0117883
0.872564 0.371528 0.0443298
0.916515 0.372334 0.1625
0.916515 0.400975 0.175
0.871897 0.401199 0.0437054
0.372276 0.429549 -4.22241e-08
0.400912 0.429549 -2.28301e-08
0.400912 0.458186 -2.2752e-08
0.372276 0.458186 -3.6395e-08
0.372276 0.372275 -2.68615e-08
0.400912 0.372275 -2.52498e-08
0.400912 0.400912 -1.95466e-08
0.372276 0.400912 -3.20274e-08
0.429549 0.372275 -3.03147e-08
0.458186 0.372275 -2.62513e-08
0.458186 0.400912 -1.81174e-08
0.429549 0.400912 -1.88786e-08
0.371532 0.872566 0.0443304
0.401196 0.871891 0.043698
0.400975 0.916515 0.175
0.372334 0.916515 0.1625
0.372232 0.826514 0.0110198
0.400975 0.827579 0.0117911
0.401248 0.849561 0.0263537
0.371639 0.848681 0.0247476
0.429655 0.827599 0.0115744
0.458151 0.827369 0.0112392
0.458117 0.846808 0.0268255
0.429213 0.847585 0.0265411
0.829307 0.876356 0.0218899
0.856836 0.885296 0.0252693
0.859233 0.916515 0.025
0.830592 0.916515 0.0375
0.828564 0.828564 0.0169966
0.851665 0.829481 0.0157135
0.85949 0.859491 0.0210244
0.829482 0.851664 0.0157142
0.876355 0.82931 0.0218902
0.916515 0.830592 0.0375
0.916515 0.859233 0.025
0.885296 0.856838 0.0252694
0 0.601463 0.1375
0 0.630104 0.125
0 0.572822 0.15
0 0.658745 0.1125
0 0.687386 0.1
0 0.486899 0.1875
0 0.51554 0.175
0 0.458258 0.2
0 0.544181 0.1625
0 0.830592 0.0375
0 0.859233 0.025
0 0.801951 0.05
0 0.887874 0.0125
0 0.916515 0
0 0.716027 0.0875
0 0.744669 0.075
0 0.77331 0.0625
0.286411 0 0.125
0.315052 0 0.1375
0.343693 0 0.15
0.229129 0 0.1
0.25777 0 0.1125
0.400975 0 0.175
0.429616 0 0.1875
0.458258 0 0.2
0.372334 0 0.1625
0 0.143205 0.0625
0 0.171847 0.075
0 0.114564 0.05
0 0.200488 0.0875
0 0.229129 0.1
0.0572822 0 0.025
0.0859233 0 0.0375
0.114564 0 0.05
0 0.0286411 0.0125
0 0.0572822 0.025
0 0 0
0.0286411 0 0.0125
0 0.0859233 0.0375
0.171847 0 0.075
0.200488 0 0.0875
0.143205 0 0.0625
0 0.372334 0.1625
0 0.400975 0.175
0 0.343693 0.15
0 0.429616 0.1875
0 0.25777 0.1125
0 0.286411 0.125
0 0.315052 0.1375
0.744669 0 0.075
0.77331 0 0.0625
0.801951 0 0.05
0.687386 0 0.1
0.716027 0 0.0875
0.859233 0 0.025
0.887874 0 0.0125
0.916515 0 0
0.830592 0 0.0375
0.51554 0 0.175
0.544181 0 0.1625
0.572822 0 0.15
0.486899 0 0.1875
0.630104 0 0.125
0.658745 0 0.1125
0.601463 0 0.1375
4 0 1 2 3
4 4 5 6 7
4 8 9 10 11
4 12 13 14 15
4 16 17 18 19
4 20 21 22 23
4 24 25 26 27
4 28 29 30 31
4 32 33 34 35
4 36 37 38 39
4 40 41 42 43
4 44 45 46 47
4 48 49 50 51
4 52 53 54 55
4 56 57 58 59
4 60 61 62 63
4 64 65 66 67
4 68 69 70 71
4 72 73 74 75
4 76 77 78 79
4 80 81 82 83
4 84 85 86 87
4 88 89 90 91
4 92 93 94 95
4 96 97 98 99
4 100 101 102 103
4 104 105 106 107
4 108 109 110 111
4 112 113 114 115
4 116 117 118 119
4 120 121 122 123
4 124 125 126 127
4 128 129 130 131
4 132 133 134 135
4 136 137 138 139
4 140 141 142 143
4 144 145 146 147
4 148 149 150 151
4 152 153 154 155
4 156 157 158 159
4 160 161 162 163
4 164 165 166 167
4 168 169 170 171
4 172 173 174 175
4 176 177 178 179
4 180 181 182 183
4 184 185 186 187
4 188 189 190 191
4 192 193 194 195
4 196 197 198 199
4 200 201 202 203
4 204 205 206 207
4 208 209 210 211
4 212 213 214 215
4 216 217 218 219
4 220 221 222 223
4 224 225 226 227
4 228 229 230 231
4 232 233 234 235
4 236 237 238 239
4 240 241 242 243
4 244 245 246 247
4 248 249 250 251
4 252 253 254 255
4 256 257 258 259
4 260 261 262 263
4 264 265 266 267
4 268 269 270 271
4 272 273 274 275
4 276 277 278 279
4 280 281 282 283
4 284 285 286 287
4 288 289 290 291
4 292 293 294 295
4 296 297 298 299
4 300 301 302 303
4 304 305 306 307
4 308 309 310 311
4 312 313 314 315
4 316 317 318 319
4 320 321 322 323
4 324 325 326 327
4 328 329 330 331
4 332 333 334 335
4 336 337 338 339
4 340 341 342 343
4 344 345 346 347
4 348 349 350 351
4 352 353 354 355
4 356 357 358 359
4 360 361 362 363
4 364 365 366 367
4 368 369 370 371
4 372 373 374 375
4 376 377 378 379
4 380 381 382 383
4 384 385 386 387
4 388 389 390 391
4 392 393 394 395
4 396 397 398 399
4 400 401 402 403
4 404 405 406 407
4 408 409 410 411
4 412 413 414 415
4 416 417 418 419
4 420 421 422 423
4 424 425 426 427
4 428 429 430 431
4 432 433 434 435
4 436 437 438 439
4 440 441 442 443
4 444 445 446 447
4 448 449 450 451
4 452 453 454 455
4 456 457 458 459
4 460 461 462 463
4 464 465 466 467
4 468 469 470 471
4 472 473 474 475
4 476 477 478 479
4 480 481 482 483
4 484 485 486 487
4 488 489 490 491
4 492 493 494 495
4 496 497 498 499
4 500 501 502 503
4 504 505 506 507
4 508 509 510 511
4 512 513 514 515
4 516 517 518 519
4 520 521 522 523
4 524 525 526 527
4 528 529 530 531
4 532 533 534 535
4 536 537 538 539
4 540 541 542 543
4 544 545 546 547
4 548 549 550 551
4 552 553 554 555
4 556 557 558 559
4 560 561 562 563
4 564 565 566 567
4 568 569 570 571
4 572 573 574 575
4 576 577 578 579
4 580 581 582 583
4 584 585 586 587
4 588 589 590 591
4 592 593 594 595
4 596 597 598 599
4 600 601 602 603
4 604 605 606 607
4 608 609 610 611
4 612 613 614 615
4 616 617 618 619
4 620 621 622 623
4 624 625 626 627
4 628 629 630 631
4 632 633 634 635
4 636 637 638 639
4 640 641 642 643
4 644 645 646 647
4 648 649 650 651
4 652 653 654 655
4 656 657 658 659
4 660 661 662 663
4 664 665 666 667
4 668 669 670 671
4 672 673 674 675
4 676 677 678 679
4 680 681 682 683
4 684 685 686 687
4 688 689 690 691
4 692 693 694 695
4 696 697 698 699
4 700 701 702 703
4 704 705 706 707
4 708 709 710 711
4 712 713 714 715
4 716 717 718 719
4 720 721 722 723
4 724 725 726 727
4 728 729 730 731
4 732 733 734 735
4 736 737 738 739
4 740 741 742 743
4 744 745 746 747
4 748 749 750 751
4 752 753 754 755
4 756 757 758 759
4 760 761 762 763
4 764 765 766 767
4 768 769 770 771
4 772 773 774 775
4 776 777 778 779
4 780 781 782 783
4 784 785 786 787
4 788 789 790 791
4 792 793 794 795
4 796 797 798 799
4 800 801 802 803
4 804 805 806 807
4 808 809 810 811
4 812 813 814 815
4 816 817 818 819
4 820 821 822 823
4 824 825 826 827
4 828 829 830 831
4 832 833 834 835
4 836 837 838 839
4 840 841 842 843
4 844 845 846 847
4 848 849 850 851
4 852 853 854 855
4 856 857 858 859
4 860 861 862 863
4 864 865 866 867
4 868 869 870 871
4 872 873 874 875
4 876 877 878 879
4 880 881 882 883
4 884 885 886 887
4 888 889 890 891
4 892 893 894 895
4 896 897 898 899
4 900 901 902 903
4 904 905 906 907
4 908 909 910 911
4 912 913 914 915
4 916 917 918 919
4 920 921 922 923
4 924 925 926 927
4 928 929 930 931
4 932 933 934 935
4 936 937 938 939
4 940 941 942 943
4 944 945 946 947
4 948 949 950 951
4 952 953 954 955
4 956 957 958 959
4 960 961 962 963
4 964 965 966 967
4 968 969 970 971
4 972 973 974 975
4 976 977 978 979
4 980 981 982 983
4 984 985 986 987
4 988 989 990 991
4 992 993 994 995
4 996 997 998 999
4 1000 1001 1002 1003
4 1004 1005 1006 1007
4 1008 1009 1010 1011
4 1012 1013 1014 1015
4 1016 1017 1018 1019
4 1020 1021 1022 1023
4 1017 1020 1023 1018
4 258 255 1020 1017
4 255 254 1021 1020
4 289 1016 1019 290
4 250 259 1016 289
4 259 258 1017 1016
4 245 1012 1015 246
4 290 1019 1012 245
4 1019 1018 1013 1012
4 1005 1008 1011 1006
4 294 243 1008 1005
4 243 242 1009 1008
4 325 1004 1007 326
4 238 295 1004 325
4 295 294 1005 1004
4 233 1000 1003 234
4 326 1007 1000 233
4 1007 1006 1001 1000
4 993 996 999 994
4 330 231 996 993
4 231 230 997 996
4 361 992 995 362
4 226 331 992 361
4 331 330 993 992
4 221 988 991 222
4 362 995 988 221
4 995 994 989 988
4 981 984 987 982
4 366 219 984 981
4 219 218 985 984
4 397 980 983 398
4 214 367 980 397
4 367 366 981 980
4 209 976 979 210
4 398 983 976 209
4 983 982 977 976
4 969 972 975 970
4 402 207 972 969
4 207 206 973 972
4 433 968 971 434
4 202 403 968 433
4 403 402 969 968
4 197 964 967 198
4 434 971 964 197
4 971 970 965 964
4 957 960 963 958
4 438 195 960 957
4 195 194 961 960
4 469 956 959 470
4 190 439 956 469
4 439 438 957 956
4 185 952 955 186
4 470 959 952 185
4 959 958 953 952
4 945 948 951 946
4 474 183 948 945
4 183 182 949 948
4 505 944 947 506
4 178 475 944 505
4 475 474 945 944
4 173 940 943 174
4 506 947 940 173
4 947 946 941 940
4 933 936 939 934
4 510 171 936 933
4 171 170 937 936
4 541 932 935 542
4 166 511 932 541
4 511 510 933 932
4 161 928 931 162
4 542 935 928 161
4 935 934 929 928
4 921 924 927 922
4 546 159 924 921
4 159 158 925 924
4 577 920 923 578
4 154 547 920 577
4 547 546 921 920
4 149 916 919 150
4 578 923 916 149
4 923 922 917 916
4 909 912 915 910
4 582 147 912 909
4 147 146 913 912
4 613 908 911 614
4 142 583 908 613
4 583 582 909 908
4 137 904 907 138
4 614 911 904 137
4 911 910 905 904
4 897 900 903 898
4 618 135 900 897
4 135 134 901 900
4 649 896 899 650
4 130 619 896 649
4 619 618 897 896
4 125 892 895 126
4 650 899 892 125
4 899 898 893 892
4 885 888 891 886
4 654 123 888 885
4 123 122 889 888
4 685 884 887 686
4 118 655 884 685
4 655 654 885 884
4 113 880 883 114
4 686 887 880 113
4 887 886 881 880
4 873 876 879 874
4 690 111 876 873
4 111 110 877 876
4 721 872 875 722
4 106 691 872 721
4 691 690 873 872
4 101 868 871 102
4 722 875 868 101
4 875 874 869 868
4 861 864 867 862
4 726 99 864 861
4 99 98 865 864
4 757 860 863 758
4 94 727 860 757
4 727 726 861 860
4 89 856 859 90
4 758 863 856 89
4 863 862 857 856
4 849 852 855 850
4 762 87 852 849
4 87 86 853 852
4 793 848 851 794
4 82 763 848 793
4 763 762 849 848
4 77 844 847 78
4 794 851 844 77
4 851 850 845 844
4 837 840 843 838
4 798 75 840 837
4 75 74 841 840
4 829 836 839 830
4 70 799 836 829
4 799 798 837 836
4 65 832 835 66
4 830 839 832 65
4 839 838 833 832
4 825 828 831 826
4 810 71 828 825
4 71 70 829 828
4 853 824 827 854
4 86 811 824 853
4 811 810 825 824
4 57 820 823 58
4 854 827 820 57
4 827 826 821 820
4 813 816 819 814
4 390 211 816 813
4 211 210 817 816
4 769 812 815 770
4 18 391 812 769
4 391 390 813 812
4 85 808 811 86
4 770 815 808 85
4 815 814 809 808
4 801 804 807 802
4 978 15 804 801
4 15 14 805 804
4 817 800 803 818
4 210 979 800 817
4 979 978 801 800
4 69 796 799 70
4 818 803 796 69
4 803 802 797 796
4 789 792 795 790
4 774 83 792 789
4 83 82 793 792
4 877 788 791 878
4 110 775 788 877
4 775 774 789 788
4 49 784 787 50
4 878 791 784 49
4 791 790 785 784
4 777 780 783 778
4 426 199 780 777
4 199 198 781 780
4 697 776 779 698
4 10 427 776 697
4 427 426 777 776
4 109 772 775 110
4 698 779 772 109
4 779 778 773 772
4 765 768 771 766
4 966 19 768 765
4 19 18 769 768
4 781 764 767 782
4 198 967 764 781
4 967 966 765 764
4 81 760 763 82
4 782 767 760 81
4 767 766 761 760
4 753 756 759 754
4 738 95 756 753
4 95 94 757 756
4 1009 752 755 1010
4 242 739 752 1009
4 739 738 753 752
4 5 748 751 6
4 1010 755 748 5
4 755 754 749 748
4 741 744 747 742
4 786 79 744 741
4 79 78 745 744
4 301 740 743 302
4 50 787 740 301
4 787 786 741 740
4 241 736 739 242
4 302 743 736 241
4 743 742 737 736
4 729 732 735 730
4 846 59 732 729
4 59 58 733 732
4 745 728 731 746
4 78 847 728 745
4 847 846 729 728
4 93 724 727 94
4 746 731 724 93
4 731 730 725 724
4 717 720 723 718
4 702 107 720 717
4 107 106 721 720
4 889 716 719 890
4 122 703 716 889
4 703 702 717 716
4 45 712 715 46
4 890 719 712 45
4 719 718 713 712
4 705 708 711 706
4 354 223 708 705
4 223 222 709 708
4 661 704 707 662
4 30 355 704 661
4 355 354 705 704
4 121 700 703 122
4 662 707 700 121
4 707 706 701 700
4 693 696 699 694
4 990 11 696 693
4 11 10 697 696
4 709 692 695 710
4 222 991 692 709
4 991 990 693 692
4 105 688 691 106
4 710 695 688 105
4 695 694 689 688
4 681 684 687 682
4 666 119 684 681
4 119 118 685 684
4 1024 680 683 1025
4 1026 667 680 1024
4 667 666 681 680
4 1027 676 679 1028
4 1025 683 676 1027
4 683 682 677 676
4 669 672 675 670
4 534 163 672 669
4 163 162 673 672
4 1029 668 671 1030
4 1031 535 668 1029
4 535 534 669 668
4 1032 664 667 1026
4 1030 671 664 1032
4 671 670 665 664
4 657 660 663 658
4 930 31 660 657
4 31 30 661 660
4 673 656 659 674
4 162 931 656 673
4 931 930 657 656
4 117 652 655 118
4 674 659 652 117
4 659 658 653 652
4 645 648 651 646
4 630 131 648 645
4 131 130 649 648
4 1033 644 647 1034
4 1035 631 644 1033
4 631 630 645 644
4 1036 640 643 1037
4 1034 647 640 1036
4 647 646 641 640
4 633 636 639 634
4 678 115 636 633
4 115 114 637 636
4 1038 632 635 1039
4 1028 679 632 1038
4 679 678 633 632
4 1040 628 631 1035
4 1039 635 628 1040
4 635 634 629 628
4 621 624 627 622
4 882 47 624 621
4 47 46 625 624
4 637 620 623 638
4 114 883 620 637
4 883 882 621 620
4 129 616 619 130
4 638 623 616 129
4 623 622 617 616
4 609 612 615 610
4 594 143 612 609
4 143 142 613 612
4 925 608 611 926
4 158 595 608 925
4 595 594 609 608
4 33 604 607 34
4 926 611 604 33
4 611 610 605 604
4 597 600 603 598
4 1041 1042 600 597
4 1042 1043 601 600
4 553 596 599 554
4 1044 1045 596 553
4 1045 1041 597 596
4 157 592 595 158
4 554 599 592 157
4 599 598 593 592
4 585 588 591 586
4 1046 1047 588 585
4 1047 1048 589 588
4 601 584 587 602
4 1043 1049 584 601
4 1049 1046 585 584
4 141 580 583 142
4 602 587 580 141
4 587 586 581 580
4 573 576 579 574
4 558 155 576 573
4 155 154 577 576
4 1050 572 575 1051
4 1052 559 572 1050
4 559 558 573 572
4 1053 568 571 1054
4 1051 575 568 1053
4 575 574 569 568
4 561 564 567 562
4 1055 1056 564 561
4 1056 1057 565 564
4 1058 560 563 1059
4 1060 1061 560 1058
4 1061 1055 561 560
4 1062 556 559 1052
4 1059 563 556 1062
4 563 562 557 556
4 549 552 555 550
4 1063 1064 552 549
4 1064 1044 553 552
4 565 548 551 566
4 1057 1065 548 565
4 1065 1063 549 548
4 153 544 547 154
4 566 551 544 153
4 551 550 545 544
4 537 540 543 538
4 522 167 540 537
4 167 166 541 540
4 1066 536 539 1067
4 1068 523 536 1066
4 523 522 537 536
4 1069 532 535 1031
4 1067 539 532 1069
4 539 538 533 532
4 525 528 531 526
4 570 151 528 525
4 151 150 529 528
4 1070 524 527 1071
4 1054 571 524 1070
4 571 570 525 524
4 1072 520 523 1068
4 1071 527 520 1072
4 527 526 521 520
4 513 516 519 514
4 918 35 516 513
4 35 34 517 516
4 529 512 515 530
4 150 919 512 529
4 919 918 513 512
4 165 508 511 166
4 530 515 508 165
4 515 514 509 508
4 501 504 507 502
4 486 179 504 501
4 179 178 505 504
4 961 500 503 962
4 194 487 500 961
4 487 486 501 500
4 21 496 499 22
4 962 503 496 21
4 503 502 497 496
4 489 492 495 490
4 1073 1074 492 489
4 1074 1075 493 492
4 445 488 491 446
4 1076 1077 488 445
4 1077 1073 489 488
4 193 484 487 194
4 446 491 484 193
4 491 490 485 484
4 477 480 483 478
4 1078 1079 480 477
4 1079 1080 481 480
4 493 476 479 494
4 1075 1081 476 493
4 1081 1078 477 476
4 177 472 475 178
4 494 479 472 177
4 479 478 473 472
4 465 468 471 466
4 450 191 468 465
4 191 190 469 468
4 913 464 467 914
4 146 451 464 913
4 451 450 465 464
4 37 460 463 38
4 914 467 460 37
4 467 466 461 460
4 453 456 459 454
4 1082 1083 456 453
4 1083 1084 457 456
4 589 452 455 590
4 1048 1085 452 589
4 1085 1082 453 452
4 145 448 451 146
4 590 455 448 145
4 455 454 449 448
4 441 444 447 442
4 1086 1087 444 441
4 1087 1076 445 444
4 457 440 443 458
4 1084 1088 440 457
4 1088 1086 441 440
4 189 436 439 190
4 458 443 436 189
4 443 442 437 436
4 429 432 435 430
4 414 203 432 429
4 203 202 433 432
4 997 428 431 998
4 230 415 428 997
4 415 414 429 428
4 9 424 427 10
4 998 431 424 9
4 431 430 425 424
4 417 420 423 418
4 462 187 420 417
4 187 186 421 420
4 337 416 419 338
4 38 463 416 337
4 463 462 417 416
4 229 412 415 230
4 338 419 412 229
4 419 418 413 412
4 405 408 411 406
4 954 23 408 405
4 23 22 409 408
4 421 404 407 422
4 186 955 404 421
4 955 954 405 404
4 201 400 403 202
4 422 407 400 201
4 407 406 401 400
4 393 396 399 394
4 378 215 396 393
4 215 214 397 396
4 973 392 395 974
4 206 379 392 973
4 379 378 393 392
4 17 388 391 18
4 974 395 388 17
4 395 394 389 388
4 381 384 387 382
4 498 175 384 381
4 175 174 385 384
4 409 380 383 410
4 22 499 380 409
4 499 498 381 380
4 205 376 379 206
4 410 383 376 205
4 383 382 377 376
4 369 372 375 370
4 942 27 372 369
4 27 26 373 372
4 385 368 371 386
4 174 943 368 385
4 943 942 369 368
4 213 364 367 214
4 386 371 364 213
4 371 370 365 364
4 357 360 363 358
4 342 227 360 357
4 227 226 361 360
4 937 356 359 938
4 170 343 356 937
4 343 342 357 356
4 29 352 355 30
4 938 359 352 29
4 359 358 353 352
4 345 348 351 346
4 606 139 348 345
4 139 138 349 348
4 517 344 347 518
4 34 607 344 517
4 607 606 345 344
4 169 340 343 170
4 518 347 340 169
4 347 346 341 340
4 333 336 339 334
4 906 39 336 333
4 39 38 337 336
4 349 332 335 350
4 138 907 332 349
4 907 906 333 332
4 225 328 331 226
4 350 335 328 225
4 335 334 329 328
4 321 324 327 322
4 306 239 324 321
4 239 238 325 324
4 901 320 323 902
4 134 307 320 901
4 307 306 321 320
4 41 316 319 42
4 902 323 316 41
4 323 322 317 316
4 309 312 315 310
4 714 103 312 309
4 103 102 313 312
4 625 308 311 626
4 46 715 308 625
4 715 714 309 308
4 133 304 307 134
4 626 311 304 133
4 311 310 305 304
4 297 300 303 298
4 870 51 300 297
4 51 50 301 300
4 313 296 299 314
4 102 871 296 313
4 871 870 297 296
4 237 292 295 238
4 314 299 292 237
4 299 298 293 292
4 285 288 291 286
4 270 251 288 285
4 251 250 289 288
4 865 284 287 866
4 98 271 284 865
4 271 270 285 284
4 53 280 283 54
4 866 287 280 53
4 287 286 281 280
4 273 276 279 274
4 822 67 276 273
4 67 66 277 276
4 733 272 275 734
4 58 823 272 733
4 823 822 273 272
4 97 268 271 98
4 734 275 268 97
4 275 274 269 268
4 261 264 267 262
4 834 63 264 261
4 63 62 265 264
4 277 260 263 278
4 66 835 260 277
4 835 834 261 260
4 249 256 259 250
4 278 263 256 249
4 263 262 257 256
4 257 252 255 258
4 262 267 252 257
4 267 266 253 252
4 269 248 251 270
4 274 279 248 269
4 279 278 249 248
4 281 244 247 282
4 286 291 244 281
4 291 290 245 244
4 293 240 243 294
4 298 303 240 293
4 303 302 241 240
4 305 236 239 306
4 310 315 236 305
4 315 314 237 236
4 317 232 235 318
4 322 327 232 317
4 327 326 233 232
4 329 228 231 330
4 334 339 228 329
4 339 338 229 228
4 341 224 227 342
4 346 351 224 341
4 351 350 225 224
4 353 220 223 354
4 358 363 220 353
4 363 362 221 220
4 365 216 219 366
4 370 375 216 365
4 375 374 217 216
4 377 212 215 378
4 382 387 212 377
4 387 386 213 212
4 389 208 211 390
4 394 399 208 389
4 399 398 209 208
4 401 204 207 402
4 406 411 204 401
4 411 410 205 204
4 413 200 203 414
4 418 423 200 413
4 423 422 201 200
4 425 196 199 426
4 430 435 196 425
4 435 434 197 196
4 437 192 195 438
4 442 447 192 437
4 447 446 193 192
4 449 188 191 450
4 454 459 188 449
4 459 458 189 188
4 461 184 187 462
4 466 471 184 461
4 471 470 185 184
4 473 180 183 474
4 478 483 180 473
4 483 482 181 180
4 485 176 179 486
4 490 495 176 485
4 495 494 177 176
4 497 172 175 498
4 502 507 172 497
4 507 506 173 172
4 509 168 171 510
4 514 519 168 509
4 519 518 169 168
4 521 164 167 522
4 526 531 164 521
4 531 530 165 164
4 533 160 163 534
4 538 543 160 533
4 543 542 161 160
4 545 156 159 546
4 550 555 156 545
4 555 554 157 156
4 557 152 155 558
4 562 567 152 557
4 567 566 153 152
4 569 148 151 570
4 574 579 148 569
4 579 578 149 148
4 581 144 147 582
4 586 591 144 581
4 591 590 145 144
4 593 140 143 594
4 598 603 140 593
4 603 602 141 140
4 605 136 139 606
4 610 615 136 605
4 615 614 137 136
4 617 132 135 618
4 622 627 132 617
4 627 626 133 132
4 629 128 131 630
4 634 639 128 629
4 639 638 129 128
4 641 124 127 642
4 646 651 124 641
4 651 650 125 124
4 653 120 123 654
4 658 663 120 653
4 663 662 121 120
4 665 116 119 666
4 670 675 116 665
4 675 674 117 116
4 677 112 115 678
4 682 687 112 677
4 687 686 113 112
4 689 108 111 690
4 694 699 108 689
4 699 698 109 108
4 701 104 107 702
4 706 711 104 701
4 711 710 105 104
4 713 100 103 714
4 718 723 100 713
4 723 722 101 100
4 725 96 99 726
4 730 735 96 725
4 735 734 97 96
4 737 92 95 738
4 742 747 92 737
4 747 746 93 92
4 749 88 91 750
4 754 759 88 749
4 759 758 89 88
4 761 84 87 762
4 766 771 84 761
4 771 770 85 84
4 773 80 83 774
4 778 783 80 773
4 783 782 81 80
4 785 76 79 786
4 790 795 76 785
4 795 794 77 76
4 797 72 75 798
4 802 807 72 797
4 807 806 73 72
4 809 68 71 810
4 814 819 68 809
4 819 818 69 68
4 821 64 67 822
4 826 831 64 821
4 831 830 65 64
4 833 60 63 834
4 838 843 60 833
4 843 842 61 60
4 845 56 59 846
4 850 855 56 845
4 855 854 57 56
4 857 52 55 858
4 862 867 52 857
4 867 866 53 52
4 869 48 51 870
4 874 879 48 869
4 879 878 49 48
4 881 44 47 882
4 886 891 44 881
4 891 890 45 44
4 893 40 43 894
4 898 903 40 893
4 903 902 41 40
4 905 36 39 906
4 910 915 36 905
4 915 914 37 36
4 917 32 35 918
4 922 927 32 917
4 927 926 33 32
4 929 28 31 930
4 934 939 28 929
4 939 938 29 28
4 941 24 27 942
4 946 951 24 941
4 951 950 25 24
4 953 20 23 954
4 958 963 20 953
4 963 962 21 20
4 965 16 19 966
4 970 975 16 965
4 975 974 17 16
4 977 12 15 978
4 982 987 12 977
4 987 986 13 12
4 989 8 11 990
4 994 999 8 989
4 999 998 9 8
4 1001 4 7 1002
4 1006 1011 4 1001
4 1011 1010 5 4
4 1013 0 3 1014
4 1018 1023 0 1013
4 1023 1022 1 0
