ply
format ascii 1.0
comment Created in Blender version 4.2.1 LTS
element vertex 25
property float x
property float y
property float z
property float s
property float t
element face 32
property list uchar uint vertex_indices
end_header
0.75 0.75 0 0.75 0.75
1 0.75 0 1 0.75
0.75 1 0 0.75 1
0.25 0.75 0 0.25 0.75
0.5 0.75 0 0.5 0.75
0.25 1 0 0.25 1
0.25 0.25 0 0.25 0.25
0.5 0.25 0 0.5 0.25
0.25 0.5 0 0.25 0.5
0.75 0.25 0 0.75 0.25
1 0.25 0 1 0.25
0.75 0.5 0 0.75 0.5
0.5 0.5 0 0.5 0.5
0.5 0 0 0.5 0
0.75 0 0 0.75 0
1 0 0 1 0
0 0.25 0 0 0.25
0 0.5 0 0 0.5
0 0 0 0 0
0.25 0 0 0.25 0
0 0.75 0 0 0.75
0 1 0 0 1
0.5 1 0 0.5 1
1 0.5 0 1 0.5
1 1 0 1 1
3 0 1 2
3 3 4 5
3 6 7 8
3 9 10 11
3 7 9 12
3 13 14 7
3 14 15 9
3 16 6 17
3 18 19 16
3 19 13 6
3 20 3 21
3 17 8 20
3 8 12 3
3 4 0 22
3 12 11 4
3 11 23 0
3 16 19 6
3 6 13 7
3 17 6 8
3 8 7 12
3 7 14 9
3 20 8 3
3 3 12 4
3 21 3 5
3 9 15 10
3 12 9 11
3 4 11 0
3 11 10 23
3 5 4 22
3 0 23 1
3 22 0 2
3 2 1 24
