ply
format ascii 1.0
comment Created in Blender version 4.2.1 LTS
element vertex 546
property float x
property float y
property float z
property float s
property float t
element face 1024
property list uchar uint vertex_indices
end_header
0.9375 0.9375 0 0.9375 0.9375
1 0.9375 0 1 0.9375
0.9687539 0.9687539 0 0.9687539 0.9687539
0.4375 0.9375 0 0.4375 0.9375
0.5 0.9375 0 0.5 0.9375
0.46875387 0.9687539 0 0.46875387 0.9687539
0.4375 0.4375 0 0.4375 0.4375
0.5 0.4375 0 0.5 0.4375
0.4687535 0.4687535 0 0.4687535 0.4687535
0.9375 0.4375 0 0.9375 0.4375
1 0.4375 0 1 0.4375
0.9687555 0.46875548 0 0.9687555 0.46875548
0.6875 0.4375 0 0.6875 0.4375
0.75 0.4375 0 0.75 0.4375
0.7187555 0.46875548 0 0.7187555 0.46875548
0.6875 0.1875 0 0.6875 0.1875
0.75 0.1875 0 0.75 0.1875
0.71875554 0.21875554 0 0.71875554 0.21875554
0.9375 0.1875 0 0.9375 0.1875
1 0.1875 0 1 0.1875
0.9687547 0.21875471 0 0.9687547 0.21875471
0.1875 0.4375 0 0.1875 0.4375
0.25 0.4375 0 0.25 0.4375
0.2187565 0.4687565 0 0.2187565 0.4687565
0.1875 0.1875 0 0.1875 0.1875
0.25 0.1875 0 0.25 0.1875
0.21875393 0.21875393 0 0.21875393 0.21875393
0.4375 0.1875 0 0.4375 0.1875
0.5 0.1875 0 0.5 0.1875
0.46875292 0.21875292 0 0.46875292 0.21875292
0.1875 0.9375 0 0.1875 0.9375
0.25 0.9375 0 0.25 0.9375
0.21875423 0.96875423 0 0.21875423 0.96875423
0.1875 0.6875 0 0.1875 0.6875
0.25 0.6875 0 0.25 0.6875
0.21875644 0.71875644 0 0.21875644 0.71875644
0.4375 0.6875 0 0.4375 0.6875
0.5 0.6875 0 0.5 0.6875
0.46875304 0.71875304 0 0.46875304 0.71875304
0.6875 0.9375 0 0.6875 0.9375
0.75 0.9375 0 0.75 0.9375
0.7187547 0.9687547 0 0.7187547 0.9687547
0.6875 0.6875 0 0.6875 0.6875
0.75 0.6875 0 0.75 0.6875
0.7187554 0.7187554 0 0.7187554 0.7187554
0.9375 0.6875 0 0.9375 0.6875
1 0.6875 0 1 0.6875
0.9687571 0.7187571 0 0.9687571 0.7187571
0.8125 0.6875 0 0.8125 0.6875
0.875 0.6875 0 0.875 0.6875
0.8437545 0.7187545 0 0.8437545 0.7187545
0.8125 0.5625 0 0.8125 0.5625
0.875 0.5625 0 0.875 0.5625
0.84375346 0.59375346 0 0.84375346 0.59375346
0.9375 0.5625 0 0.9375 0.5625
1 0.5625 0 1 0.5625
0.96875393 0.59375393 0 0.96875393 0.59375393
0.5625 0.6875 0 0.5625 0.6875
0.625 0.6875 0 0.625 0.6875
0.59375423 0.71875423 0 0.59375423 0.71875423
0.5625 0.5625 0 0.5625 0.5625
0.625 0.5625 0 0.625 0.5625
0.59375286 0.59375286 0 0.59375286 0.59375286
0.6875 0.5625 0 0.6875 0.5625
0.75 0.5625 0 0.75 0.5625
0.7187515 0.5937515 0 0.7187515 0.5937515
0.5625 0.9375 0 0.5625 0.9375
0.625 0.9375 0 0.625 0.9375
0.5937557 0.9687557 0 0.5937557 0.9687557
0.5625 0.8125 0 0.5625 0.8125
0.625 0.8125 0 0.625 0.8125
0.5937522 0.8437522 0 0.5937522 0.8437522
0.6875 0.8125 0 0.6875 0.8125
0.75 0.8125 0 0.75 0.8125
0.7187581 0.8437581 0 0.7187581 0.8437581
0.3125 0.6875 0 0.3125 0.6875
0.375 0.6875 0 0.375 0.6875
0.34375268 0.7187527 0 0.34375268 0.7187527
0.3125 0.5625 0 0.3125 0.5625
0.375 0.5625 0 0.375 0.5625
0.3437543 0.5937543 0 0.3437543 0.5937543
0.4375 0.5625 0 0.4375 0.5625
0.5 0.5625 0 0.5 0.5625
0.4687522 0.5937522 0 0.4687522 0.59375226
0.0625 0.6875 0 0.0625 0.6875
0.125 0.6875 0 0.125 0.6875
0.09375155 0.71875155 0 0.09375154 0.71875155
0.0625 0.5625 0 0.0625 0.5625
0.125 0.5625 0 0.125 0.5625
0.0937531 0.5937531 0 0.0937531 0.5937531
0.1875 0.5625 0 0.1875 0.5625
0.25 0.5625 0 0.25 0.5625
0.21875566 0.59375566 0 0.21875566 0.59375566
0.0625 0.9375 0 0.0625 0.9375
0.125 0.9375 0 0.125 0.9375
0.093752444 0.96875244 0 0.093752444 0.96875244
0.0625 0.8125 0 0.0625 0.8125
0.125 0.8125 0 0.125 0.8125
0.09375632 0.8437563 0 0.09375632 0.8437563
0.1875 0.8125 0 0.1875 0.8125
0.25 0.8125 0 0.25 0.8125
0.21875393 0.84375393 0 0.21875393 0.84375393
0.3125 0.1875 0 0.3125 0.1875
0.375 0.1875 0 0.375 0.1875
0.34375376 0.21875376 0 0.34375376 0.21875376
0.3125 0.0625 0 0.3125 0.0625
0.375 0.0625 0 0.375 0.0625
0.3437545 0.0937545 0 0.3437545 0.0937545
0.4375 0.0625 0 0.4375 0.0625
0.5 0.0625 0 0.5 0.0625
0.46875408 0.09375408 0 0.46875405 0.09375408
0.0625 0.1875 0 0.0625 0.1875
0.125 0.1875 0 0.125 0.1875
0.093758285 0.21875829 0 0.093758285 0.21875829
0.0625 0.0625 0 0.0625 0.0625
0.125 0.0625 0 0.125 0.0625
0.09375435 0.09375435 0 0.09375435 0.09375435
0.1875 0.0625 0 0.1875 0.0625
0.25 0.0625 0 0.25 0.0625
0.21875918 0.09375918 0 0.21875918 0.09375918
0.0625 0.4375 0 0.0625 0.4375
0.125 0.4375 0 0.125 0.4375
0.093756795 0.4687568 0 0.093756795 0.4687568
0.0625 0.3125 0 0.0625 0.3125
0.125 0.3125 0 0.125 0.3125
0.093753934 0.34375393 0 0.093753934 0.34375393
0.1875 0.3125 0 0.1875 0.3125
0.25 0.3125 0 0.25 0.3125
0.21875459 0.3437546 0 0.21875459 0.3437546
0.8125 0.1875 0 0.8125 0.1875
0.875 0.1875 0 0.875 0.1875
0.84375453 0.21875453 0 0.84375453 0.21875453
0.8125 0.0625 0 0.8125 0.0625
0.875 0.0625 0 0.875 0.0625
0.8437552 0.093755186 0 0.8437552 0.093755186
0.9375 0.0625 0 0.9375 0.0625
1 0.0625 0 1 0.0625
0.9687553 0.093755305 0 0.9687553 0.093755305
0.5625 0.1875 0 0.5625 0.1875
0.625 0.1875 0 0.625 0.1875
0.593752 0.21875203 0 0.593752 0.21875203
0.5625 0.0625 0 0.5625 0.0625
0.625 0.0625 0 0.625 0.0625
0.593755 0.09375501 0 0.593755 0.09375501
0.6875 0.0625 0 0.6875 0.0625
0.75 0.0625 0 0.75 0.0625
0.7187541 0.09375411 0 0.7187541 0.09375411
0.5625 0.4375 0 0.5625 0.4375
0.625 0.4375 0 0.625 0.4375
0.59375626 0.46875626 0 0.59375626 0.46875626
0.5625 0.3125 0 0.5625 0.3125
0.625 0.3125 0 0.625 0.3125
0.5937564 0.34375638 0 0.5937564 0.34375638
0.6875 0.3125 0 0.6875 0.3125
0.75 0.3125 0 0.75 0.3125
0.7187568 0.3437568 0 0.7187568 0.3437568
0.8125 0.4375 0 0.8125 0.4375
0.875 0.4375 0 0.875 0.4375
0.8437558 0.46875578 0 0.84375584 0.46875578
0.8125 0.3125 0 0.8125 0.3125
0.875 0.3125 0 0.875 0.3125
0.84375435 0.34375435 0 0.8437543 0.34375435
0.9375 0.3125 0 0.9375 0.3125
1 0.3125 0 1 0.3125
0.9687557 0.34375572 0 0.9687557 0.34375572
0.3125 0.4375 0 0.3125 0.4375
0.375 0.4375 0 0.375 0.4375
0.34375542 0.46875542 0 0.34375542 0.46875542
0.3125 0.3125 0 0.3125 0.3125
0.375 0.3125 0 0.375 0.3125
0.3437549 0.3437549 0 0.3437549 0.3437549
0.4375 0.3125 0 0.4375 0.3125
0.5 0.3125 0 0.5 0.3125
0.46875608 0.34375608 0 0.46875608 0.34375608
0.3125 0.9375 0 0.3125 0.9375
0.375 0.9375 0 0.375 0.9375
0.34375435 0.96875435 0 0.34375435 0.96875435
0.3125 0.8125 0 0.3125 0.8125
0.375 0.8125 0 0.375 0.8125
0.3437543 0.8437543 0 0.3437543 0.8437543
0.4375 0.8125 0 0.4375 0.8125
0.5 0.8125 0 0.5 0.8125
0.4687552 0.8437552 0 0.4687552 0.8437552
0.8125 0.9375 0 0.8125 0.9375
0.875 0.9375 0 0.875 0.9375
0.84375304 0.96875304 0 0.84375304 0.96875304
0.8125 0.8125 0 0.8125 0.8125
0.875 0.8125 0 0.875 0.8125
0.8437573 0.8437573 0 0.8437573 0.8437573
0.9375 0.8125 0 0.9375 0.8125
1 0.8125 0 1 0.8125
0.96875525 0.84375525 0 0.96875525 0.84375525
0.90625286 0.84375286 0 0.90625286 0.84375286
0.875 0.75 0 0.875 0.75
0.9375 0.75 0 0.9375 0.75
0.906254 0.781254 0 0.906254 0.781254
1 0.75 0 1 0.75
0.96875244 0.78125244 0 0.96875244 0.78125244
0.78125334 0.84375334 0 0.78125334 0.84375334
0.75 0.75 0 0.75 0.75
0.8125 0.75 0 0.8125 0.75
0.7812509 0.7812509 0 0.7812509 0.7812509
0.84375626 0.78125626 0 0.84375626 0.78125626
0.7812548 0.9687548 0 0.7812548 0.9687548
0.75 0.875 0 0.75 0.875
0.8125 0.875 0 0.8125 0.875
0.78125644 0.90625644 0 0.78125644 0.90625644
0.875 0.875 0 0.875 0.875
0.84375435 0.90625435 0 0.84375435 0.90625435
0.40625334 0.84375334 0 0.40625334 0.84375334
0.375 0.75 0 0.375 0.75
0.4375 0.75 0 0.4375 0.75
0.406255 0.781255 0 0.406255 0.781255
0.5 0.75 0 0.5 0.75
0.4687534 0.7812534 0 0.4687534 0.7812534
0.28125542 0.8437554 0 0.28125542 0.84375536
0.25 0.75 0 0.25 0.75
0.3125 0.75 0 0.3125 0.75
0.28125405 0.78125405 0 0.28125405 0.78125405
0.34375608 0.7812561 0 0.34375608 0.7812561
0.28125262 0.9687526 0 0.28125262 0.9687526
0.25 0.875 0 0.25 0.875
0.3125 0.875 0 0.3125 0.875
0.28125334 0.90625334 0 0.28125334 0.90625334
0.375 0.875 0 0.375 0.875
0.34375304 0.90625304 0 0.34375304 0.90625304
0.4062548 0.3437548 0 0.4062548 0.3437548
0.375 0.25 0 0.375 0.25
0.4375 0.25 0 0.4375 0.25
0.40625608 0.28125608 0 0.40625608 0.28125608
0.5 0.25 0 0.5 0.25
0.46875283 0.28125283 0 0.46875283 0.28125283
0.28125373 0.34375373 0 0.28125373 0.34375373
0.25 0.25 0 0.25 0.25
0.3125 0.25 0 0.3125 0.25
0.28125396 0.28125396 0 0.28125396 0.28125396
0.34375283 0.28125283 0 0.34375283 0.28125283
0.2812548 0.4687548 0 0.2812548 0.4687548
0.25 0.375 0 0.25 0.375
0.3125 0.375 0 0.3125 0.375
0.28125328 0.40625328 0 0.28125328 0.40625328
0.375 0.375 0 0.375 0.375
0.34375176 0.40625176 0 0.34375176 0.40625176
0.90625435 0.34375435 0 0.90625435 0.34375435
0.875 0.25 0 0.875 0.25
0.9375 0.25 0 0.9375 0.25
0.9062522 0.2812522 0 0.9062522 0.2812522
1 0.25 0 1 0.25
0.96875316 0.28125316 0 0.96875316 0.28125316
0.78125393 0.34375393 0 0.78125393 0.34375393
0.75 0.25 0 0.75 0.25
0.8125 0.25 0 0.8125 0.25
0.78125495 0.28125495 0 0.78125495 0.28125495
0.843751 0.281251 0 0.8437511 0.281251
0.7812549 0.4687549 0 0.7812549 0.4687549
0.75 0.375 0 0.75 0.375
0.8125 0.375 0 0.8125 0.375
0.78125226 0.40625226 0 0.78125226 0.40625226
0.875 0.375 0 0.875 0.375
0.8437528 0.4062528 0 0.8437528 0.4062528
0.6562572 0.3437572 0 0.6562573 0.3437572
0.625 0.25 0 0.625 0.25
0.6875 0.25 0 0.6875 0.25
0.65625346 0.28125346 0 0.65625346 0.28125346
0.7187545 0.28125447 0 0.7187545 0.28125447
0.531255 0.343755 0 0.531255 0.343755
0.5625 0.25 0 0.5625 0.25
0.53125554 0.28125554 0 0.53125554 0.28125554
0.5937529 0.28125292 0 0.5937529 0.28125292
0.53125376 0.46875376 0 0.53125376 0.46875376
0.5 0.375 0 0.5 0.375
0.5625 0.375 0 0.5625 0.375
0.5312522 0.4062522 0 0.5312522 0.4062522
0.625 0.375 0 0.625 0.375
0.5937526 0.40625262 0 0.5937526 0.40625262
0.656255 0.09375501 0 0.656255 0.09375501
0.625 0 0 0.625 0
0.6875 0 0 0.6875 0
0.6562561 0.03125608 0 0.6562561 0.03125608
0.75 0 0 0.75 0
0.71875304 0.03125304 0 0.71875304 0.03125304
0.5312514 0.09375137 0 0.5312514 0.09375137
0.5 0 0 0.5 0
0.5625 0 0 0.5625 0
0.5312538 0.031253815 0 0.5312538 0.03125382
0.5937526 0.031252623 0 0.5937526 0.031252623
0.5312505 0.21875048 0 0.5312505 0.21875048
0.5 0.125 0 0.5 0.125
0.5625 0.125 0 0.5625 0.125
0.5312539 0.15625387 0 0.5312539 0.15625387
0.625 0.125 0 0.625 0.125
0.5937529 0.15625292 0 0.5937529 0.15625292
0.906256 0.09375602 0 0.906256 0.09375602
0.875 0 0 0.875 0
0.9375 0 0 0.9375 0
0.9062517 0.03125173 0 0.9062517 0.03125173
1 0 0 1 0
0.96875215 0.031252146 0 0.96875215 0.031252146
0.7812533 0.09375328 0 0.7812533 0.09375328
0.8125 0 0 0.8125 0
0.781256 0.03125602 0 0.781256 0.03125602
0.8437522 0.031252205 0 0.8437522 0.031252205
0.7812535 0.21875352 0 0.7812535 0.21875352
0.75 0.125 0 0.75 0.125
0.8125 0.125 0 0.8125 0.125
0.78125423 0.15625423 0 0.78125423 0.15625423
0.875 0.125 0 0.875 0.125
0.84375346 0.15625346 0 0.84375346 0.15625346
0.15625498 0.34375498 0 0.15625498 0.34375498
0.125 0.25 0 0.125 0.25
0.1875 0.25 0 0.1875 0.25
0.15625176 0.28125176 0 0.15625176 0.28125176
0.21875396 0.28125396 0 0.21875396 0.28125396
0 0.3125 0 0 0.3125
0.031255722 0.34375572 0 0.031255722 0.34375572
0 0.25 0 0 0.25
0.0625 0.25 0 0.0625 0.25
0.03125763 0.28125763 0 0.031257614 0.28125763
0.09375903 0.28125903 0 0.09375903 0.28125903
0 0.4375 0 0 0.4375
0.031252623 0.46875262 0 0.031252623 0.46875262
0 0.375 0 0 0.375
0.0625 0.375 0 0.0625 0.375
0.031255484 0.40625548 0 0.03125548 0.40625548
0.125 0.375 0 0.125 0.375
0.09375566 0.40625566 0 0.09375566 0.40625566
0.1562587 0.0937587 0 0.1562587 0.0937587
0.125 0 0 0.125 0
0.1875 0 0 0.1875 0
0.156264 0.031264007 0 0.156264 0.031264007
0.25 0 0 0.25 0
0.21875638 0.031256378 0 0.21875638 0.031256378
0 0.0625 0 0 0.0625
0.031027734 0.093527734 0 0.03102775 0.09352775
0 0 0 0 0
0.0625 0 0 0.0625 0
0.031258255 0.031258255 0 0.031258255 0.031258255
0.12318486 0 0 0.12318486 0
0.093073785 0.030573785 0 0.093073785 0.030573785
0 0.1875 0 0 0.1875
0.031257868 0.21875787 0 0.031257868 0.21875787
0 0.125 0 0 0.125
0.0625 0.125 0 0.0625 0.125
0.031260878 0.15626088 0 0.031260878 0.15626088
0.125 0.125 0 0.125 0.125
0.09375572 0.15625572 0 0.09375572 0.15625572
0.40625307 0.09375307 0 0.40625307 0.09375307
0.375 0 0 0.375 0
0.4375 0 0 0.4375 0
0.4062537 0.031253695 0 0.4062537 0.03125371
0.4687518 0.03125179 0 0.4687518 0.031251803
0.2812624 0.0937624 0 0.2812624 0.09376238
0.3125 0 0 0.3125 0
0.2812596 0.031259596 0 0.2812596 0.031259596
0.34375542 0.031255424 0 0.34375542 0.031255424
0.28125277 0.21875277 0 0.28125277 0.21875277
0.25 0.125 0 0.25 0.125
0.3125 0.125 0 0.3125 0.125
0.28125554 0.15625554 0 0.28125554 0.15625553
0.375 0.125 0 0.375 0.125
0.34375533 0.15625533 0 0.34375533 0.15625533
0.15625513 0.8437551 0 0.15625513 0.8437551
0.125 0.75 0 0.125 0.75
0.1875 0.75 0 0.1875 0.75
0.15625387 0.7812539 0 0.15625387 0.7812539
0.21875298 0.781253 0 0.21875298 0.781253
0 0.8125 0 0 0.8125
0.031254947 0.84375495 0 0.031254947 0.84375495
0 0.75 0 0 0.75
0.0625 0.75 0 0.0625 0.75
0.03125316 0.78125316 0 0.03125316 0.78125316
0.09375501 0.781255 0 0.09375501 0.781255
0 0.9375 0 0 0.9375
0.031253815 0.9687538 0 0.031253815 0.9687538
0 0.875 0 0 0.875
0.0625 0.875 0 0.0625 0.875
0.031257093 0.9062571 0 0.031257093 0.9062571
0.125 0.875 0 0.125 0.875
0.09375501 0.906255 0 0.09375501 0.906255
0.15625328 0.5937533 0 0.15625328 0.5937533
0.125 0.5 0 0.125 0.5
0.1875 0.5 0 0.1875 0.5
0.15625608 0.5312561 0 0.15625608 0.5312561
0.25 0.5 0 0.25 0.5
0.21875453 0.53125453 0 0.21875453 0.53125453
0 0.5625 0 0 0.5625
0.03125167 0.59375167 0 0.031251676 0.59375167
0 0.5 0 0 0.5
0.0625 0.5 0 0.0625 0.5
0.031252503 0.5312525 0 0.031252503 0.5312525
0.09375179 0.5312518 0 0.09375179 0.5312518
0 0.6875 0 0 0.6875
0.03125328 0.7187533 0 0.03125328 0.7187533
0 0.625 0 0 0.625
0.0625 0.625 0 0.0625 0.625
0.031254053 0.65625405 0 0.03125406 0.65625405
0.125 0.625 0 0.125 0.625
0.09375179 0.6562518 0 0.09375179 0.6562518
0.40625662 0.5937566 0 0.40625662 0.5937566
0.375 0.5 0 0.375 0.5
0.4375 0.5 0 0.4375 0.5
0.40625137 0.5312514 0 0.40625137 0.5312514
0.5 0.5 0 0.5 0.5
0.4687556 0.5312556 0 0.4687556 0.5312556
0.2812559 0.5937559 0 0.2812559 0.59375584
0.3125 0.5 0 0.3125 0.5
0.2812534 0.5312534 0 0.2812534 0.5312534
0.34375304 0.53125304 0 0.34375304 0.53125304
0.2812543 0.7187543 0 0.2812543 0.7187543
0.25 0.625 0 0.25 0.625
0.3125 0.625 0 0.3125 0.625
0.28125507 0.65625507 0 0.28125507 0.65625507
0.375 0.625 0 0.375 0.625
0.343755 0.656255 0 0.343755 0.656255
0.65625304 0.84375304 0 0.65625304 0.84375304
0.625 0.75 0 0.625 0.75
0.6875 0.75 0 0.6875 0.75
0.6562533 0.7812533 0 0.6562533 0.7812533
0.71875364 0.78125364 0 0.71875364 0.78125364
0.53125304 0.84375304 0 0.53125304 0.84375304
0.5625 0.75 0 0.5625 0.75
0.5312565 0.7812565 0 0.5312565 0.7812565
0.5937538 0.7812538 0 0.5937538 0.7812538
0.5312546 0.9687546 0 0.5312546 0.9687546
0.5 0.875 0 0.5 0.875
0.5625 0.875 0 0.5625 0.875
0.5312548 0.9062548 0 0.5312548 0.9062548
0.625 0.875 0 0.625 0.875
0.593755 0.906255 0 0.593755 0.906255
0.65625626 0.59375626 0 0.65625626 0.59375626
0.625 0.5 0 0.625 0.5
0.6875 0.5 0 0.6875 0.5
0.65625215 0.53125215 0 0.65625215 0.53125215
0.75 0.5 0 0.75 0.5
0.71875566 0.53125566 0 0.71875566 0.53125566
0.5312537 0.5937537 0 0.5312537 0.5937537
0.5625 0.5 0 0.5625 0.5
0.53125036 0.53125036 0 0.53125036 0.53125036
0.5937565 0.5312565 0 0.5937565 0.5312565
0.5312561 0.7187561 0 0.5312561 0.7187561
0.5 0.625 0 0.5 0.625
0.5625 0.625 0 0.5625 0.625
0.53125286 0.65625286 0 0.53125286 0.65625286
0.625 0.625 0 0.625 0.625
0.59375304 0.65625304 0 0.59375304 0.65625304
0.9062511 0.5937511 0 0.9062511 0.5937511
0.875 0.5 0 0.875 0.5
0.9375 0.5 0 0.9375 0.5
0.90625477 0.53125477 0 0.90625477 0.53125477
1 0.5 0 1 0.5
0.96875334 0.53125334 0 0.96875334 0.53125334
0.7812546 0.5937546 0 0.7812546 0.5937546
0.8125 0.5 0 0.8125 0.5
0.7812515 0.5312515 0 0.7812515 0.5312515
0.8437587 0.5312587 0 0.8437587 0.5312587
0.7812526 0.7187526 0 0.7812526 0.7187526
0.75 0.625 0 0.75 0.625
0.8125 0.625 0 0.8125 0.625
0.78125596 0.65625596 0 0.78125596 0.65625596
0.875 0.625 0 0.875 0.625
0.84375495 0.65625495 0 0.84375495 0.65625495
0.9062551 0.7187551 0 0.9062551 0.7187551
0.9375 0.625 0 0.9375 0.625
0.9062535 0.6562535 0 0.9062535 0.6562535
1 0.625 0 1 0.625
0.968754 0.656254 0 0.968754 0.656254
0.65625334 0.71875334 0 0.65625334 0.71875334
0.6875 0.625 0 0.6875 0.625
0.65625507 0.65625507 0 0.65625507 0.65625507
0.718753 0.656253 0 0.718753 0.656253
0.65624934 0.96874934 0 0.65624934 0.96874934
0.6875 0.875 0 0.6875 0.875
0.6562513 0.9062513 0 0.6562513 0.9062513
0.71875674 0.90625674 0 0.71875674 0.90625674
0.40625066 0.71875066 0 0.40625066 0.71875066
0.4375 0.625 0 0.4375 0.625
0.40625268 0.6562527 0 0.40625268 0.65625274
0.4687553 0.6562553 0 0.4687553 0.6562553
0.15625346 0.71875346 0 0.15625346 0.71875346
0.1875 0.625 0 0.1875 0.625
0.15625405 0.65625405 0 0.15625405 0.65625405
0.2187537 0.6562537 0 0.2187537 0.6562537
0.15625471 0.9687547 0 0.15625471 0.9687547
0.1875 0.875 0 0.1875 0.875
0.15625352 0.9062535 0 0.15625352 0.9062535
0.21875149 0.9062515 0 0.21875149 0.9062515
0.4062513 0.21875131 0 0.4062513 0.21875131
0.4375 0.125 0 0.4375 0.125
0.40625304 0.15625304 0 0.40625304 0.15625304
0.46875376 0.15625376 0 0.46875376 0.15625376
0.15625906 0.21875906 0 0.15625906 0.21875906
0.1875 0.125 0 0.1875 0.125
0.15625846 0.15625846 0 0.15625846 0.15625846
0.21875769 0.15625769 0 0.21875769 0.15625769
0.1562559 0.4687559 0 0.1562559 0.4687559
0.1875 0.375 0 0.1875 0.375
0.15625203 0.40625203 0 0.15625203 0.40625203
0.21875331 0.4062533 0 0.21875331 0.4062533
0.9062558 0.21875578 0 0.9062558 0.21875578
0.9375 0.125 0 0.9375 0.125
0.90625274 0.15625274 0 0.90625274 0.15625274
1 0.125 0 1 0.125
0.96875346 0.15625346 0 0.96875346 0.15625346
0.6562545 0.21875447 0 0.6562545 0.21875447
0.6875 0.125 0 0.6875 0.125
0.6562546 0.15625459 0 0.65625453 0.15625459
0.7187521 0.15625209 0 0.7187521 0.15625209
0.6562565 0.4687565 0 0.65625656 0.4687565
0.6875 0.375 0 0.6875 0.375
0.6562527 0.40625268 0 0.6562526 0.40625268
0.7187522 0.4062522 0 0.7187522 0.4062522
0.9062555 0.46875548 0 0.9062555 0.46875548
0.9375 0.375 0 0.9375 0.375
0.9062517 0.40625173 0 0.9062517 0.40625173
1 0.375 0 1 0.375
0.968752 0.40625203 0 0.968752 0.40625203
0.40625376 0.46875376 0 0.40625376 0.46875376
0.4375 0.375 0 0.4375 0.375
0.4062527 0.4062527 0 0.4062527 0.4062527
0.46875125 0.40625125 0 0.46875125 0.40625125
0.40625507 0.96875507 0 0.40625507 0.96875507
0.4375 0.875 0 0.4375 0.875
0.40625113 0.90625113 0 0.40625113 0.90625113
0.46875525 0.90625525 0 0.46875525 0.90625525
0.90625584 0.96875584 0 0.90625584 0.96875584
0.9375 0.875 0 0.9375 0.875
0.90625393 0.90625393 0 0.90625393 0.90625393
1 0.875 0 1 0.875
0.9687574 0.9062574 0 0.9687574 0.9062574
0.0625 1 0 0.0625 1
0 1 0 0 1
0.125 1 0 0.125 1
0.1875 1 0 0.1875 1
0.25 1 0 0.25 1
0.3125 1 0 0.3125 1
0.375 1 0 0.375 1
0.4375 1 0 0.4375 1
0.5 1 0 0.5 1
0.5625 1 0 0.5625 1
0.625 1 0 0.625 1
0.6875 1 0 0.6875 1
0.75 1 0 0.75 1
0.8125 1 0 0.8125 1
0.875 1 0 0.875 1
0.9375 1 0 0.9375 1
1 1 0 1 1
3 0 1 2
3 3 4 5
3 6 7 8
3 9 10 11
3 12 13 14
3 15 16 17
3 18 19 20
3 21 22 23
3 24 25 26
3 27 28 29
3 30 31 32
3 33 34 35
3 36 37 38
3 39 40 41
3 42 43 44
3 45 46 47
3 48 49 50
3 51 52 53
3 54 55 56
3 57 58 59
3 60 61 62
3 63 64 65
3 66 67 68
3 69 70 71
3 72 73 74
3 75 76 77
3 78 79 80
3 81 82 83
3 84 85 86
3 87 88 89
3 90 91 92
3 93 94 95
3 96 97 98
3 99 100 101
3 102 103 104
3 105 106 107
3 108 109 110
3 111 112 113
3 114 115 116
3 117 118 119
3 120 121 122
3 123 124 125
3 126 127 128
3 129 130 131
3 132 133 134
3 135 136 137
3 138 139 140
3 141 142 143
3 144 145 146
3 147 148 149
3 150 151 152
3 153 154 155
3 156 157 158
3 159 160 161
3 162 163 164
3 165 166 167
3 168 169 170
3 171 172 173
3 174 175 176
3 177 178 179
3 180 181 182
3 183 184 185
3 186 187 188
3 189 190 191
3 187 189 192
3 193 194 195
3 194 196 197
3 73 186 198
3 199 200 201
3 200 193 202
3 40 183 203
3 204 205 206
3 205 207 208
3 178 180 209
3 210 211 212
3 211 213 214
3 100 177 215
3 216 217 218
3 217 210 219
3 31 174 220
3 221 222 223
3 222 224 225
3 169 171 226
3 227 228 229
3 228 230 231
3 127 168 232
3 233 234 235
3 234 227 236
3 22 165 237
3 238 239 240
3 239 241 242
3 160 162 243
3 244 245 246
3 245 247 248
3 154 159 249
3 250 251 252
3 251 244 253
3 13 156 254
3 255 256 257
3 256 258 259
3 151 153 260
3 261 262 263
3 262 250 264
3 172 150 265
3 230 266 267
3 266 261 268
3 7 147 269
3 270 271 272
3 271 273 274
3 142 144 275
3 276 277 278
3 277 279 280
3 109 141 281
3 282 283 284
3 283 276 285
3 28 138 286
3 287 288 289
3 288 290 291
3 133 135 292
3 293 294 295
3 294 296 297
3 145 132 298
3 279 299 300
3 299 293 301
3 16 129 302
3 303 304 305
3 304 306 307
3 124 126 308
3 309 310 311
3 310 233 312
3 313 123 314
3 315 316 317
3 316 309 318
3 319 120 320
3 321 322 323
3 322 324 325
3 115 117 326
3 327 328 329
3 328 330 331
3 332 114 333
3 334 335 336
3 335 337 338
3 339 111 340
3 341 342 343
3 342 344 345
3 106 108 346
3 347 348 349
3 348 282 350
3 118 105 351
3 330 352 353
3 352 347 354
3 25 102 355
3 356 357 358
3 357 359 360
3 97 99 361
3 362 363 364
3 363 216 365
3 366 96 367
3 368 369 370
3 369 362 371
3 372 93 373
3 374 375 376
3 375 377 378
3 88 90 379
3 380 381 382
3 381 383 384
3 385 87 386
3 387 388 389
3 388 380 390
3 391 84 392
3 393 394 395
3 394 396 397
3 79 81 398
3 399 400 401
3 400 402 403
3 91 78 404
3 383 405 406
3 405 399 407
3 34 75 408
3 409 410 411
3 410 412 413
3 70 72 414
3 415 416 417
3 416 199 418
3 181 69 419
3 213 420 421
3 420 415 422
3 4 66 423
3 424 425 426
3 425 427 428
3 61 63 429
3 430 431 432
3 431 433 434
3 82 60 435
3 402 436 437
3 436 430 438
3 37 57 439
3 440 441 442
3 441 443 444
3 52 54 445
3 446 447 448
3 447 449 450
3 64 51 451
3 433 452 453
3 452 446 454
3 43 48 455
3 456 457 458
3 457 459 460
3 49 45 461
3 459 462 463
3 462 464 465
3 58 42 466
3 443 467 468
3 467 456 469
3 67 39 470
3 427 471 472
3 471 204 473
3 76 36 474
3 412 475 476
3 475 440 477
3 85 33 478
3 396 479 480
3 479 409 481
3 94 30 482
3 377 483 484
3 483 221 485
3 103 27 486
3 359 487 488
3 487 287 489
3 112 24 490
3 344 491 492
3 491 356 493
3 121 21 494
3 324 495 496
3 495 238 497
3 130 18 498
3 306 499 500
3 499 501 502
3 139 15 503
3 290 504 505
3 504 303 506
3 148 12 507
3 273 508 509
3 508 255 510
3 157 9 511
3 258 512 513
3 512 514 515
3 166 6 516
3 241 517 518
3 517 270 519
3 175 3 520
3 224 521 522
3 521 424 523
3 184 0 524
3 207 525 526
3 525 527 528
3 529 530 373
3 93 372 376
3 531 529 95
3 532 531 482
3 375 374 367
3 94 93 378
3 533 532 32
3 30 94 484
3 377 375 98
3 96 366 370
3 31 30 485
3 534 533 220
3 483 377 361
3 97 96 371
3 369 368 392
3 84 391 395
3 174 31 223
3 221 483 101
3 535 534 176
3 99 97 364
3 362 369 86
3 394 393 386
3 85 84 397
3 363 362 478
3 536 535 520
3 222 221 215
3 175 174 225
3 100 99 365
3 537 536 5
3 396 394 89
3 33 85 480
3 216 363 35
3 3 175 522
3 177 100 218
3 224 222 179
3 87 385 389
3 34 33 481
3 88 87 390
3 538 537 423
3 217 216 408
3 388 387 320
3 4 3 523
3 178 177 219
3 479 396 379
3 521 224 209
3 180 178 212
3 66 4 426
3 424 521 182
3 409 479 92
3 380 388 122
3 539 538 68
3 75 34 411
3 120 319 323
3 210 217 77
3 90 88 382
3 410 409 404
3 181 180 214
3 322 321 314
3 381 380 494
3 540 539 470
3 67 66 428
3 76 75 413
3 211 210 474
3 121 120 325
3 425 424 419
3 91 90 384
3 69 181 421
3 78 91 406
3 427 425 71
3 213 211 38
3 541 540 41
3 324 322 125
3 39 67 472
3 123 313 317
3 383 381 23
3 36 76 476
3 21 121 496
3 412 410 80
3 405 383 237
3 79 78 407
3 124 123 318
3 316 315 340
3 420 213 439
3 22 21 497
3 40 39 473
3 542 541 203
3 471 427 414
3 475 412 398
3 495 324 308
3 37 36 477
3 70 69 422
3 126 124 311
3 111 339 343
3 57 37 442
3 238 495 128
3 204 471 74
3 543 542 185
3 165 22 240
3 183 40 206
3 72 70 417
3 81 79 401
3 440 475 83
3 399 405 167
3 309 316 113
3 415 420 59
3 441 440 435
3 342 341 333
3 239 238 232
3 205 204 198
3 127 126 312
3 73 72 418
3 310 309 490
3 544 543 524
3 112 111 345
3 166 165 242
3 184 183 208
3 58 57 444
3 400 399 516
3 82 81 403
3 416 415 466
3 241 239 170
3 344 342 116
3 6 166 518
3 402 400 8
3 24 112 492
3 114 332 336
3 42 58 468
3 168 127 235
3 186 73 201
3 60 82 437
3 199 416 44
3 443 441 62
3 207 205 188
3 233 310 26
3 0 184 526
3 545 544 2
3 169 168 236
3 7 6 519
3 25 24 493
3 43 42 469
3 61 60 438
3 115 114 338
3 200 199 455
3 234 233 355
3 187 186 202
3 436 402 269
3 467 443 429
3 491 344 326
3 1 0 528
3 517 241 226
3 525 207 192
3 189 187 195
3 270 517 173
3 356 491 119
3 456 467 65
3 430 436 149
3 48 43 458
3 102 25 358
3 147 7 272
3 227 234 104
3 193 200 50
3 63 61 432
3 117 115 329
3 527 525 191
3 171 169 229
3 118 117 331
3 357 356 351
3 172 171 231
3 190 189 197
3 271 270 265
3 431 430 507
3 49 48 460
3 103 102 360
3 194 193 461
3 148 147 274
3 457 456 451
3 64 63 434
3 228 227 486
3 51 64 453
3 105 118 353
3 150 172 267
3 433 431 14
3 273 271 152
3 27 103 488
3 230 228 29
3 196 194 47
3 359 357 107
3 45 49 463
3 12 148 509
3 459 457 53
3 28 27 489
3 52 51 454
3 13 12 510
3 106 105 354
3 151 150 268
3 266 230 286
3 452 433 254
3 462 459 445
3 487 359 346
3 508 273 260
3 46 45 465
3 153 151 263
3 446 452 158
3 255 508 155
3 464 462 56
3 138 28 289
3 156 13 257
3 54 52 448
3 287 487 110
3 108 106 349
3 261 266 140
3 154 153 264
3 288 287 281
3 256 255 249
3 447 446 511
3 139 138 291
3 157 156 259
3 55 54 450
3 262 261 503
3 109 108 350
3 290 288 143
3 15 139 505
3 9 157 513
3 449 447 11
3 141 109 284
3 159 154 252
3 250 262 17
3 258 256 161
3 16 15 506
3 251 250 302
3 504 290 275
3 512 258 243
3 142 141 285
3 160 159 253
3 10 9 515
3 129 16 305
3 244 251 131
3 303 504 146
3 514 512 164
3 144 142 278
3 162 160 246
3 145 144 280
3 163 162 248
3 245 244 498
3 304 303 298
3 130 129 307
3 132 145 300
3 306 304 134
3 247 245 20
3 18 130 500
3 499 306 292
3 133 132 301
3 19 18 502
3 501 499 137
3 135 133 295
3 136 135 297
3 336 332 334
3 336 335 114
3 333 341 332
4 338 337 327 115
3 333 114 342
3 338 114 335
3 343 342 111
3 343 339 341
3 116 115 344
3 329 115 327
3 116 342 114
3 329 328 117
3 331 330 118
3 331 117 328
3 326 344 115
3 345 344 112
3 345 111 342
3 326 117 491
3 340 315 339
3 340 111 316
3 317 313 315
3 492 491 24
3 119 118 356
3 353 352 105
3 317 316 123
3 113 316 111
3 492 112 344
3 353 118 330
3 119 491 117
3 113 112 309
3 351 105 357
3 493 24 491
3 354 105 352
3 490 309 112
3 314 321 313
3 351 356 118
3 318 309 124
3 354 347 106
3 493 356 25
3 318 123 316
3 314 123 322
3 490 24 310
3 26 25 233
3 358 25 356
3 26 310 24
3 107 357 105
3 125 124 324
3 358 357 102
3 323 322 120
3 323 319 321
3 107 106 359
3 125 322 123
3 349 106 347
3 311 310 126
3 349 348 108
3 311 124 309
3 312 233 127
3 350 282 109
3 308 324 124
3 355 102 234
3 320 120 388
3 346 359 106
3 360 102 357
3 360 359 103
3 355 233 25
3 346 108 487
3 308 126 495
3 325 324 121
3 320 387 319
3 325 120 322
3 312 126 310
3 350 108 348
3 488 103 359
3 389 388 87
3 284 283 141
3 122 121 380
3 496 121 324
3 128 127 238
3 488 487 27
3 110 487 108
3 496 495 21
3 284 109 282
3 389 385 387
3 235 234 168
3 122 388 120
3 104 234 102
3 104 103 227
3 128 495 126
3 110 109 287
3 235 127 233
3 386 87 394
3 281 141 288
3 390 380 88
3 386 393 385
3 494 380 121
3 285 276 142
3 390 87 388
3 486 27 228
3 489 27 487
3 489 287 28
3 236 168 234
3 497 21 495
3 232 168 239
3 494 21 381
3 285 141 283
3 236 227 169
3 486 227 103
3 497 238 22
3 232 238 127
3 281 287 109
3 170 169 241
3 143 288 141
3 23 381 21
3 29 228 27
3 278 142 276
3 229 169 227
3 289 28 287
3 395 394 84
3 289 288 138
3 240 22 238
3 23 22 383
3 29 28 230
3 229 228 171
3 143 142 290
3 89 88 396
3 170 239 168
3 89 394 87
3 240 239 165
3 395 391 393
3 382 381 90
3 382 88 380
3 278 277 144
3 280 279 145
3 231 171 228
3 226 241 169
3 291 138 288
3 280 144 277
3 397 84 394
3 286 138 266
3 237 383 22
3 397 396 85
3 392 84 369
3 242 165 239
3 379 396 88
3 226 171 517
3 291 290 139
3 237 165 405
3 231 230 172
3 384 90 381
3 275 290 142
3 286 230 28
3 392 368 391
3 379 90 479
3 242 241 166
3 275 144 504
3 384 383 91
3 86 85 362
3 505 504 15
3 480 479 33
3 167 405 165
3 173 172 270
3 86 369 84
3 173 517 171
3 300 145 279
3 140 139 261
3 140 266 138
3 370 366 368
3 518 517 6
3 92 91 409
3 146 145 303
3 370 369 96
3 92 479 90
3 480 85 396
3 518 166 241
3 406 405 78
3 406 91 383
3 505 139 290
3 267 172 230
3 300 299 132
3 267 266 150
3 167 166 399
3 146 504 144
3 404 409 91
3 506 303 16
3 481 409 34
3 367 374 366
3 265 270 172
3 478 362 85
3 407 78 405
3 298 303 145
3 516 399 166
3 516 6 400
3 506 15 504
3 519 6 517
3 404 78 410
3 367 96 375
3 298 132 304
3 265 150 271
3 268 150 266
3 407 399 79
3 371 362 97
3 301 293 133
3 268 261 151
3 371 96 369
3 301 132 299
3 519 270 7
3 481 33 479
3 503 261 139
3 503 15 262
3 478 33 363
3 263 151 261
3 272 271 147
3 364 97 362
3 376 372 374
3 411 410 75
3 98 97 377
3 263 262 153
3 80 410 78
3 35 363 33
3 17 262 15
3 80 79 412
3 134 133 306
3 364 363 99
3 98 375 96
3 295 294 135
3 401 79 399
3 8 7 402
3 134 304 132
3 35 34 216
3 272 7 270
3 152 151 273
3 17 16 250
3 8 400 6
3 376 375 93
3 305 304 129
3 411 34 409
3 401 400 81
3 305 16 303
3 295 133 293
3 152 271 150
3 408 216 34
3 373 530 372
3 378 93 375
3 413 75 410
3 398 81 475
3 361 99 483
3 264 250 154
3 292 135 499
3 307 129 304
3 365 99 363
3 403 81 400
3 403 402 82
3 365 216 100
3 297 296 136
3 302 250 16
3 264 153 262
3 260 153 508
3 274 147 271
3 361 377 97
3 292 306 133
3 408 75 217
3 373 93 529
3 302 129 251
3 269 147 436
3 398 412 79
3 413 412 76
3 378 377 94
3 307 306 130
3 274 273 148
3 260 273 151
3 269 402 7
3 297 135 294
3 77 76 210
3 131 251 129
3 437 82 402
3 218 100 216
3 95 529 93
3 252 251 159
3 218 217 177
3 509 508 12
3 484 483 30
3 509 148 273
3 131 130 244
3 252 154 250
3 484 94 377
3 137 136 501
3 83 82 440
3 149 436 147
3 500 130 306
3 437 436 60
3 476 475 36
3 149 148 430
3 95 94 531
3 476 76 412
3 155 154 255
3 101 100 221
3 83 475 81
3 137 499 135
3 500 499 18
3 155 508 153
3 77 217 75
3 101 483 99
3 438 60 436
3 435 440 82
3 249 159 256
3 215 177 222
3 507 12 431
3 482 30 532
3 482 531 94
3 253 244 160
3 219 210 178
3 510 255 13
3 485 221 31
3 507 430 148
3 435 60 441
3 474 210 76
3 510 12 508
3 219 177 217
3 485 30 483
3 438 430 61
3 249 255 154
3 253 159 251
3 502 18 499
3 498 18 245
3 474 36 211
3 477 36 475
3 498 244 130
3 502 501 19
3 477 440 37
3 215 221 100
3 212 211 180
3 62 61 443
3 62 441 60
3 442 37 440
3 246 160 244
3 14 13 433
3 257 13 255
3 20 19 247
3 223 222 174
3 32 532 30
3 432 431 63
3 161 256 159
3 212 178 210
3 32 31 533
3 179 178 224
3 20 245 18
3 38 37 213
3 442 441 57
3 38 211 36
3 432 61 430
3 257 256 156
3 161 160 258
3 179 222 177
3 223 31 221
3 14 431 12
3 246 245 162
3 248 247 163
3 214 213 181
3 214 180 211
3 248 162 245
3 254 156 452
3 220 174 534
3 429 63 467
3 259 258 157
3 225 224 175
3 209 224 178
3 225 174 222
3 434 433 64
3 439 213 37
3 220 533 31
3 434 63 431
3 243 258 160
3 439 57 420
3 254 433 13
3 444 443 58
3 259 156 256
3 444 57 441
3 243 162 512
3 209 180 521
3 429 443 61
3 164 512 162
3 158 452 156
3 421 420 69
3 65 64 456
3 453 452 51
3 513 157 258
3 182 181 424
3 176 175 535
3 513 512 9
3 65 467 63
3 468 467 42
3 182 521 180
3 421 181 213
3 522 521 3
3 59 420 57
3 453 64 433
3 522 175 224
3 158 157 446
3 468 58 443
3 164 163 514
3 176 534 174
3 59 58 415
3 451 51 457
3 419 69 425
3 454 446 52
3 422 415 70
3 523 3 521
3 511 9 447
3 520 535 175
3 515 514 10
3 454 51 452
3 466 42 416
3 419 424 181
3 466 415 58
3 451 456 64
3 469 456 43
3 469 42 467
3 520 3 536
3 511 446 157
3 523 424 4
3 515 9 512
3 422 69 420
3 5 4 537
3 11 10 449
3 71 70 427
3 458 457 48
3 426 425 66
3 448 52 446
3 53 457 51
3 11 447 9
3 417 70 415
3 426 4 424
3 458 43 456
3 5 536 3
3 44 43 199
3 44 416 42
3 53 52 459
3 448 447 54
3 417 416 72
3 71 425 69
3 418 72 416
3 455 199 43
3 423 537 4
3 455 48 200
3 423 66 538
3 414 427 70
3 445 459 52
3 460 459 49
3 428 427 67
3 445 54 462
3 414 72 471
3 460 48 457
3 450 54 447
3 450 449 55
3 418 199 73
3 428 66 425
3 201 73 199
3 50 200 48
3 56 462 54
3 68 67 539
3 201 200 186
3 68 538 66
3 472 471 39
3 463 49 459
3 56 55 464
3 74 73 204
3 74 471 72
3 50 49 193
3 463 462 45
3 472 67 427
3 465 464 46
3 473 39 471
3 198 186 205
3 470 39 540
3 202 193 187
3 470 539 67
3 473 204 40
3 461 45 194
3 202 186 200
3 198 204 73
3 465 45 462
3 461 193 49
3 195 194 189
3 47 194 45
3 41 40 541
3 188 205 186
3 195 187 193
3 206 205 183
3 41 540 39
3 188 187 207
3 206 40 204
3 47 46 196
3 192 207 187
3 203 183 542
3 208 183 205
3 197 196 190
3 208 207 184
3 203 541 40
3 197 189 194
3 192 189 525
3 185 542 183
3 185 184 543
3 526 184 207
3 526 525 0
3 191 190 527
3 191 525 189
3 524 543 184
3 528 527 1
3 524 0 544
3 528 0 525
3 2 544 0
3 2 1 545
