ply
format ascii 1.0
comment Created in Blender version 4.2.1 LTS
element vertex 16
property float x
property float y
property float z
property float vertex_weights
element face 9
property list uchar uint vertex_indices
end_header
0.33333334 0.33333334 0 0.5
0.6666667 0.33333334 0 0.5
0.6666667 0.6666667 0 0.5
0.33333334 0.6666667 0 0.5
1 0.33333334 0 0.5
1 0.6666667 0 0.5
0 0.33333334 0 0.5
0 0.6666667 0 0.5
0.33333334 1 0 0.5
0 1 0 0.5
0.6666667 1 0 0.5
1 1 0 0.5
0 0 0.1 0.5
0.33333334 0 0.1 0.5
0.6666667 0 0.1 0.5
1 0 0.1 0.5
4 0 1 2 3
4 1 4 5 2
4 6 0 3 7
4 7 3 8 9
4 3 2 10 8
4 2 5 11 10
4 12 13 0 6
4 13 14 1 0
4 14 15 4 1
