ply
format ascii 1.0
comment Created in Blender version 4.4.3
element vertex 625
property float x
property float y
property float z
property float vertex_weights
element face 1152
property list uchar uint vertex_indices
end_header
0.33333334 0.33333334 0 0.5
0.6666667 0.33333334 0 0.5
0.6666667 0.6666667 0 0.5
0.33333334 0.6666667 0 0.5
1 0.33333334 0 0.5
1 0.6666667 0 0.5
0 0.33333334 0 0.5
0 0.6666667 0 0.5
0.33333334 1 0 0.5
0 1 0 0.5
0.6666667 1 0 0.5
1 1 0 0.5
0 0 0 0.5
0.33333334 0 0 0.5
0.6666667 0 0 0.5
1 0 0 0.5
0.33333334 0.5 0 0.5
0.5 0.33333334 0 0.5
0.6666667 0.5 0 0.5
0.5 0.6666667 0 0.5
0.8333334 0.33333334 0 0.5
1 0.5 0 0.5
0.8333334 0.6666667 0 0.5
0 0.5 0 0.5
0.16666667 0.33333334 0 0.5
0.16666667 0.6666667 0 0.5
0 0.8333334 0 0.5
0.33333334 0.8333334 0 0.5
0.16666667 1 0 0.5
0.6666667 0.8333334 0 0.5
0.5 1 0 0.5
1 0.8333334 0 0.5
0.8333334 1 0 0.5
0 0.16666667 0 0.5
0.16666667 0 0 0.5
0.33333334 0.16666667 0 0.5
0.5 0 0 0.5
0.6666667 0.16666667 0 0.5
0.8333334 0 0 0.5
1 0.16666667 0 0.5
0.8333334 0.16666667 0 0.5
0.5 0.16666667 0 0.5
0.16666667 0.16666667 0 0.5
0.8333334 0.8333334 0 0.5
0.5 0.8333334 0 0.5
0.16666667 0.8333334 0 0.5
0.16666667 0.5 0 0.5
0.8333334 0.5 0 0.5
0.5 0.5 0 0.5
0.33333334 0.5833334 0 0.5
0.5833334 0.33333334 0 0.5
0.6666667 0.5833334 0 0.5
0.4166667 0.6666667 0 0.5
0.9166667 0.33333334 0 0.5
1 0.5833334 0 0.5
0.9166667 0.6666667 0 0.5
0 0.5833334 0 0.5
0.083333336 0.33333334 0 0.5
0.083333336 0.6666667 0 0.5
0 0.9166667 0 0.5
0.33333334 0.9166667 0 0.5
0.083333336 1 0 0.5
0.6666667 0.9166667 0 0.5
0.5833334 1 0 0.5
1 0.9166667 0 0.5
0.9166667 1 0 0.5
0 0.083333336 0 0.5
0.25 0 0 0.5
0.33333334 0.083333336 0 0.5
0.5833334 0 0 0.5
0.6666667 0.083333336 0 0.5
0.9166667 0 0 0.5
1 0.083333336 0 0.5
0.33333334 0.4166667 0 0.5
0.4166667 0.33333334 0 0.5
0.6666667 0.4166667 0 0.5
0.5833334 0.6666667 0 0.5
0.75 0.33333334 0 0.5
1 0.4166667 0 0.5
0.75 0.6666667 0 0.5
0 0.4166667 0 0.5
0.25 0.33333334 0 0.5
0.25 0.6666667 0 0.5
0 0.75 0 0.5
0.33333334 0.75 0 0.5
0.25 1 0 0.5
0.6666667 0.75 0 0.5
0.4166667 1 0 0.5
1 0.75 0 0.5
0.75 1 0 0.5
0 0.25 0 0.5
0.083333336 0 0 0.5
0.33333334 0.25 0 0.5
0.4166667 0 0 0.5
0.6666667 0.25 0 0.5
0.75 0 0 0.5
1 0.25 0 0.5
0.8333334 0.25 0 0.5
0.8333334 0.083333336 0 0.5
0.75 0.16666667 0 0.5
0.9166667 0.16666667 0 0.5
0.5 0.25 0 0.5
0.5 0.083333336 0 0.5
0.4166667 0.16666667 0 0.5
0.5833334 0.16666667 0 0.5
0.16666667 0.25 0 0.5
0.16666667 0.083333336 0 0.5
0.083333336 0.16666667 0 0.5
0.25 0.16666667 0 0.5
0.8333334 0.9166667 0 0.5
0.8333334 0.75 0 0.5
0.75 0.8333334 0 0.5
0.9166667 0.8333334 0 0.5
0.5 0.9166667 0 0.5
0.5 0.75 0 0.5
0.4166667 0.8333334 0 0.5
0.5833334 0.8333334 0 0.5
0.16666667 0.9166667 0 0.5
0.16666667 0.75 0 0.5
0.083333336 0.8333334 0 0.5
0.25 0.8333334 0 0.5
0.16666667 0.5833334 0 0.5
0.16666667 0.4166667 0 0.5
0.083333336 0.5 0 0.5
0.25 0.5 0 0.5
0.8333334 0.5833334 0 0.5
0.8333334 0.4166667 0 0.5
0.75 0.5 0 0.5
0.9166667 0.5 0 0.5
0.5 0.5833334 0 0.5
0.5 0.4166667 0 0.5
0.4166667 0.5 0 0.5
0.5833334 0.5 0 0.5
0.5833334 0.4166667 0 0.5
0.4166667 0.4166667 0 0.5
0.4166667 0.5833334 0 0.5
0.9166667 0.4166667 0 0.5
0.75 0.4166667 0 0.5
0.75 0.5833334 0 0.5
0.25 0.4166667 0 0.5
0.083333336 0.4166667 0 0.5
0.083333336 0.5833334 0 0.5
0.25 0.75 0 0.5
0.083333336 0.75 0 0.5
0.083333336 0.9166667 0 0.5
0.5833334 0.75 0 0.5
0.4166667 0.75 0 0.5
0.4166667 0.9166667 0 0.5
0.9166667 0.75 0 0.5
0.75 0.75 0 0.5
0.75 0.9166667 0 0.5
0.25 0.083333336 0 0.5
0.083333336 0.083333336 0 0.5
0.083333336 0.25 0 0.5
0.5833334 0.083333336 0 0.5
0.4166667 0.083333336 0 0.5
0.4166667 0.25 0 0.5
0.9166667 0.083333336 0 0.5
0.75 0.083333336 0 0.5
0.75 0.25 0 0.5
0.9166667 0.25 0 0.5
0.5833334 0.25 0 0.5
0.25 0.25 0 0.5
0.9166667 0.9166667 0 0.5
0.5833334 0.9166667 0 0.5
0.25 0.9166667 0 0.5
0.25 0.5833334 0 0.5
0.9166667 0.5833334 0 0.5
0.5833334 0.5833334 0 0.5
0.33333334 0.625 0 0.5
0.625 0.33333334 0 0.5
0.6666667 0.625 0 0.5
0.375 0.6666667 0 0.5
0.9583334 0.33333334 0 0.5
1 0.625 0 0.5
0.9583334 0.6666667 0 0.5
0 0.625 0 0.5
0.041666668 0.33333334 0 0.5
0.041666668 0.6666667 0 0.5
0 0.9583334 0 0.5
0.33333334 0.9583334 0 0.5
0.041666668 1 0 0.5
0.6666667 0.9583334 0 0.5
0.625 1 0 0.5
1 0.9583334 0 0.5
0.9583334 1 0 0.5
0 0.041666668 0 0.5
0.2916667 0 0 0.5
0.33333334 0.041666668 0 0.5
0.625 0 0 0.5
0.6666667 0.041666668 0 0.5
0.9583334 0 0 0.5
1 0.041666668 0 0.5
0.33333334 0.45833334 0 0.5
0.45833334 0.33333334 0 0.5
0.6666667 0.45833334 0 0.5
0.5416667 0.6666667 0 0.5
0.7916667 0.33333334 0 0.5
1 0.45833334 0 0.5
0.7916667 0.6666667 0 0.5
0 0.45833334 0 0.5
0.20833334 0.33333334 0 0.5
0.20833334 0.6666667 0 0.5
0 0.7916667 0 0.5
0.33333334 0.7916667 0 0.5
0.20833334 1 0 0.5
0.6666667 0.7916667 0 0.5
0.45833334 1 0 0.5
1 0.7916667 0 0.5
0.7916667 1 0 0.5
0 0.20833334 0 0.5
0.125 0 0 0.5
0.33333334 0.20833334 0 0.5
0.45833334 0 0 0.5
0.6666667 0.20833334 0 0.5
0.7916667 0 0 0.5
1 0.20833334 0 0.5
0.8333334 0.2916667 0 0.5
0.8333334 0.125 0 0.5
0.7083334 0.16666667 0 0.5
0.875 0.16666667 0 0.5
0.5 0.2916667 0 0.5
0.5 0.125 0 0.5
0.375 0.16666667 0 0.5
0.5416667 0.16666667 0 0.5
0.16666667 0.2916667 0 0.5
0.16666667 0.125 0 0.5
0.041666668 0.16666667 0 0.5
0.20833334 0.16666667 0 0.5
0.8333334 0.9583334 0 0.5
0.8333334 0.7916667 0 0.5
0.7083334 0.8333334 0 0.5
0.875 0.8333334 0 0.5
0.5 0.9583334 0 0.5
0.5 0.7916667 0 0.5
0.375 0.8333334 0 0.5
0.5416667 0.8333334 0 0.5
0.16666667 0.9583334 0 0.5
0.16666667 0.7916667 0 0.5
0.041666668 0.8333334 0 0.5
0.20833334 0.8333334 0 0.5
0.16666667 0.625 0 0.5
0.16666667 0.45833334 0 0.5
0.041666668 0.5 0 0.5
0.20833334 0.5 0 0.5
0.8333334 0.625 0 0.5
0.8333334 0.45833334 0 0.5
0.7083334 0.5 0 0.5
0.875 0.5 0 0.5
0.5 0.625 0 0.5
0.5 0.45833334 0 0.5
0.375 0.5 0 0.5
0.5416667 0.5 0 0.5
0.33333334 0.5416667 0 0.5
0.5416667 0.33333334 0 0.5
0.6666667 0.5416667 0 0.5
0.45833334 0.6666667 0 0.5
0.875 0.33333334 0 0.5
1 0.5416667 0 0.5
0.875 0.6666667 0 0.5
0 0.5416667 0 0.5
0.125 0.33333334 0 0.5
0.125 0.6666667 0 0.5
0 0.875 0 0.5
0.33333334 0.875 0 0.5
0.125 1 0 0.5
0.6666667 0.875 0 0.5
0.5416667 1 0 0.5
1 0.875 0 0.5
0.875 1 0 0.5
0 0.125 0 0.5
0.20833334 0 0 0.5
0.33333334 0.125 0 0.5
0.5416667 0 0 0.5
0.6666667 0.125 0 0.5
0.875 0 0 0.5
1 0.125 0 0.5
0.33333334 0.375 0 0.5
0.375 0.33333334 0 0.5
0.6666667 0.375 0 0.5
0.625 0.6666667 0 0.5
0.7083334 0.33333334 0 0.5
1 0.375 0 0.5
0.7083334 0.6666667 0 0.5
0 0.375 0 0.5
0.2916667 0.33333334 0 0.5
0.2916667 0.6666667 0 0.5
0 0.7083334 0 0.5
0.33333334 0.7083334 0 0.5
0.2916667 1 0 0.5
0.6666667 0.7083334 0 0.5
0.375 1 0 0.5
1 0.7083334 0 0.5
0.7083334 1 0 0.5
0 0.2916667 0 0.5
0.041666668 0 0 0.5
0.33333334 0.2916667 0 0.5
0.375 0 0 0.5
0.6666667 0.2916667 0 0.5
0.7083334 0 0 0.5
1 0.2916667 0 0.5
0.8333334 0.20833334 0 0.5
0.8333334 0.041666668 0 0.5
0.7916667 0.16666667 0 0.5
0.9583334 0.16666667 0 0.5
0.5 0.20833334 0 0.5
0.5 0.041666668 0 0.5
0.45833334 0.16666667 0 0.5
0.625 0.16666667 0 0.5
0.16666667 0.20833334 0 0.5
0.16666667 0.041666668 0 0.5
0.125 0.16666667 0 0.5
0.2916667 0.16666667 0 0.5
0.8333334 0.875 0 0.5
0.8333334 0.7083334 0 0.5
0.7916667 0.8333334 0 0.5
0.9583334 0.8333334 0 0.5
0.5 0.875 0 0.5
0.5 0.7083334 0 0.5
0.45833334 0.8333334 0 0.5
0.625 0.8333334 0 0.5
0.16666667 0.875 0 0.5
0.16666667 0.7083334 0 0.5
0.125 0.8333334 0 0.5
0.2916667 0.8333334 0 0.5
0.16666667 0.5416667 0 0.5
0.16666667 0.375 0 0.5
0.125 0.5 0 0.5
0.2916667 0.5 0 0.5
0.8333334 0.5416667 0 0.5
0.8333334 0.375 0 0.5
0.7916667 0.5 0 0.5
0.9583334 0.5 0 0.5
0.5 0.5416667 0 0.5
0.5 0.375 0 0.5
0.45833334 0.5 0 0.5
0.625 0.5 0 0.5
0.5833334 0.45833334 0 0.5
0.5833334 0.375 0 0.5
0.5416667 0.4166667 0 0.5
0.625 0.4166667 0 0.5
0.4166667 0.45833334 0 0.5
0.4166667 0.375 0 0.5
0.375 0.4166667 0 0.5
0.45833334 0.4166667 0 0.5
0.4166667 0.625 0 0.5
0.4166667 0.5416667 0 0.5
0.375 0.5833334 0 0.5
0.45833334 0.5833334 0 0.5
0.9166667 0.45833334 0 0.5
0.9166667 0.375 0 0.5
0.875 0.4166667 0 0.5
0.9583334 0.4166667 0 0.5
0.75 0.45833334 0 0.5
0.75 0.375 0 0.5
0.7083334 0.4166667 0 0.5
0.7916667 0.4166667 0 0.5
0.75 0.625 0 0.5
0.75 0.5416667 0 0.5
0.7083334 0.5833334 0 0.5
0.7916667 0.5833334 0 0.5
0.25 0.45833334 0 0.5
0.25 0.375 0 0.5
0.20833334 0.4166667 0 0.5
0.2916667 0.4166667 0 0.5
0.083333336 0.45833334 0 0.5
0.083333336 0.375 0 0.5
0.041666668 0.4166667 0 0.5
0.125 0.4166667 0 0.5
0.083333336 0.625 0 0.5
0.083333336 0.5416667 0 0.5
0.041666668 0.5833334 0 0.5
0.125 0.5833334 0 0.5
0.25 0.7916667 0 0.5
0.25 0.7083334 0 0.5
0.20833334 0.75 0 0.5
0.2916667 0.75 0 0.5
0.083333336 0.7916667 0 0.5
0.083333336 0.7083334 0 0.5
0.041666668 0.75 0 0.5
0.125 0.75 0 0.5
0.083333336 0.9583334 0 0.5
0.083333336 0.875 0 0.5
0.041666668 0.9166667 0 0.5
0.125 0.9166667 0 0.5
0.5833334 0.7916667 0 0.5
0.5833334 0.7083334 0 0.5
0.5416667 0.75 0 0.5
0.625 0.75 0 0.5
0.4166667 0.7916667 0 0.5
0.4166667 0.7083334 0 0.5
0.375 0.75 0 0.5
0.45833334 0.75 0 0.5
0.4166667 0.9583334 0 0.5
0.4166667 0.875 0 0.5
0.375 0.9166667 0 0.5
0.45833334 0.9166667 0 0.5
0.9166667 0.7916667 0 0.5
0.9166667 0.7083334 0 0.5
0.875 0.75 0 0.5
0.9583334 0.75 0 0.5
0.75 0.7916667 0 0.5
0.75 0.7083334 0 0.5
0.7083334 0.75 0 0.5
0.7916667 0.75 0 0.5
0.75 0.9583334 0 0.5
0.75 0.875 0 0.5
0.7083334 0.9166667 0 0.5
0.7916667 0.9166667 0 0.5
0.25 0.125 0 0.5
0.25 0.041666668 0 0.5
0.20833334 0.083333336 0 0.5
0.2916667 0.083333336 0 0.5
0.083333336 0.125 0 0.5
0.083333336 0.041666668 0 0.5
0.041666668 0.083333336 0 0.5
0.125 0.083333336 0 0.5
0.083333336 0.2916667 0 0.5
0.083333336 0.20833334 0 0.5
0.041666668 0.25 0 0.5
0.125 0.25 0 0.5
0.5833334 0.125 0 0.5
0.5833334 0.041666668 0 0.5
0.5416667 0.083333336 0 0.5
0.625 0.083333336 0 0.5
0.4166667 0.125 0 0.5
0.4166667 0.041666668 0 0.5
0.375 0.083333336 0 0.5
0.45833334 0.083333336 0 0.5
0.4166667 0.2916667 0 0.5
0.4166667 0.20833334 0 0.5
0.375 0.25 0 0.5
0.45833334 0.25 0 0.5
0.9166667 0.125 0 0.5
0.9166667 0.041666668 0 0.5
0.875 0.083333336 0 0.5
0.9583334 0.083333336 0 0.5
0.75 0.125 0 0.5
0.75 0.041666668 0 0.5
0.7083334 0.083333336 0 0.5
0.7916667 0.083333336 0 0.5
0.75 0.2916667 0 0.5
0.75 0.20833334 0 0.5
0.7083334 0.25 0 0.5
0.7916667 0.25 0 0.5
0.9166667 0.2916667 0 0.5
0.9166667 0.20833334 0 0.5
0.875 0.25 0 0.5
0.9583334 0.25 0 0.5
0.5833334 0.2916667 0 0.5
0.5833334 0.20833334 0 0.5
0.5416667 0.25 0 0.5
0.625 0.25 0 0.5
0.25 0.2916667 0 0.5
0.25 0.20833334 0 0.5
0.20833334 0.25 0 0.5
0.2916667 0.25 0 0.5
0.9166667 0.9583334 0 0.5
0.9166667 0.875 0 0.5
0.875 0.9166667 0 0.5
0.9583334 0.9166667 0 0.5
0.5833334 0.9583334 0 0.5
0.5833334 0.875 0 0.5
0.5416667 0.9166667 0 0.5
0.625 0.9166667 0 0.5
0.25 0.9583334 0 0.5
0.25 0.875 0 0.5
0.20833334 0.9166667 0 0.5
0.2916667 0.9166667 0 0.5
0.25 0.625 0 0.5
0.25 0.5416667 0 0.5
0.20833334 0.5833334 0 0.5
0.2916667 0.5833334 0 0.5
0.9166667 0.625 0 0.5
0.9166667 0.5416667 0 0.5
0.875 0.5833334 0 0.5
0.9583334 0.5833334 0 0.5
0.5833334 0.625 0 0.5
0.5833334 0.5416667 0 0.5
0.5416667 0.5833334 0 0.5
0.625 0.5833334 0 0.5
0.625 0.5416667 0 0.5
0.5416667 0.5416667 0 0.5
0.5416667 0.625 0 0.5
0.9583334 0.5416667 0 0.5
0.875 0.5416667 0 0.5
0.875 0.625 0 0.5
0.2916667 0.5416667 0 0.5
0.20833334 0.5416667 0 0.5
0.20833334 0.625 0 0.5
0.2916667 0.875 0 0.5
0.20833334 0.875 0 0.5
0.20833334 0.9583334 0 0.5
0.625 0.875 0 0.5
0.5416667 0.875 0 0.5
0.5416667 0.9583334 0 0.5
0.9583334 0.875 0 0.5
0.875 0.875 0 0.5
0.875 0.9583334 0 0.5
0.2916667 0.20833334 0 0.5
0.20833334 0.20833334 0 0.5
0.20833334 0.2916667 0 0.5
0.625 0.20833334 0 0.5
0.5416667 0.20833334 0 0.5
0.5416667 0.2916667 0 0.5
0.9583334 0.20833334 0 0.5
0.875 0.20833334 0 0.5
0.875 0.2916667 0 0.5
0.7916667 0.20833334 0 0.5
0.7083334 0.20833334 0 0.5
0.7083334 0.2916667 0 0.5
0.7916667 0.041666668 0 0.5
0.7083334 0.041666668 0 0.5
0.7083334 0.125 0 0.5
0.9583334 0.041666668 0 0.5
0.875 0.041666668 0 0.5
0.875 0.125 0 0.5
0.45833334 0.20833334 0 0.5
0.375 0.20833334 0 0.5
0.375 0.2916667 0 0.5
0.45833334 0.041666668 0 0.5
0.375 0.041666668 0 0.5
0.375 0.125 0 0.5
0.625 0.041666668 0 0.5
0.5416667 0.041666668 0 0.5
0.5416667 0.125 0 0.5
0.125 0.20833334 0 0.5
0.041666668 0.20833334 0 0.5
0.041666668 0.2916667 0 0.5
0.125 0.041666668 0 0.5
0.041666668 0.041666668 0 0.5
0.041666668 0.125 0 0.5
0.2916667 0.041666668 0 0.5
0.20833334 0.041666668 0 0.5
0.20833334 0.125 0 0.5
0.7916667 0.875 0 0.5
0.7083334 0.875 0 0.5
0.7083334 0.9583334 0 0.5
0.7916667 0.7083334 0 0.5
0.7083334 0.7083334 0 0.5
0.7083334 0.7916667 0 0.5
0.9583334 0.7083334 0 0.5
0.875 0.7083334 0 0.5
0.875 0.7916667 0 0.5
0.45833334 0.875 0 0.5
0.375 0.875 0 0.5
0.375 0.9583334 0 0.5
0.45833334 0.7083334 0 0.5
0.375 0.7083334 0 0.5
0.375 0.7916667 0 0.5
0.625 0.7083334 0 0.5
0.5416667 0.7083334 0 0.5
0.5416667 0.7916667 0 0.5
0.125 0.875 0 0.5
0.041666668 0.875 0 0.5
0.041666668 0.9583334 0 0.5
0.125 0.7083334 0 0.5
0.041666668 0.7083334 0 0.5
0.041666668 0.7916667 0 0.5
0.2916667 0.7083334 0 0.5
0.20833334 0.7083334 0 0.5
0.20833334 0.7916667 0 0.5
0.125 0.5416667 0 0.5
0.041666668 0.5416667 0 0.5
0.041666668 0.625 0 0.5
0.125 0.375 0 0.5
0.041666668 0.375 0 0.5
0.041666668 0.45833334 0 0.5
0.2916667 0.375 0 0.5
0.20833334 0.375 0 0.5
0.20833334 0.45833334 0 0.5
0.7916667 0.5416667 0 0.5
0.7083334 0.5416667 0 0.5
0.7083334 0.625 0 0.5
0.7916667 0.375 0 0.5
0.7083334 0.375 0 0.5
0.7083334 0.45833334 0 0.5
0.9583334 0.375 0 0.5
0.875 0.375 0 0.5
0.875 0.45833334 0 0.5
0.45833334 0.5416667 0 0.5
0.375 0.5416667 0 0.5
0.375 0.625 0 0.5
0.45833334 0.375 0 0.5
0.375 0.375 0 0.5
0.375 0.45833334 0 0.5
0.625 0.375 0 0.5
0.5416667 0.375 0 0.5
0.5416667 0.45833334 0 0.5
0.625 0.45833334 0 0.5
0.45833334 0.45833334 0 0.5
0.45833334 0.625 0 0.5
0.9583334 0.45833334 0 0.5
0.7916667 0.45833334 0 0.5
0.7916667 0.625 0 0.5
0.2916667 0.45833334 0 0.5
0.125 0.45833334 0 0.5
0.125 0.625 0 0.5
0.2916667 0.7916667 0 0.5
0.125 0.7916667 0 0.5
0.125 0.9583334 0 0.5
0.625 0.7916667 0 0.5
0.45833334 0.7916667 0 0.5
0.45833334 0.9583334 0 0.5
0.9583334 0.7916667 0 0.5
0.7916667 0.7916667 0 0.5
0.7916667 0.9583334 0 0.5
0.2916667 0.125 0 0.5
0.125 0.125 0 0.5
0.125 0.2916667 0 0.5
0.625 0.125 0 0.5
0.45833334 0.125 0 0.5
0.45833334 0.2916667 0 0.5
0.9583334 0.125 0 0.5
0.7916667 0.125 0 0.5
0.7916667 0.2916667 0 0.5
0.9583334 0.2916667 0 0.5
0.625 0.2916667 0 0.5
0.2916667 0.2916667 0 0.5
0.9583334 0.9583334 0 0.5
0.625 0.9583334 0 0.5
0.2916667 0.9583334 0 0.5
0.2916667 0.625 0 0.5
0.9583334 0.625 0 0.5
0.625 0.625 0 0.5
3 624 171 2
3 623 174 5
3 622 169 3
3 621 180 8
3 620 182 10
3 619 184 11
3 618 296 0
3 617 298 1
3 616 300 4
3 615 217 20
3 614 218 40
3 613 276 39
3 612 221 17
3 611 222 41
3 610 274 37
3 609 225 24
3 608 226 42
3 607 272 35
3 606 229 32
3 605 230 43
3 604 208 31
3 603 233 30
3 602 234 44
3 601 206 29
3 600 237 28
3 599 238 45
3 598 204 27
3 597 241 25
3 596 242 46
3 595 193 16
3 594 245 22
3 593 246 47
3 592 198 21
3 591 249 19
3 590 250 48
3 589 195 18
3 588 337 132
3 587 338 133
3 586 279 75
3 585 341 131
3 584 342 134
3 583 334 130
3 582 345 52
3 581 346 135
3 580 333 129
3 579 349 128
3 578 350 136
3 577 282 78
3 576 353 127
3 575 354 137
3 574 330 126
3 573 357 79
3 572 358 138
3 571 329 125
3 570 361 124
3 569 362 139
3 568 277 73
3 567 365 123
3 566 366 140
3 565 326 122
3 564 369 58
3 563 370 141
3 562 325 121
3 561 373 120
3 560 374 142
3 559 288 84
3 558 377 119
3 557 378 143
3 556 322 118
3 555 381 61
3 554 382 144
3 553 321 117
3 552 385 116
3 551 386 145
3 550 290 86
3 549 389 115
3 548 390 146
3 547 318 114
3 546 393 87
3 545 394 147
3 544 317 113
3 543 397 112
3 542 398 148
3 541 292 88
3 540 401 111
3 539 402 149
3 538 314 110
3 537 405 89
3 536 406 150
3 535 313 109
3 534 409 108
3 533 410 151
3 532 188 68
3 531 413 107
3 530 414 152
3 529 310 106
3 528 417 57
3 527 418 153
3 526 309 105
3 525 421 104
3 524 422 154
3 523 190 70
3 522 425 103
3 521 426 155
3 520 306 102
3 519 429 74
3 518 430 156
3 517 305 101
3 516 433 100
3 515 434 157
3 514 192 72
3 513 437 99
3 512 438 158
3 511 302 98
3 510 441 77
3 509 442 159
3 508 301 97
3 507 445 53
3 506 446 160
3 505 216 96
3 504 449 50
3 503 450 161
3 502 214 94
3 501 453 81
3 500 454 162
3 499 212 92
3 498 457 65
3 497 458 163
3 496 268 64
3 495 461 63
3 494 462 164
3 493 266 62
3 492 465 85
3 491 466 165
3 490 264 60
3 489 469 82
3 488 470 166
3 487 253 49
3 486 473 55
3 485 474 167
3 484 258 54
3 483 477 76
3 482 478 168
3 481 255 51
3 478 481 168
3 132 336 481
3 336 18 481
3 333 482 129
3 48 252 482
3 252 132 482
3 249 483 19
3 129 479 483
3 479 168 483
3 474 484 167
3 128 332 484
3 332 21 484
3 329 485 125
3 47 248 485
3 248 128 485
3 245 486 22
3 125 486 245
3 475 167 486
3 470 487 166
3 124 328 487
3 328 16 487
3 325 488 121
3 46 244 488
3 244 124 488
3 241 489 25
3 121 489 241
3 471 166 489
3 466 490 165
3 120 324 490
3 324 27 490
3 321 491 117
3 45 240 491
3 240 120 491
3 237 492 28
3 117 492 237
3 467 165 492
3 462 493 164
3 116 320 493
3 320 29 493
3 317 494 113
3 44 236 494
3 236 116 494
3 233 495 30
3 113 495 233
3 463 164 495
3 458 496 163
3 112 316 496
3 316 31 496
3 313 497 109
3 43 232 497
3 232 112 497
3 229 498 32
3 109 498 229
3 459 163 498
3 454 499 162
3 108 312 499
3 312 35 499
3 309 500 105
3 42 228 500
3 228 108 500
3 225 501 24
3 105 501 225
3 455 162 501
3 450 502 161
3 104 308 502
3 308 37 502
3 305 503 101
3 41 224 503
3 224 104 503
3 221 504 17
3 101 504 221
3 451 161 504
3 446 505 160
3 100 304 505
3 304 39 505
3 301 506 97
3 40 220 506
3 220 100 506
3 217 507 20
3 97 447 507
3 447 160 507
3 442 508 159
3 99 303 508
3 303 40 508
3 214 509 94
3 37 219 509
3 219 99 509
3 298 510 1
3 94 510 298
3 443 159 510
3 438 511 158
3 95 215 511
3 215 38 511
3 190 512 70
3 14 299 512
3 299 95 512
3 274 513 37
3 70 439 513
3 439 158 513
3 434 514 157
3 71 191 514
3 191 15 514
3 302 515 98
3 38 275 515
3 275 71 515
3 218 516 40
3 98 435 516
3 435 157 516
3 430 517 156
3 103 307 517
3 307 41 517
3 212 518 92
3 35 223 518
3 223 103 518
3 296 519 0
3 92 519 296
3 431 156 519
3 426 520 155
3 93 213 520
3 213 36 520
3 188 521 68
3 13 297 521
3 297 93 521
3 272 522 35
3 68 427 522
3 427 155 522
3 422 523 154
3 69 189 523
3 189 14 523
3 306 524 102
3 36 273 524
3 273 69 524
3 222 525 41
3 102 423 525
3 423 154 525
3 418 526 153
3 107 311 526
3 311 42 526
3 210 527 90
3 33 227 527
3 227 107 527
3 294 528 6
3 90 528 294
3 419 153 528
3 414 529 152
3 91 211 529
3 211 34 529
3 186 530 66
3 12 295 530
3 295 91 530
3 270 531 33
3 66 531 270
3 415 152 531
3 410 532 151
3 67 187 532
3 187 13 532
3 310 533 106
3 34 271 533
3 271 67 533
3 226 534 42
3 106 411 534
3 411 151 534
3 406 535 150
3 111 315 535
3 315 43 535
3 266 536 62
3 29 231 536
3 231 111 536
3 182 537 10
3 62 537 182
3 407 150 537
3 402 538 149
3 79 199 538
3 199 22 538
3 290 539 86
3 2 283 539
3 283 79 539
3 206 540 29
3 86 540 206
3 403 149 540
3 398 541 148
3 55 175 541
3 175 5 541
3 314 542 110
3 22 259 542
3 259 55 542
3 230 543 43
3 110 543 230
3 399 148 543
3 394 544 147
3 115 319 544
3 319 44 544
3 264 545 60
3 27 235 545
3 235 115 545
3 180 546 8
3 60 546 180
3 395 147 546
3 390 547 146
3 52 256 547
3 256 19 547
3 288 548 84
3 3 172 548
3 172 52 548
3 204 549 27
3 84 391 549
3 391 146 549
3 386 550 145
3 76 280 550
3 280 2 550
3 318 551 114
3 19 196 551
3 196 76 551
3 234 552 44
3 114 552 234
3 387 145 552
3 382 553 144
3 119 323 553
3 323 45 553
3 263 554 59
3 26 239 554
3 239 119 554
3 179 555 9
3 59 555 179
3 383 144 555
3 378 556 143
3 58 262 556
3 262 25 556
3 287 557 83
3 7 178 557
3 178 58 557
3 203 558 26
3 83 558 203
3 379 143 558
3 374 559 142
3 82 286 559
3 286 3 559
3 322 560 118
3 25 202 560
3 202 82 560
3 238 561 45
3 118 561 238
3 375 142 561
3 370 562 141
3 123 327 562
3 327 46 562
3 260 563 56
3 23 243 563
3 243 123 563
3 176 564 7
3 56 564 176
3 371 141 564
3 366 565 140
3 57 261 565
3 261 24 565
3 284 566 80
3 6 566 284
3 177 57 566
3 200 567 23
3 80 567 200
3 367 140 567
3 362 568 139
3 81 285 568
3 285 0 568
3 326 569 122
3 24 569 326
3 201 81 569
3 242 570 46
3 122 570 242
3 363 139 570
3 358 571 138
3 127 331 571
3 331 47 571
3 255 572 51
3 18 247 572
3 247 127 572
3 171 573 2
3 51 573 171
3 359 138 573
3 354 574 137
3 77 197 574
3 197 20 574
3 279 575 75
3 1 575 279
3 281 77 575
3 195 576 18
3 75 355 576
3 355 137 576
3 350 577 136
3 53 173 577
3 173 4 577
3 330 578 126
3 20 578 330
3 257 53 578
3 246 579 47
3 126 579 246
3 351 136 579
3 346 580 135
3 131 335 580
3 335 48 580
3 253 581 49
3 16 251 581
3 251 131 581
3 169 582 3
3 49 582 169
3 347 135 582
3 342 583 134
3 74 194 583
3 194 17 583
3 277 584 73
3 0 278 584
3 278 74 584
3 193 585 16
3 73 585 193
3 343 134 585
3 338 586 133
3 50 170 586
3 170 1 586
3 334 587 130
3 17 254 587
3 254 50 587
3 250 588 48
3 130 588 250
3 339 133 588
3 337 589 132
3 133 589 337
3 340 75 589
3 341 590 131
3 134 590 341
3 344 130 590
3 345 591 52
3 135 591 345
3 348 129 591
3 349 592 128
3 136 592 349
3 352 78 592
3 353 593 127
3 137 356 593
3 356 126 593
3 357 594 79
3 138 594 357
3 360 125 594
3 361 595 124
3 139 595 361
3 364 73 595
3 365 596 123
3 140 596 365
3 368 122 596
3 369 597 58
3 141 597 369
3 372 121 597
3 373 598 120
3 142 598 373
3 376 84 598
3 377 599 119
3 143 380 599
3 380 118 599
3 381 600 61
3 144 600 381
3 384 117 600
3 385 601 116
3 145 601 385
3 388 86 601
3 389 602 115
3 146 602 389
3 392 114 602
3 393 603 87
3 147 603 393
3 396 113 603
3 397 604 112
3 148 604 397
3 400 88 604
3 401 605 111
3 149 605 401
3 404 110 605
3 405 606 89
3 150 606 405
3 408 109 606
3 409 607 108
3 151 607 409
3 412 68 607
3 413 608 107
3 152 416 608
3 416 106 608
3 417 609 57
3 153 609 417
3 420 105 609
3 421 610 104
3 154 610 421
3 424 70 610
3 425 611 103
3 155 428 611
3 428 102 611
3 429 612 74
3 156 432 612
3 432 101 612
3 433 613 100
3 157 613 433
3 436 72 613
3 437 614 99
3 158 614 437
3 440 98 614
3 441 615 77
3 159 615 441
3 444 97 615
3 445 616 53
3 160 616 445
3 448 96 616
3 449 617 50
3 161 452 617
3 452 94 617
3 453 618 81
3 162 618 453
3 456 92 618
3 457 619 65
3 163 619 457
3 460 64 619
3 461 620 63
3 164 620 461
3 464 62 620
3 465 621 85
3 165 468 621
3 468 60 621
3 469 622 82
3 166 472 622
3 472 49 622
3 473 623 55
3 167 476 623
3 476 54 623
3 477 624 76
3 168 480 624
3 480 51 624
3 142 559 376
3 144 553 384
3 516 157 433
3 510 159 441
3 559 3 288
3 553 45 321
3 45 561 240
3 9 555 181
3 133 586 340
3 135 580 348
3 555 144 381
3 586 1 279
3 580 48 333
3 157 514 436
3 159 508 444
3 514 15 192
3 508 40 301
3 48 588 252
3 3 582 172
3 561 142 373
3 588 133 337
3 582 135 345
3 40 516 220
3 1 510 281
3 555 59 383
3 61 181 555
3 554 263 26
3 144 383 554
3 28 265 600
3 600 144 384
3 590 130 250
3 560 82 374
3 554 119 382
3 82 622 286
3 622 49 169
3 50 617 170
3 119 599 323
3 130 587 339
3 49 581 347
3 617 94 298
3 599 118 238
3 587 50 338
3 581 131 346
3 98 515 435
3 94 509 443
3 515 71 434
3 509 99 442
3 99 614 303
3 131 590 335
3 614 98 218
3 118 560 375
3 59 554 383
3 84 548 391
3 52 591 256
3 548 52 390
3 97 506 447
3 77 615 197
3 120 598 324
3 506 100 446
3 482 132 478
3 598 84 204
3 129 482 479
3 75 575 355
3 61 600 265
3 575 77 354
3 600 117 237
3 117 491 467
3 100 613 304
3 615 97 217
3 132 589 336
3 491 120 466
3 613 72 276
3 589 75 195
3 591 129 249
3 119 239 558
3 117 384 553
3 85 205 492
3 553 382 119
3 492 117 467
3 558 83 379
3 168 481 480
3 505 39 216
3 481 18 255
3 27 549 235
3 137 574 356
3 549 146 389
3 19 483 196
3 574 20 330
3 507 160 445
3 483 168 477
3 165 490 468
3 547 19 318
3 490 27 264
3 576 137 353
3 20 507 257
3 28 492 205
3 146 547 392
3 492 165 465
3 18 576 247
3 160 505 448
3 166 487 472
3 511 38 302
3 16 585 251
3 487 16 253
3 585 134 341
3 37 513 219
3 143 556 380
3 25 489 202
3 513 158 437
3 134 583 344
3 556 25 322
3 489 166 469
3 161 502 452
3 502 37 214
3 26 558 239
3 558 143 377
3 17 504 254
3 583 17 334
3 504 161 449
3 158 511 440
3 45 323 599
3 557 287 7
3 8 289 621
3 143 379 557
3 621 465 165
3 165 467 491
3 599 377 143
3 491 321 45
3 490 466 120
3 120 240 561
3 561 118 375
3 546 60 395
3 564 56 371
3 118 380 556
3 556 378 58
3 87 291 546
3 58 178 564
3 60 468 490
3 563 260 23
3 560 322 25
3 597 141 372
3 545 264 27
3 603 147 396
3 27 324 598
3 25 262 597
3 142 375 560
3 598 142 376
3 30 207 603
3 147 395 545
3 141 371 563
3 113 396 544
3 121 372 562
3 82 202 489
3 567 80 367
3 559 374 82
3 63 267 495
3 549 204 84
3 115 235 549
3 123 243 567
3 84 376 559
3 495 113 463
3 562 370 123
3 489 121 471
3 544 394 115
3 566 6 177
3 548 288 3
3 166 471 488
3 46 327 596
3 622 469 166
3 488 325 46
3 164 463 494
3 146 391 548
3 140 367 566
3 44 319 602
3 10 183 620
3 620 164 464
3 602 146 392
3 596 140 368
3 494 317 44
3 3 286 622
3 493 462 116
3 487 470 124
3 116 236 552
3 124 244 570
3 537 62 407
3 62 464 493
3 114 392 547
3 122 368 565
3 57 177 528
3 52 172 582
3 49 472 487
3 582 49 347
3 570 122 363
3 552 114 387
3 528 90 419
3 89 293 537
3 565 366 57
3 547 390 52
3 609 153 420
3 536 266 29
3 591 135 348
3 32 209 606
3 139 363 569
3 150 407 536
3 29 320 601
3 153 419 527
3 581 253 16
3 135 347 581
3 569 24 201
3 551 318 19
3 606 150 408
3 527 210 33
3 16 328 595
3 601 145 388
3 595 139 364
3 19 256 591
3 24 261 609
3 145 387 551
3 584 74 342
3 58 597 262
3 70 512 439
3 597 121 241
3 104 610 308
3 512 95 438
3 488 124 470
3 610 70 274
3 121 488 471
3 83 557 379
3 74 612 194
3 557 58 378
3 612 101 221
3 101 503 451
3 124 595 328
3 503 104 450
3 595 73 193
3 73 584 343
3 523 14 190
3 517 41 305
3 46 570 244
3 7 564 178
3 570 139 361
3 564 141 369
3 0 519 278
3 156 517 432
3 139 568 364
3 141 562 372
3 525 154 421
3 519 156 429
3 41 525 224
3 568 0 277
3 154 523 424
3 562 46 325
3 102 524 423
3 563 123 370
3 618 92 296
3 524 69 422
3 518 103 430
3 56 563 371
3 122 569 363
3 596 122 242
3 103 611 307
3 123 596 327
3 569 81 362
3 611 102 222
3 92 518 431
3 81 618 285
3 520 36 306
3 24 501 201
3 499 35 212
3 23 567 243
3 155 520 428
3 567 140 365
3 140 565 368
3 522 155 425
3 35 522 223
3 501 162 453
3 565 24 326
3 162 499 456
3 57 609 261
3 566 57 366
3 68 521 427
3 609 105 225
3 521 93 426
3 105 500 455
3 500 108 454
3 607 68 272
3 80 566 367
3 108 607 312
3 526 42 309
3 534 151 409
3 528 153 417
3 151 532 412
3 153 526 420
3 42 534 228
3 6 528 177
3 532 13 188
3 106 533 411
3 90 527 419
3 107 608 311
3 533 67 410
3 527 107 418
3 608 106 226
3 529 34 310
3 152 529 416
3 531 152 413
3 33 531 227
3 530 91 414
3 66 530 415
3 578 53 350
3 572 127 358
3 621 60 180
3 53 616 173
3 616 96 300
3 127 593 331
3 76 624 280
3 114 551 387
3 60 545 395
3 593 126 246
3 624 51 171
3 551 76 386
3 545 115 394
3 115 602 319
3 126 578 351
3 51 572 359
3 602 114 234
3 85 621 289
3 47 579 248
3 2 573 283
3 44 552 236
3 8 546 291
3 579 136 349
3 573 138 357
3 552 145 385
3 546 147 393
3 136 577 352
3 145 550 388
3 147 544 396
3 138 571 360
3 577 4 282
3 571 47 329
3 550 2 290
3 544 44 317
3 87 603 207
3 79 594 199
3 539 79 402
3 594 125 245
3 125 485 475
3 116 601 320
3 128 592 332
3 603 113 233
3 113 494 463
3 485 128 474
3 494 116 462
3 601 86 206
3 592 78 198
3 86 539 403
3 167 484 476
3 493 29 266
3 484 21 258
3 29 540 231
3 540 149 401
3 30 495 267
3 22 486 259
3 149 538 404
3 495 164 461
3 486 167 473
3 538 22 314
3 164 493 464
3 109 408 535
3 65 269 498
3 585 73 343
3 86 388 550
3 73 364 568
3 107 227 531
3 531 66 415
3 501 105 455
3 580 346 131
3 568 362 81
3 483 249 129
3 526 418 107
3 105 420 526
3 129 348 580
3 131 251 585
3 111 231 540
3 540 86 403
3 550 386 76
3 76 196 483
3 81 201 501
3 535 406 111
3 498 109 459
3 48 335 590
3 42 311 608
3 163 459 497
3 530 186 12
3 2 280 624
3 43 315 605
3 500 309 42
3 482 333 48
3 11 185 619
3 152 415 530
3 134 343 584
3 605 149 404
3 0 285 618
3 624 477 168
3 618 162 456
3 539 290 2
3 608 413 152
3 497 313 43
3 619 163 460
3 149 403 539
3 168 479 482
3 162 455 500
3 590 134 344
3 584 277 0
3 499 454 108
3 108 228 534
3 132 252 588
3 64 460 496
3 573 51 359
3 543 110 399
3 519 92 431
3 106 416 529
3 130 344 583
3 538 402 79
3 496 458 112
3 112 232 543
3 588 130 339
3 534 226 106
3 481 478 132
3 110 404 538
3 74 278 519
3 79 283 573
3 529 414 91
3 51 480 481
3 92 456 499
3 583 342 74
3 572 255 18
3 18 336 589
3 35 312 607
3 542 314 22
3 156 431 518
3 151 411 533
3 518 212 35
3 133 339 587
3 31 316 604
3 604 148 400
3 587 334 17
3 612 429 156
3 533 310 34
3 594 138 360
3 148 399 542
3 607 151 412
3 22 199 594
3 17 194 612
3 589 133 340
3 138 359 572
3 125 360 571
3 68 412 532
3 75 340 586
3 586 338 50
3 532 410 67
3 576 195 75
3 88 400 541
3 55 259 486
3 50 254 504
3 103 223 522
3 127 247 576
3 522 272 68
3 571 358 127
3 504 101 451
3 486 125 475
3 541 398 55
3 517 430 103
3 101 432 517
3 1 170 617
3 521 188 13
3 503 305 41
3 5 175 623
3 485 329 47
3 167 475 485
3 161 451 503
3 155 427 521
3 137 355 575
3 47 331 593
3 41 307 611
3 623 473 167
3 617 449 161
3 611 425 155
3 593 353 137
3 575 1 281
3 502 450 104
3 104 224 525
3 484 474 128
3 128 248 579
3 574 354 77
3 579 126 351
3 102 428 520
3 525 222 102
3 54 476 484
3 94 452 502
3 510 94 443
3 126 356 574
3 77 281 510
3 520 426 93
3 615 159 444
3 154 423 524
3 524 306 36
3 136 351 578
3 509 214 37
3 610 154 424
3 592 136 352
3 20 197 615
3 21 332 592
3 37 308 610
3 159 443 509
3 578 20 257
3 508 442 99
3 53 257 507
3 70 424 523
3 78 352 577
3 513 274 70
3 507 217 97
3 577 350 53
3 99 219 513
3 523 422 69
3 97 444 508
3 158 439 512
3 4 173 616
3 160 447 506
3 614 158 440
3 512 190 14
3 506 301 40
3 40 303 614
3 616 160 448
3 505 446 100
3 100 220 516
3 98 440 511
3 96 448 505
3 516 218 98
3 511 438 95
3 157 435 515
3 515 302 38
3 613 157 436
3 39 304 613
3 72 436 514
3 514 434 71
3 110 542 399
3 62 536 407
3 542 55 398
3 536 111 406
3 55 623 175
3 620 62 182
3 63 620 183
3 111 605 315
3 623 54 174
3 605 110 230
3 543 148 397
3 537 150 405
3 148 541 400
3 150 535 408
3 43 543 232
3 10 537 293
3 541 5 292
3 535 43 313
3 497 112 458
3 89 606 209
3 604 88 208
3 606 109 229
3 109 497 459
3 112 604 316
3 498 163 457
3 32 498 269
3 496 31 268
3 163 496 460
3 619 64 184
3 65 619 185
