ply
format ascii 1.0
comment Created in Blender version 4.4.3
element vertex 25
property float x
property float y
property float z
property float s
property float t
element face 16
property list uchar uint vertex_indices
end_header
0.75 0.75 0 0.75 0.75
1 0.75 0 1 0.75
1 1 0 1 1
0.75 1 0 0.75 1
0.25 0.75 0 0.25 0.75
0.5 0.75 0 0.5 0.75
0.5 1 0 0.5 1
0.25 1 0 0.25 1
0.25 0.25 0 0.25 0.25
0.5 0.25 0 0.5 0.25
0.5 0.5 0 0.5 0.5
0.25 0.5 0 0.25 0.5
0.75 0.25 0 0.75 0.25
1 0.25 0 1 0.25
1 0.5 0 1 0.5
0.75 0.5 0 0.75 0.5
0.5 0 0 0.5 0
0.75 0 0 0.75 0
1 0 0 1 0
0 0.25 0 0 0.25
0 0.5 0 0 0.5
0 0 0 0 0
0.25 0 0 0.25 0
0 0.75 0 0 0.75
0 1 0 0 1
4 0 1 2 3
4 4 5 6 7
4 8 9 10 11
4 12 13 14 15
4 9 12 15 10
4 16 17 12 9
4 17 18 13 12
4 19 8 11 20
4 21 22 8 19
4 22 16 9 8
4 23 4 7 24
4 20 11 4 23
4 11 10 5 4
4 5 0 3 6
4 10 15 0 5
4 15 14 1 0
