ply
format ascii 1.0
comment Created in Blender version 4.2.1 LTS
element vertex 283
property float x
property float y
property float z
property float s
property float t
element face 512
property list uchar uint vertex_indices
end_header
0.875 0.875 0 0.875 0.875
0.93750143 0.93749857 0 0.93750143 0.93749857
0.875 1 0 0.875 1
0.375 0.875 0 0.375 0.875
0.4375041 0.9374959 0 0.4375041 0.9374959
0.375 1 0 0.375 1
0.375 0.375 0 0.375 0.375
0.43750075 0.43749925 0 0.43750075 0.43749925
0.375 0.5 0 0.375 0.5
0.875 0.375 0 0.875 0.375
0.93751276 0.43748724 0 0.93751276 0.43748724
0.875 0.5 0 0.875 0.5
0.625 0.375 0 0.625 0.375
0.6875006 0.4374994 0 0.6875006 0.4374994
0.625 0.5 0 0.625 0.5
0.625 0.125 0 0.625 0.125
0.68750846 0.18749154 0 0.68750846 0.18749154
0.625 0.25 0 0.625 0.25
0.875 0.125 0 0.875 0.125
0.93751633 0.18748367 0 0.93751633 0.18748367
0.875 0.25 0 0.875 0.25
0.125 0.375 0 0.125 0.375
0.18750343 0.43749657 0 0.18750343 0.43749657
0.125 0.5 0 0.125 0.5
0.125 0.125 0 0.125 0.125
0.1875037 0.1874963 0 0.1875037 0.1874963
0.125 0.25 0 0.125 0.25
0.375 0.125 0 0.375 0.125
0.437502 0.187498 0 0.437502 0.187498
0.375 0.25 0 0.375 0.25
0.125 0.875 0 0.125 0.875
0.18750888 0.9374911 0 0.18750888 0.9374911
0.125 1 0 0.125 1
0.125 0.625 0 0.125 0.625
0.18750173 0.6874983 0 0.18750173 0.6874983
0.125 0.75 0 0.125 0.75
0.375 0.625 0 0.375 0.625
0.43750477 0.68749523 0 0.43750477 0.68749523
0.375 0.75 0 0.375 0.75
0.625 0.875 0 0.625 0.875
0.6875069 0.9374931 0 0.6875069 0.9374931
0.625 1 0 0.625 1
0.625 0.625 0 0.625 0.625
0.6874999 0.6875001 0 0.6874999 0.6875001
0.625 0.75 0 0.625 0.75
0.875 0.625 0 0.875 0.625
0.9375017 0.6874983 0 0.9375017 0.6874983
0.875 0.75 0 0.875 0.75
0.75 0.625 0 0.75 0.625
0.8125059 0.6874941 0 0.8125059 0.6874941
0.75 0.75 0 0.75 0.75
0.75 0.5 0 0.75 0.5
0.8125055 0.5624945 0 0.8125055 0.5624945
0.93750143 0.56249857 0 0.93750143 0.56249857
0.5 0.625 0 0.5 0.625
0.5625063 0.6874937 0 0.5625063 0.6874937
0.5 0.5 0 0.5 0.5
0.5625039 0.5624961 0 0.5625039 0.5624961
0.6875004 0.5624996 0 0.6875004 0.5624996
0.5 0.875 0 0.5 0.875
0.56250304 0.93749696 0 0.56250304 0.93749696
0.5 1 0 0.5 1
0.5 0.75 0 0.5 0.75
0.5625049 0.8124951 0 0.5625049 0.8124951
0.6875054 0.8124946 0 0.6875054 0.8124946
0.25 0.625 0 0.25 0.625
0.3125006 0.6874994 0 0.3125006 0.6874994
0.25 0.75 0 0.25 0.75
0.25 0.5 0 0.25 0.5
0.31250656 0.56249344 0 0.31250656 0.56249344
0.43750417 0.5624958 0 0.43750417 0.5624958
0 0.625 0 0 0.625
0.06250268 0.6874973 0 0.06250268 0.6874973
0 0.5 0 0 0.5
0.06250566 0.56249434 0 0.06250566 0.5624944
0.1875028 0.5624972 0 0.1875028 0.5624972
0 0.875 0 0 0.875
0.06251055 0.93748945 0 0.06251055 0.93748945
0 0.75 0 0 0.75
0.06250274 0.81249726 0 0.06250274 0.81249726
0.18750656 0.81249344 0 0.18750656 0.81249344
0.25 0.125 0 0.25 0.125
0.3125052 0.18749481 0 0.3125052 0.18749481
0.25 0.25 0 0.25 0.25
0.25 0 0 0.25 0
0.3125045 0.0624955 0 0.3125045 0.0624955
0.375 0 0 0.375 0
0.4374986 0.0625014 0 0.4374986 0.0625014
0 0.125 0 0 0.125
0.06250405 0.18749595 0 0.06250404 0.18749596
0 0 0 0 0
0.125 0 0 0.125 0
0.06250307 0.06249693 0 0.06250307 0.06249693
0.18750387 0.062496126 0 0.18750387 0.062496126
0 0.375 0 0 0.375
0.0625065 0.4374935 0 0.0625065 0.4374935
0 0.25 0 0 0.25
0.06250566 0.31249434 0 0.06250566 0.31249434
0.18750325 0.31249675 0 0.18750325 0.31249675
0.75 0.125 0 0.75 0.125
0.8125067 0.18749332 0 0.8125067 0.18749332
0.75 0 0 0.75 0
0.875 0 0 0.875 0
0.812513 0.062486976 0 0.812513 0.062486976
1 0 0 1 0
0.937508 0.062492013 0 0.937508 0.062492013
0.5 0.125 0 0.5 0.125
0.5625048 0.18749517 0 0.5625048 0.18749517
0.5 0.25 0 0.5 0.25
0.5 0 0 0.5 0
0.625 0 0 0.625 0
0.5625082 0.062491775 0 0.5625082 0.062491782
0.68751127 0.062488735 0 0.68751127 0.062488735
0.5 0.375 0 0.5 0.375
0.5624976 0.43750238 0 0.5624976 0.43750238
0.5625014 0.31249863 0 0.5625014 0.31249863
0.6875038 0.3124962 0 0.6875038 0.3124962
0.75 0.375 0 0.75 0.375
0.81250453 0.43749547 0 0.81250453 0.43749547
0.75 0.25 0 0.75 0.25
0.81251067 0.31248933 0 0.81251067 0.31248933
1 0.25 0 1 0.25
0.937509 0.312491 0 0.937509 0.312491
0.25 0.375 0 0.25 0.375
0.3125037 0.4374963 0 0.3125037 0.4374963
0.31250408 0.31249592 0 0.31250408 0.31249592
0.43750316 0.31249684 0 0.43750316 0.31249684
0.25 0.875 0 0.25 0.875
0.31250864 0.93749136 0 0.31250864 0.93749136
0.25 1 0 0.25 1
0.3125077 0.8124923 0 0.3125077 0.8124923
0.4375046 0.8124954 0 0.4375046 0.8124954
0.75 0.875 0 0.75 0.875
0.8125022 0.9374978 0 0.8125022 0.9374978
0.75 1 0 0.75 1
0.81250256 0.81249744 0 0.81250256 0.81249744
1 0.75 0 1 0.75
0.93750584 0.81249416 0 0.93750584 0.81249416
0 1 0 0 1
1 0.125 0 1 0.125
1 0.375 0 1 0.375
1 0.5 0 1 0.5
1 0.625 0 1 0.625
1 0.875 0 1 0.875
1 1 0 1 1
1.875 0.875 0 0.875 0.875
1.9375014 0.93749857 0 0.93750143 0.93749857
1.875 1 0 0.875 1
1.375 0.875 0 0.375 0.875
1.437504 0.9374959 0 0.4375041 0.9374959
1.375 1 0 0.375 1
1.375 0.375 0 0.375 0.375
1.4375007 0.43749925 0 0.43750075 0.43749925
1.375 0.5 0 0.375 0.5
1.875 0.375 0 0.875 0.375
1.9375128 0.43748724 0 0.93751276 0.43748724
1.875 0.5 0 0.875 0.5
1.625 0.375 0 0.625 0.375
1.6875006 0.4374994 0 0.6875006 0.4374994
1.625 0.5 0 0.625 0.5
1.625 0.125 0 0.625 0.125
1.6875085 0.18749154 0 0.68750846 0.18749154
1.625 0.25 0 0.625 0.25
1.875 0.125 0 0.875 0.125
1.9375163 0.18748367 0 0.93751633 0.18748367
1.875 0.25 0 0.875 0.25
1.125 0.375 0 0.125 0.375
1.1875035 0.43749657 0 0.18750343 0.43749657
1.125 0.5 0 0.125 0.5
1.125 0.125 0 0.125 0.125
1.1875037 0.1874963 0 0.1875037 0.1874963
1.125 0.25 0 0.125 0.25
1.375 0.125 0 0.375 0.125
1.437502 0.187498 0 0.437502 0.187498
1.375 0.25 0 0.375 0.25
1.125 0.875 0 0.125 0.875
1.1875088 0.9374911 0 0.18750888 0.9374911
1.125 1 0 0.125 1
1.125 0.625 0 0.125 0.625
1.1875017 0.6874983 0 0.18750173 0.6874983
1.125 0.75 0 0.125 0.75
1.375 0.625 0 0.375 0.625
1.4375048 0.68749523 0 0.43750477 0.68749523
1.375 0.75 0 0.375 0.75
1.625 0.875 0 0.625 0.875
1.6875069 0.9374931 0 0.6875069 0.9374931
1.625 1 0 0.625 1
1.625 0.625 0 0.625 0.625
1.6874999 0.6875001 0 0.6874999 0.6875001
1.625 0.75 0 0.625 0.75
1.875 0.625 0 0.875 0.625
1.9375017 0.6874983 0 0.9375017 0.6874983
1.875 0.75 0 0.875 0.75
1.75 0.625 0 0.75 0.625
1.812506 0.6874941 0 0.8125059 0.6874941
1.75 0.75 0 0.75 0.75
1.75 0.5 0 0.75 0.5
1.8125055 0.5624945 0 0.8125055 0.5624945
1.9375014 0.56249857 0 0.93750143 0.56249857
1.5 0.625 0 0.5 0.625
1.5625063 0.6874937 0 0.5625063 0.6874937
1.5 0.5 0 0.5 0.5
1.5625038 0.5624961 0 0.5625039 0.5624961
1.6875005 0.5624996 0 0.6875004 0.5624996
1.5 0.875 0 0.5 0.875
1.5625031 0.93749696 0 0.56250304 0.93749696
1.5 1 0 0.5 1
1.5 0.75 0 0.5 0.75
1.5625049 0.8124951 0 0.5625049 0.8124951
1.6875055 0.8124946 0 0.6875054 0.8124946
1.25 0.625 0 0.25 0.625
1.3125006 0.6874994 0 0.3125006 0.6874994
1.25 0.75 0 0.25 0.75
1.25 0.5 0 0.25 0.5
1.3125066 0.56249344 0 0.31250656 0.56249344
1.4375042 0.5624958 0 0.43750417 0.5624958
1.1875029 0.5624972 0 0.1875028 0.5624972
1.1875066 0.81249344 0 0.18750656 0.81249344
1.25 0.125 0 0.25 0.125
1.3125052 0.18749481 0 0.3125052 0.18749481
1.25 0.25 0 0.25 0.25
1.25 0 0 0.25 0
1.3125045 0.0624955 0 0.3125045 0.0624955
1.375 0 0 0.375 0
1.4374986 0.0625014 0 0.4374986 0.0625014
1.125 0 0 0.125 0
1.1875038 0.062496126 0 0.18750387 0.062496126
1.1875032 0.31249675 0 0.18750325 0.31249675
1.75 0.125 0 0.75 0.125
1.8125067 0.18749332 0 0.8125067 0.18749332
1.75 0 0 0.75 0
1.875 0 0 0.875 0
1.812513 0.062486976 0 0.812513 0.062486976
2 0 0 1 0
1.937508 0.062492013 0 0.937508 0.062492013
1.5 0.125 0 0.5 0.125
1.5625048 0.18749517 0 0.5625048 0.18749517
1.5 0.25 0 0.5 0.25
1.5 0 0 0.5 0
1.625 0 0 0.625 0
1.5625082 0.062491775 0 0.5625082 0.062491782
1.6875112 0.062488735 0 0.68751127 0.062488735
1.5 0.375 0 0.5 0.375
1.5624976 0.43750238 0 0.5624976 0.43750238
1.5625014 0.31249863 0 0.5625014 0.31249863
1.6875038 0.3124962 0 0.6875038 0.3124962
1.75 0.375 0 0.75 0.375
1.8125045 0.43749547 0 0.81250453 0.43749547
1.75 0.25 0 0.75 0.25
1.8125107 0.31248933 0 0.81251067 0.31248933
2 0.25 0 1 0.25
1.9375091 0.312491 0 0.937509 0.312491
1.25 0.375 0 0.25 0.375
1.3125037 0.4374963 0 0.3125037 0.4374963
1.312504 0.31249592 0 0.31250408 0.31249592
1.4375031 0.31249684 0 0.43750316 0.31249684
1.25 0.875 0 0.25 0.875
1.3125086 0.93749136 0 0.31250864 0.93749136
1.25 1 0 0.25 1
1.3125076 0.8124923 0 0.3125077 0.8124923
1.4375045 0.8124954 0 0.4375046 0.8124954
1.75 0.875 0 0.75 0.875
1.8125021 0.9374978 0 0.8125022 0.9374978
1.75 1 0 0.75 1
1.8125026 0.81249744 0 0.81250256 0.81249744
2 0.75 0 1 0.75
1.9375058 0.81249416 0 0.93750584 0.81249416
2 0.125 0 1 0.125
2 0.375 0 1 0.375
2 0.5 0 1 0.5
2 0.625 0 1 0.625
2 0.875 0 1 0.875
2 1 0 1 1
1.0625031 0.06249693 0 0.06250307 0.06249693
1.062504 0.18749595 0 0.06250404 0.18749596
1.0625057 0.31249434 0 0.06250566 0.31249434
1.0625064 0.4374935 0 0.0625065 0.4374935
1.0625057 0.56249434 0 0.06250566 0.5624944
1.0625026 0.6874973 0 0.06250268 0.6874973
1.0625027 0.81249726 0 0.06250274 0.81249726
1.0625105 0.93748945 0 0.06251055 0.93748945
1 0 0 0 0
1 0.25 0 0 0
3 0 1 2
3 3 4 5
3 6 7 8
3 9 10 11
3 12 13 14
3 15 16 17
3 18 19 20
3 21 22 23
3 24 25 26
3 27 28 29
3 30 31 32
3 33 34 35
3 36 37 38
3 39 40 41
3 42 43 44
3 45 46 47
3 48 49 50
3 51 11 52
3 11 53 45
3 54 42 55
3 56 57 54
3 14 58 42
3 59 60 61
3 62 63 59
3 44 50 64
3 65 66 67
3 68 8 69
3 8 70 36
3 71 33 72
3 73 23 74
3 23 75 33
3 76 30 77
3 78 35 79
3 35 80 30
3 81 82 83
3 84 85 81
3 86 87 27
3 88 24 89
3 90 91 92
3 91 93 24
3 94 21 95
3 96 26 97
3 26 83 98
3 99 18 100
3 101 102 103
3 102 104 105
3 106 107 108
3 109 110 111
3 110 101 112
3 113 114 56
3 108 115 113
3 17 116 12
3 117 118 51
3 119 120 117
3 20 121 122
3 123 124 68
3 83 125 123
3 29 126 6
3 127 128 129
3 67 130 127
3 38 62 131
3 132 133 134
3 50 135 132
3 47 136 137
3 88 92 24
3 24 93 81
3 96 89 26
3 26 25 83
3 94 97 21
3 81 85 27
3 21 98 123
3 73 95 23
3 27 87 106
3 83 82 29
3 29 28 108
3 106 111 15
3 123 125 6
3 71 74 33
3 23 22 68
3 68 124 8
3 108 107 17
3 78 72 35
3 6 126 113
3 15 112 99
3 33 75 65
3 65 69 36
3 113 115 12
3 76 79 30
3 17 16 119
3 35 34 67
3 8 7 56
3 99 103 18
3 56 114 14
3 138 77 32
3 18 105 139
3 36 70 54
3 12 116 117
3 30 80 127
3 119 100 20
3 67 66 38
3 14 13 51
3 32 31 129
3 127 130 3
3 20 19 121
3 54 57 42
3 117 120 9
3 38 37 62
3 129 128 5
3 9 122 140
3 62 55 44
3 51 118 11
3 3 131 59
3 42 58 48
3 48 52 45
3 59 63 39
3 44 43 50
3 5 4 61
3 11 10 141
3 39 64 132
3 61 60 41
3 45 53 142
3 50 49 47
3 47 46 136
3 41 40 134
3 132 135 0
3 0 137 143
3 134 133 2
3 2 1 144
3 139 105 104
3 105 18 102
3 18 103 102
3 121 19 139
3 19 18 139
3 103 99 101
3 140 122 121
3 122 9 20
3 20 100 18
3 99 112 101
3 112 15 110
3 100 119 99
3 10 9 140
3 141 10 140
3 16 15 99
3 9 120 20
3 111 106 109
3 119 16 99
3 120 119 20
3 15 111 110
3 117 116 119
3 116 17 119
3 118 117 9
3 17 107 15
3 106 87 109
3 87 86 109
3 53 11 141
3 107 106 15
3 142 53 141
3 11 118 9
3 136 46 142
3 12 115 17
3 13 12 117
3 115 108 17
3 27 85 86
3 46 45 142
3 85 84 86
3 52 48 51
3 51 13 117
3 28 27 106
3 108 28 106
3 45 52 11
3 114 113 12
3 93 91 84
3 143 137 136
3 82 81 27
3 49 48 45
3 29 82 27
3 137 0 47
3 113 126 108
3 126 29 108
3 14 114 12
3 81 93 84
3 47 49 45
3 48 58 51
3 58 14 51
3 42 57 14
3 43 42 48
3 144 1 143
3 0 135 47
3 6 125 29
3 1 0 143
3 135 50 47
3 56 7 113
3 25 24 81
3 50 43 48
3 24 92 91
3 125 83 29
3 92 88 90
3 57 56 14
3 7 6 113
3 83 25 81
3 54 70 56
3 132 64 50
3 98 21 26
3 64 39 44
3 123 98 83
3 2 133 0
3 44 55 42
3 70 8 56
3 124 123 6
3 89 96 88
3 55 62 54
3 8 124 6
3 133 132 0
3 26 89 24
3 40 39 132
3 134 40 132
3 39 63 44
3 63 62 44
3 68 22 123
3 62 37 54
3 22 21 123
3 69 65 68
3 21 97 26
3 97 94 96
3 36 69 8
3 37 36 54
3 95 73 94
3 60 59 39
3 131 3 38
3 66 65 36
3 23 95 21
3 38 66 36
3 41 60 39
3 59 131 62
3 65 75 68
3 75 23 68
3 3 130 38
3 33 74 23
3 130 67 38
3 61 4 59
3 4 3 59
3 74 71 73
3 34 33 65
3 67 34 65
3 35 72 33
3 127 80 67
3 72 78 71
3 80 35 67
3 128 127 3
3 5 128 3
3 31 30 127
3 30 79 35
3 79 76 78
3 129 31 127
3 77 138 76
3 32 77 30
3 145 146 147
3 148 149 150
3 151 152 153
3 154 155 156
3 157 158 159
3 160 161 162
3 163 164 165
3 166 167 168
3 169 170 171
3 172 173 174
3 175 176 177
3 178 179 180
3 181 182 183
3 184 185 186
3 187 188 189
3 190 191 192
3 193 194 195
3 196 156 197
3 156 198 190
3 199 187 200
3 201 202 199
3 159 203 187
3 204 205 206
3 207 208 204
3 189 195 209
3 210 211 212
3 213 153 214
3 153 215 181
3 168 216 178
3 180 217 175
3 218 219 220
3 221 222 218
3 223 224 172
3 225 226 169
3 171 220 227
3 228 163 229
3 230 231 232
3 231 233 234
3 235 236 237
3 238 239 240
3 239 230 241
3 242 243 201
3 237 244 242
3 162 245 157
3 246 247 196
3 248 249 246
3 165 250 251
3 252 253 213
3 220 254 252
3 174 255 151
3 256 257 258
3 212 259 256
3 183 207 260
3 261 262 263
3 195 264 261
3 192 265 266
3 169 226 218
3 171 170 220
3 218 222 172
3 166 227 252
3 172 224 235
3 220 219 174
3 174 173 237
3 235 240 160
3 252 254 151
3 168 167 213
3 213 253 153
3 237 236 162
3 151 255 242
3 160 241 228
3 178 216 210
3 210 214 181
3 242 244 157
3 162 161 248
3 180 179 212
3 153 152 201
3 228 232 163
3 201 243 159
3 163 234 267
3 181 215 199
3 157 245 246
3 175 217 256
3 248 229 165
3 212 211 183
3 159 158 196
3 177 176 258
3 256 259 148
3 165 164 250
3 199 202 187
3 246 249 154
3 183 182 207
3 258 257 150
3 154 251 268
3 207 200 189
3 196 247 156
3 148 260 204
3 187 203 193
3 193 197 190
3 204 208 184
3 189 188 195
3 150 149 206
3 156 155 269
3 184 209 261
3 206 205 186
3 190 198 270
3 195 194 192
3 192 191 265
3 186 185 263
3 261 264 145
3 145 266 271
3 263 262 147
3 147 146 272
3 267 234 233
3 234 163 231
3 163 232 231
3 250 164 267
3 164 163 267
3 232 228 230
3 268 251 250
3 251 154 165
3 165 229 163
3 228 241 230
3 241 160 239
3 229 248 228
3 155 154 268
3 269 155 268
3 161 160 228
3 154 249 165
3 240 235 238
3 248 161 228
3 249 248 165
3 160 240 239
3 246 245 248
3 245 162 248
3 247 246 154
3 162 236 160
3 235 224 238
3 224 223 238
3 198 156 269
3 236 235 160
3 270 198 269
3 156 247 154
3 265 191 270
3 157 244 162
3 158 157 246
3 244 237 162
3 172 222 223
3 191 190 270
3 222 221 223
3 197 193 196
3 196 158 246
3 173 172 235
3 237 173 235
3 190 197 156
3 243 242 157
3 226 225 221
3 271 266 265
3 219 218 172
3 194 193 190
3 174 219 172
3 266 145 192
3 242 255 237
3 255 174 237
3 159 243 157
3 218 226 221
3 192 194 190
3 193 203 196
3 203 159 196
3 187 202 159
3 188 187 193
3 272 146 271
3 145 264 192
3 151 254 174
3 146 145 271
3 264 195 192
3 201 152 242
3 170 169 218
3 195 188 193
3 169 273 225
3 254 220 174
3 202 201 159
3 152 151 242
3 220 170 218
3 199 215 201
3 261 209 195
3 227 166 171
3 209 184 189
3 252 227 220
3 147 262 145
3 189 200 187
3 215 153 201
3 253 252 151
3 200 207 199
3 153 253 151
3 262 261 145
3 171 274 169
3 185 184 261
3 263 185 261
3 184 208 189
3 208 207 189
3 213 167 252
3 207 182 199
3 167 166 252
3 214 210 213
3 166 275 171
3 181 214 153
3 182 181 199
3 205 204 184
3 260 148 183
3 211 210 181
3 168 276 166
3 183 211 181
3 186 205 184
3 204 260 207
3 210 216 213
3 216 168 213
3 148 259 183
3 178 277 168
3 259 212 183
3 206 149 204
3 149 148 204
3 179 178 210
3 212 179 210
3 180 278 178
3 256 217 212
3 217 180 212
3 257 256 148
3 150 257 148
3 176 175 256
3 175 279 180
3 258 176 256
3 177 280 175
3 225 273 281
3 139 281 273
3 169 139 273
3 171 282 274
3 139 274 282
3 140 282 275
3 166 140 275
3 141 140 276
3 168 141 276
3 142 141 277
3 178 142 277
3 142 278 136
3 180 136 278
3 143 136 279
3 175 143 279
3 144 143 280
3 177 144 280
3 141 168 277
3 140 166 276
3 282 171 275
3 139 169 274
3 142 178 278
3 136 180 279
3 143 175 280
