ply
format ascii 1.0
comment Created in Blender version 4.2.1 LTS
element vertex 435
property float x
property float y
property float z
property float s
property float t
element face 392
property list uchar uint vertex_indices
end_header
-0.85714257 0.9523323 0.093798645 0.953125 0.96428573
-0.99999976 0.9523323 0.09379864 0.953125 1
-0.99999976 0.92387944 0.18759519 0.9375 1
-0.8571426 0.92387944 0.1875952 0.9375 0.96428573
-0.8571426 0.87767446 0.2740386 0.921875 0.96428573
-0.99999976 0.87767446 0.2740386 0.921875 1
-0.99999976 0.83146954 0.36048204 0.90625 1
-0.8571426 0.83146954 0.36048204 0.90625 0.96428573
-0.8571427 0.7692881 0.43625027 0.890625 0.96428573
-0.99999976 0.7692881 0.43625027 0.890625 1
-0.9999998 0.7071067 0.5120185 0.875 1
-0.8571427 0.7071067 0.5120185 0.875 0.96428573
-0.8571426 0.6313385 0.5741999 0.859375 0.96428573
-0.99999976 0.6313385 0.5741999 0.859375 1
-0.9999997 0.5555702 0.6363813 0.84375 1
-0.85714257 0.5555702 0.6363813 0.84375 0.96428573
-0.85714257 0.46912682 0.6825863 0.828125 0.96428573
-0.99999976 0.46912682 0.6825863 0.828125 1
-0.99999976 0.38268343 0.72879124 0.8125 1
-0.8571426 0.38268343 0.72879124 0.8125 0.96428573
-0.8571427 0.28888687 0.7572441 0.796875 0.96428573
-0.9999999 0.28888687 0.7572441 0.796875 1
-1 0.19509031 0.78569704 0.78125 1
-0.85714275 0.19509031 0.78569704 0.78125 0.96428573
-0.8571427 0.097545154 0.7953044 0.765625 0.96428573
-0.9999999 0.097545154 0.7953044 0.765625 1
-0.99999976 -4.440892e-16 0.8049118 0.75 1
-0.8571426 -4.440892e-16 0.8049118 0.75 0.96428573
-0.8571426 -0.097545154 0.7953044 0.734375 0.96428573
-0.99999976 -0.097545154 0.7953044 0.734375 1
-0.99999976 -0.19509031 0.78569704 0.71875 1
-0.8571426 -0.19509031 0.78569704 0.71875 0.96428573
-0.8571426 -0.28888687 0.7572441 0.703125 0.96428573
-0.99999976 -0.28888687 0.7572441 0.703125 1
-0.99999976 -0.38268343 0.72879124 0.6875 1
-0.8571426 -0.38268343 0.72879124 0.68749994 0.9642857
-0.85714257 -0.46912682 0.6825863 0.671875 0.96428573
-0.99999976 -0.46912682 0.6825863 0.671875 1
-0.9999997 -0.5555702 0.6363813 0.65625 1
-0.85714257 -0.5555702 0.6363813 0.65625 0.96428573
-0.8571426 -0.6313385 0.5741999 0.640625 0.96428573
-0.99999976 -0.6313385 0.5741999 0.640625 1
-0.9999998 -0.7071067 0.5120185 0.625 1
-0.8571427 -0.7071067 0.5120185 0.625 0.96428573
-0.8571427 -0.7692881 0.43625027 0.609375 0.96428573
-0.99999976 -0.7692881 0.43625027 0.609375 1
-0.99999976 -0.83146954 0.36048204 0.59375 1
-0.8571426 -0.83146954 0.36048204 0.59375 0.96428573
-0.8571426 -0.87767446 0.2740386 0.578125 0.96428573
-0.99999976 -0.87767446 0.2740386 0.578125 1
-0.99999976 -0.92387944 0.18759519 0.5625 1
-0.8571426 -0.92387944 0.1875952 0.5625 0.96428573
-0.85714257 -0.9523323 0.093798645 0.546875 0.96428573
-0.99999976 -0.9523323 0.09379864 0.546875 1
-0.99999976 -0.9807852 2.0861626e-06 0.53125 1
-0.85714257 -0.9807852 2.0861626e-06 0.53125 0.96428573
0.8571431 -0.9523323 0.09379873 0.546875 0.53571427
0.71428597 -0.9523323 0.09379873 0.546875 0.57142854
0.71428597 -0.9807852 2.1457672e-06 0.53124994 0.5714285
0.8571431 -0.9807852 2.1457672e-06 0.53125 0.53571427
0.57142884 -0.9523323 0.09379871 0.546875 0.6071428
0.4285717 -0.9523323 0.0937987 0.546875 0.6428571
0.4285717 -0.9807852 2.115965e-06 0.53125 0.6428571
0.57142884 -0.9807852 2.130866e-06 0.53125 0.6071428
0.28571457 -0.9523323 0.09379868 0.546875 0.6785714
0.14285743 -0.9523323 0.09379867 0.546875 0.71428573
0.14285743 -0.9807852 2.0861626e-06 0.53125 0.71428573
0.28571457 -0.9807852 2.1010637e-06 0.53125 0.6785714
2.9802322e-07 -0.9523323 0.09379867 0.546875 0.75
-0.14285684 -0.9523323 0.09379867 0.546875 0.7857143
-0.14285684 -0.9807852 2.0861626e-06 0.53125 0.7857143
2.9802322e-07 -0.9807852 2.0861626e-06 0.53125 0.75
-0.285714 -0.9523323 0.09379867 0.546875 0.82142866
-0.42857116 -0.9523323 0.09379867 0.546875 0.8571429
-0.42857116 -0.9807852 2.0861626e-06 0.53125 0.85714287
-0.285714 -0.9807852 2.0861626e-06 0.53125 0.8214286
-0.5714283 -0.9523323 0.09379866 0.546875 0.8928572
-0.7142855 -0.9523323 0.09379865 0.546875 0.92857146
-0.71428543 -0.9807852 2.0861626e-06 0.53125 0.92857146
-0.5714283 -0.9807852 2.0861626e-06 0.53125 0.8928572
0.8571431 -0.87767446 0.2740387 0.578125 0.53571427
0.71428597 -0.87767446 0.2740387 0.578125 0.57142854
0.71428597 -0.92387944 0.18759531 0.5625 0.57142854
0.8571431 -0.92387944 0.18759531 0.5625 0.53571427
0.57142884 -0.87767446 0.2740387 0.578125 0.6071428
0.4285717 -0.87767446 0.27403867 0.578125 0.64285713
0.4285717 -0.92387944 0.18759528 0.5625 0.6428571
0.57142884 -0.92387944 0.1875953 0.5625 0.6071428
0.28571457 -0.87767446 0.27403867 0.578125 0.67857146
0.14285743 -0.87767446 0.27403867 0.578125 0.71428573
0.14285743 -0.92387944 0.18759525 0.56249994 0.71428573
0.28571457 -0.92387944 0.18759526 0.5625 0.6785714
2.9802322e-07 -0.87767446 0.27403867 0.578125 0.75
-0.14285684 -0.87767446 0.27403867 0.578125 0.7857144
-0.14285684 -0.92387944 0.18759525 0.5625 0.7857143
2.9802322e-07 -0.92387944 0.18759525 0.5625 0.75
-0.285714 -0.87767446 0.27403864 0.578125 0.82142866
-0.42857116 -0.87767446 0.27403864 0.578125 0.8571429
-0.42857116 -0.92387944 0.18759525 0.5625 0.8571429
-0.285714 -0.92387944 0.18759525 0.5625 0.82142866
-0.5714283 -0.87767446 0.27403864 0.578125 0.8928572
-0.7142855 -0.87767446 0.2740386 0.578125 0.92857146
-0.7142855 -0.92387944 0.18759522 0.5625 0.92857146
-0.5714283 -0.92387944 0.18759523 0.5625 0.8928572
0.8571431 -0.7692881 0.43625036 0.609375 0.53571427
0.71428597 -0.7692881 0.43625036 0.609375 0.57142854
0.71428597 -0.83146954 0.3604821 0.59375 0.57142854
0.8571431 -0.83146954 0.3604821 0.59375 0.53571427
0.57142884 -0.7692881 0.43625033 0.609375 0.60714287
0.4285717 -0.7692881 0.43625033 0.609375 0.6428572
0.4285717 -0.83146954 0.36048207 0.59375 0.6428572
0.57142884 -0.83146954 0.3604821 0.59375 0.60714287
0.28571454 -0.7692881 0.43625033 0.609375 0.67857146
0.14285737 -0.7692881 0.43625033 0.609375 0.71428573
0.14285743 -0.83146954 0.36048207 0.59375 0.71428573
0.28571457 -0.83146954 0.36048207 0.59375 0.67857146
2.3841858e-07 -0.7692881 0.43625033 0.609375 0.75
-0.1428569 -0.7692881 0.43625033 0.609375 0.7857144
-0.14285684 -0.83146954 0.36048207 0.59375006 0.7857144
2.9802322e-07 -0.83146954 0.36048207 0.59375 0.75000006
-0.28571403 -0.7692881 0.4362503 0.609375 0.82142866
-0.4285712 -0.7692881 0.4362503 0.609375 0.8571429
-0.42857116 -0.83146954 0.36048204 0.59374994 0.85714287
-0.285714 -0.83146954 0.36048204 0.59375 0.82142866
-0.5714283 -0.7692881 0.4362503 0.609375 0.8928572
-0.7142855 -0.7692881 0.43625027 0.609375 0.92857146
-0.7142855 -0.83146954 0.36048204 0.59375 0.9285715
-0.5714283 -0.83146954 0.36048204 0.59375 0.8928572
0.8571431 -0.6313385 0.57420003 0.640625 0.53571427
0.71428597 -0.6313385 0.57420003 0.64062494 0.5714285
0.71428597 -0.7071067 0.5120186 0.625 0.57142854
0.8571431 -0.7071067 0.5120186 0.625 0.53571427
0.57142884 -0.6313385 0.5742 0.640625 0.6071428
0.4285717 -0.6313385 0.5742 0.640625 0.6428572
0.4285717 -0.7071067 0.51201856 0.625 0.6428572
0.57142884 -0.7071067 0.51201856 0.625 0.60714287
0.28571454 -0.6313385 0.5742 0.640625 0.67857146
0.14285737 -0.6313385 0.5742 0.6406251 0.71428573
0.14285731 -0.7071067 0.51201856 0.62500006 0.71428573
0.2857145 -0.7071067 0.51201856 0.625 0.67857146
2.3841858e-07 -0.6313385 0.5742 0.64062506 0.75
-0.1428569 -0.6313385 0.5742 0.640625 0.7857143
-0.14285696 -0.7071067 0.51201856 0.625 0.7857143
1.7881393e-07 -0.7071067 0.51201856 0.625 0.75
-0.28571403 -0.6313385 0.5742 0.640625 0.8214286
-0.42857116 -0.6313385 0.5742 0.640625 0.85714287
-0.42857122 -0.7071067 0.51201856 0.62500006 0.8571429
-0.2857141 -0.7071067 0.51201856 0.625 0.82142866
-0.5714283 -0.6313385 0.5742 0.640625 0.8928572
-0.71428543 -0.6313385 0.5741999 0.640625 0.92857146
-0.7142855 -0.7071067 0.5120185 0.625 0.92857146
-0.57142836 -0.7071067 0.51201856 0.625 0.8928572
0.8571431 -0.46912682 0.6825863 0.671875 0.53571427
0.71428597 -0.46912682 0.6825863 0.67187494 0.5714285
0.71428597 -0.5555702 0.6363814 0.6562499 0.5714284
0.8571431 -0.5555702 0.6363814 0.65624994 0.5357142
0.57142884 -0.46912682 0.6825863 0.671875 0.6071428
0.4285717 -0.46912682 0.6825863 0.671875 0.6428572
0.4285717 -0.5555702 0.6363814 0.65625 0.64285713
0.57142884 -0.5555702 0.6363814 0.65624994 0.6071428
0.28571457 -0.46912682 0.6825863 0.671875 0.67857146
0.14285743 -0.46912682 0.6825863 0.671875 0.71428573
0.14285743 -0.5555702 0.6363814 0.6562501 0.7142858
0.28571457 -0.5555702 0.6363814 0.65625006 0.67857146
2.9802322e-07 -0.46912682 0.6825863 0.671875 0.75
-0.14285684 -0.46912682 0.6825863 0.671875 0.7857143
-0.14285684 -0.5555702 0.6363814 0.65625006 0.7857143
2.9802322e-07 -0.5555702 0.6363814 0.6562501 0.75000006
-0.28571397 -0.46912682 0.6825863 0.671875 0.8214286
-0.42857116 -0.46912682 0.6825863 0.671875 0.85714287
-0.42857113 -0.5555702 0.6363814 0.65624994 0.8571428
-0.28571397 -0.5555702 0.6363814 0.65625 0.82142854
-0.5714283 -0.46912682 0.6825863 0.671875 0.89285713
-0.71428543 -0.46912682 0.6825863 0.67187494 0.9285714
-0.7142854 -0.5555702 0.6363813 0.65625 0.92857146
-0.57142824 -0.5555702 0.6363814 0.65625 0.89285713
0.8571431 -0.28888687 0.75724417 0.703125 0.53571427
0.71428597 -0.28888687 0.75724417 0.703125 0.57142854
0.71428597 -0.38268343 0.7287913 0.6875 0.57142854
0.8571431 -0.38268343 0.7287913 0.6875 0.53571427
0.57142884 -0.28888687 0.75724417 0.703125 0.6071428
0.4285717 -0.28888687 0.75724417 0.703125 0.6428572
0.4285717 -0.38268343 0.7287913 0.6875 0.6428572
0.57142884 -0.38268343 0.7287913 0.6875 0.60714287
0.28571457 -0.28888687 0.7572441 0.703125 0.67857146
0.14285743 -0.28888687 0.7572441 0.703125 0.71428573
0.14285743 -0.38268343 0.72879124 0.6874999 0.71428573
0.28571457 -0.38268343 0.72879124 0.68749994 0.67857146
2.9802322e-07 -0.28888687 0.7572441 0.703125 0.75
-0.14285684 -0.28888687 0.7572441 0.703125 0.7857143
-0.14285684 -0.38268343 0.72879124 0.68749994 0.7857143
2.9802322e-07 -0.38268343 0.72879124 0.6874999 0.75
-0.285714 -0.28888687 0.7572441 0.703125 0.82142866
-0.42857116 -0.28888687 0.7572441 0.703125 0.8571429
-0.42857116 -0.38268343 0.72879124 0.6875 0.8571429
-0.285714 -0.38268343 0.72879124 0.6875 0.82142866
-0.5714283 -0.28888687 0.7572441 0.703125 0.8928572
-0.7142855 -0.28888687 0.7572441 0.703125 0.9285714
-0.7142855 -0.38268343 0.72879124 0.6874999 0.92857134
-0.5714283 -0.38268343 0.72879124 0.68749994 0.89285713
0.8571431 -0.097545154 0.7953044 0.734375 0.53571427
0.71428597 -0.097545154 0.7953044 0.734375 0.57142854
0.71428597 -0.19509031 0.78569704 0.71875 0.57142854
0.8571431 -0.19509031 0.78569704 0.71875 0.53571427
0.57142884 -0.097545154 0.7953044 0.734375 0.6071428
0.4285717 -0.097545154 0.7953044 0.734375 0.64285713
0.4285717 -0.19509031 0.78569704 0.71875 0.64285713
0.57142884 -0.19509031 0.78569704 0.71875 0.6071428
0.28571457 -0.097545154 0.7953044 0.734375 0.67857146
0.14285743 -0.097545154 0.7953044 0.734375 0.71428573
0.14285743 -0.19509031 0.78569704 0.71875006 0.71428573
0.28571457 -0.19509031 0.78569704 0.71875 0.67857146
2.9802322e-07 -0.097545154 0.7953044 0.734375 0.75
-0.14285684 -0.097545154 0.7953044 0.734375 0.7857143
-0.14285684 -0.19509031 0.78569704 0.71875006 0.7857143
2.9802322e-07 -0.19509031 0.78569704 0.71875006 0.75
-0.285714 -0.097545154 0.7953044 0.734375 0.8214286
-0.42857116 -0.097545154 0.7953044 0.734375 0.85714287
-0.42857116 -0.19509031 0.78569704 0.71875006 0.85714287
-0.285714 -0.19509031 0.78569704 0.71875006 0.8214286
-0.5714283 -0.097545154 0.7953044 0.734375 0.8928572
-0.7142855 -0.097545154 0.7953044 0.734375 0.92857146
-0.7142855 -0.19509031 0.78569704 0.71875006 0.92857146
-0.5714283 -0.19509031 0.78569704 0.71875006 0.8928572
0.8571431 0.097545154 0.7953044 0.765625 0.53571427
0.71428597 0.097545154 0.7953044 0.765625 0.57142854
0.71428597 -4.440892e-16 0.8049118 0.75 0.57142854
0.8571431 -4.440892e-16 0.8049118 0.75 0.53571427
0.57142884 0.097545154 0.7953044 0.765625 0.6071428
0.4285717 0.097545154 0.7953044 0.765625 0.64285713
0.4285717 -4.440892e-16 0.8049118 0.75 0.64285713
0.57142884 -4.440892e-16 0.8049118 0.75 0.6071428
0.28571457 0.097545154 0.7953044 0.765625 0.67857146
0.14285743 0.097545154 0.7953044 0.765625 0.71428573
0.14285743 -4.440892e-16 0.8049118 0.75 0.71428573
0.28571457 -4.440892e-16 0.8049118 0.75 0.67857146
2.9802322e-07 0.097545154 0.7953044 0.765625 0.75
-0.14285684 0.097545154 0.7953044 0.765625 0.7857143
-0.14285684 -4.440892e-16 0.8049118 0.75 0.7857143
2.9802322e-07 -4.440892e-16 0.8049118 0.75 0.75
-0.285714 0.097545154 0.7953044 0.765625 0.8214286
-0.42857116 0.097545154 0.7953044 0.765625 0.85714287
-0.42857116 -4.440892e-16 0.8049118 0.75 0.85714287
-0.285714 -4.440892e-16 0.8049118 0.75 0.8214286
-0.5714283 0.097545154 0.7953044 0.765625 0.8928572
-0.7142855 0.097545154 0.7953044 0.765625 0.92857146
-0.7142855 -4.440892e-16 0.8049118 0.75 0.92857146
-0.5714283 -4.440892e-16 0.8049118 0.75 0.8928572
0.8571431 0.28888687 0.75724417 0.796875 0.53571427
0.71428597 0.28888687 0.75724417 0.796875 0.57142854
0.71428597 0.19509031 0.78569704 0.78125 0.57142854
0.8571431 0.19509031 0.78569704 0.78125 0.53571427
0.57142884 0.28888687 0.75724417 0.796875 0.6071428
0.4285717 0.28888687 0.75724417 0.796875 0.64285713
0.4285717 0.19509031 0.78569704 0.78125 0.64285713
0.57142884 0.19509031 0.78569704 0.78125 0.6071428
0.28571457 0.28888687 0.7572441 0.796875 0.67857146
0.14285743 0.28888687 0.7572441 0.796875 0.71428573
0.14285743 0.19509031 0.78569704 0.78125 0.71428573
0.28571457 0.19509031 0.78569704 0.78125 0.67857146
2.9802322e-07 0.28888687 0.7572441 0.796875 0.75
-0.14285684 0.28888687 0.7572441 0.796875 0.7857143
-0.14285684 0.19509031 0.78569704 0.78125 0.7857143
2.9802322e-07 0.19509031 0.78569704 0.78125 0.75
-0.285714 0.28888687 0.7572441 0.796875 0.82142866
-0.42857116 0.28888687 0.7572441 0.796875 0.8571429
-0.42857116 0.19509031 0.78569704 0.78125 0.85714287
-0.285714 0.19509031 0.78569704 0.78125 0.8214286
-0.5714283 0.28888687 0.7572441 0.796875 0.8928572
-0.7142855 0.28888687 0.7572441 0.796875 0.92857146
-0.7142855 0.19509031 0.78569704 0.78125 0.92857146
-0.5714283 0.19509031 0.78569704 0.78125 0.8928572
0.8571431 0.46912682 0.6825863 0.828125 0.53571427
0.71428597 0.46912682 0.6825863 0.828125 0.57142854
0.71428597 0.38268343 0.7287913 0.8125 0.57142854
0.8571431 0.38268343 0.7287913 0.8125 0.53571427
0.57142884 0.46912682 0.6825863 0.828125 0.6071428
0.4285717 0.46912682 0.6825863 0.82812494 0.6428571
0.4285717 0.38268343 0.7287913 0.8125 0.64285713
0.57142884 0.38268343 0.7287913 0.8125 0.6071428
0.28571457 0.46912682 0.6825863 0.828125 0.67857146
0.14285743 0.46912682 0.6825863 0.82812506 0.71428573
0.14285743 0.38268343 0.72879124 0.81250006 0.71428573
0.28571457 0.38268343 0.72879124 0.8125 0.67857146
2.9802322e-07 0.46912682 0.6825863 0.828125 0.75
-0.14285684 0.46912682 0.6825863 0.828125 0.7857143
-0.14285684 0.38268343 0.72879124 0.81250006 0.7857143
2.9802322e-07 0.38268343 0.72879124 0.81250006 0.75
-0.28571397 0.46912682 0.6825863 0.828125 0.8214286
-0.42857116 0.46912682 0.6825863 0.828125 0.85714287
-0.42857116 0.38268343 0.72879124 0.81250006 0.8571429
-0.285714 0.38268343 0.72879124 0.81250006 0.82142866
-0.5714283 0.46912682 0.6825863 0.828125 0.8928572
-0.71428543 0.46912682 0.6825863 0.828125 0.92857146
-0.7142855 0.38268343 0.72879124 0.8125 0.92857146
-0.5714283 0.38268343 0.72879124 0.8125 0.8928572
0.8571431 0.6313385 0.57420003 0.859375 0.53571427
0.71428597 0.6313385 0.57420003 0.859375 0.57142854
0.71428597 0.5555702 0.6363814 0.84375 0.57142854
0.8571431 0.5555702 0.6363814 0.84375 0.53571427
0.57142884 0.6313385 0.5742 0.859375 0.6071428
0.4285717 0.6313385 0.5742 0.85937494 0.6428571
0.4285717 0.5555702 0.6363814 0.8437499 0.6428571
0.57142884 0.5555702 0.6363814 0.84374994 0.6071428
0.28571454 0.6313385 0.5742 0.859375 0.6785714
0.14285737 0.6313385 0.5742 0.859375 0.71428573
0.14285743 0.5555702 0.6363814 0.84375006 0.71428573
0.28571457 0.5555702 0.6363814 0.84375 0.6785714
2.3841858e-07 0.6313385 0.5742 0.859375 0.75
-0.1428569 0.6313385 0.5742 0.859375 0.78571427
-0.14285684 0.5555702 0.6363814 0.84375 0.7857143
2.9802322e-07 0.5555702 0.6363814 0.84375 0.75
-0.28571403 0.6313385 0.5742 0.859375 0.8214286
-0.42857116 0.6313385 0.5742 0.85937506 0.8571429
-0.42857113 0.5555702 0.6363814 0.84375 0.8571428
-0.28571397 0.5555702 0.6363814 0.84375 0.82142854
-0.5714283 0.6313385 0.5742 0.859375 0.8928572
-0.71428543 0.6313385 0.5741999 0.859375 0.92857146
-0.7142854 0.5555702 0.6363813 0.84375 0.92857146
-0.57142824 0.5555702 0.6363814 0.84375 0.89285713
0.8571431 0.7692881 0.43625036 0.890625 0.53571427
0.71428597 0.7692881 0.43625036 0.890625 0.57142854
0.71428597 0.7071067 0.5120186 0.875 0.57142854
0.8571431 0.7071067 0.5120186 0.875 0.53571427
0.57142884 0.7692881 0.43625033 0.890625 0.6071428
0.4285717 0.7692881 0.43625033 0.890625 0.6428571
0.4285717 0.7071067 0.51201856 0.875 0.6428571
0.57142884 0.7071067 0.51201856 0.875 0.6071428
0.28571454 0.7692881 0.43625033 0.890625 0.67857146
0.14285737 0.7692881 0.43625033 0.890625 0.71428573
0.14285731 0.7071067 0.51201856 0.875 0.71428573
0.2857145 0.7071067 0.51201856 0.875 0.6785714
2.3841858e-07 0.7692881 0.43625033 0.89062494 0.75
-0.1428569 0.7692881 0.43625033 0.89062494 0.78571427
-0.14285696 0.7071067 0.51201856 0.875 0.78571427
1.7881393e-07 0.7071067 0.51201856 0.875 0.75
-0.28571403 0.7692881 0.4362503 0.890625 0.8214286
-0.4285712 0.7692881 0.4362503 0.89062506 0.8571429
-0.42857122 0.7071067 0.51201856 0.8750001 0.857143
-0.2857141 0.7071067 0.51201856 0.87500006 0.82142866
-0.5714283 0.7692881 0.4362503 0.890625 0.8928572
-0.7142855 0.7692881 0.43625027 0.890625 0.92857146
-0.7142855 0.7071067 0.5120185 0.875 0.92857146
-0.57142836 0.7071067 0.51201856 0.87500006 0.8928572
0.8571431 0.87767446 0.2740387 0.921875 0.53571427
0.71428597 0.87767446 0.2740387 0.921875 0.57142854
0.71428597 0.83146954 0.3604821 0.90625 0.57142854
0.8571431 0.83146954 0.3604821 0.90625 0.53571427
0.57142884 0.87767446 0.2740387 0.921875 0.6071428
0.4285717 0.87767446 0.27403867 0.921875 0.6428571
0.4285717 0.83146954 0.36048207 0.90625 0.64285713
0.57142884 0.83146954 0.3604821 0.90625 0.6071428
0.28571457 0.87767446 0.27403867 0.921875 0.67857146
0.14285743 0.87767446 0.27403867 0.921875 0.71428573
0.14285743 0.83146954 0.36048207 0.90624994 0.71428573
0.28571457 0.83146954 0.36048207 0.90625 0.67857146
2.9802322e-07 0.87767446 0.27403867 0.921875 0.75
-0.14285684 0.87767446 0.27403867 0.921875 0.78571427
-0.14285684 0.83146954 0.36048207 0.9062499 0.7857142
2.9802322e-07 0.83146954 0.36048207 0.9062499 0.75
-0.285714 0.87767446 0.27403864 0.921875 0.8214286
-0.42857116 0.87767446 0.27403864 0.921875 0.8571429
-0.42857116 0.83146954 0.36048204 0.90625 0.85714287
-0.285714 0.83146954 0.36048204 0.90624994 0.82142854
-0.5714283 0.87767446 0.27403864 0.921875 0.8928572
-0.7142855 0.87767446 0.2740386 0.921875 0.92857146
-0.7142855 0.83146954 0.36048204 0.90624994 0.92857146
-0.5714283 0.83146954 0.36048204 0.90625 0.8928572
0.8571431 0.9523323 0.09379873 0.953125 0.53571427
0.71428597 0.9523323 0.09379873 0.95312494 0.57142854
0.71428597 0.92387944 0.18759531 0.9375 0.57142854
0.8571431 0.92387944 0.18759531 0.9375 0.53571427
0.57142884 0.9523323 0.09379871 0.953125 0.6071428
0.4285717 0.9523323 0.0937987 0.953125 0.6428571
0.4285717 0.92387944 0.18759528 0.9375 0.6428571
0.57142884 0.92387944 0.1875953 0.9375 0.6071428
0.28571457 0.9523323 0.09379868 0.953125 0.6785714
0.14285743 0.9523323 0.09379867 0.95312506 0.71428573
0.14285743 0.92387944 0.18759525 0.9375001 0.71428573
0.28571457 0.92387944 0.18759526 0.93750006 0.6785714
2.9802322e-07 0.9523323 0.09379867 0.95312506 0.75
-0.14285684 0.9523323 0.09379867 0.95312506 0.7857143
-0.14285684 0.92387944 0.18759525 0.93750006 0.7857143
2.9802322e-07 0.92387944 0.18759525 0.9375001 0.75
-0.285714 0.9523323 0.09379867 0.953125 0.82142866
-0.42857116 0.9523323 0.09379867 0.953125 0.8571429
-0.42857116 0.92387944 0.18759525 0.93750006 0.8571429
-0.285714 0.92387944 0.18759525 0.93750006 0.82142866
-0.5714283 0.9523323 0.09379866 0.953125 0.8928572
-0.7142855 0.9523323 0.09379865 0.953125 0.92857146
-0.7142855 0.92387944 0.18759522 0.93750006 0.92857146
-0.5714283 0.92387944 0.18759523 0.93750006 0.8928572
-0.42857116 0.9807852 2.0861626e-06 0.96875 0.85714287
-0.5714283 0.9807852 2.0861626e-06 0.96875 0.8928572
-0.71428543 0.9807852 2.0861626e-06 0.96875 0.92857146
-0.14285684 0.9807852 2.0861626e-06 0.96875006 0.7857143
-0.285714 0.9807852 2.0861626e-06 0.96875 0.8214286
0.14285743 0.9807852 2.0861626e-06 0.96875 0.71428573
2.9802322e-07 0.9807852 2.0861626e-06 0.96875 0.75
0.4285717 0.9807852 2.115965e-06 0.96875 0.6428571
0.28571457 0.9807852 2.1010637e-06 0.96875 0.6785714
0.71428597 0.9807852 2.1457672e-06 0.9687499 0.5714285
0.57142884 0.9807852 2.130866e-06 0.96874994 0.6071428
1.0000002 0.9523323 0.09379873 0.953125 0.5
1.0000002 0.92387944 0.18759531 0.9375 0.5
1.0000002 0.9807852 2.1457672e-06 0.96875 0.5
0.8571431 0.9807852 2.1457672e-06 0.96874994 0.53571427
1.0000002 0.87767446 0.2740387 0.921875 0.5
1.0000002 0.83146954 0.3604821 0.90625 0.5
1.0000002 0.7692881 0.43625036 0.890625 0.5
1.0000002 0.7071067 0.5120186 0.875 0.5
1.0000002 0.6313385 0.57420003 0.859375 0.5
1.0000002 0.5555702 0.63638145 0.84375 0.5
1.0000002 0.46912682 0.6825864 0.828125 0.5
1.0000002 0.38268343 0.7287913 0.8125 0.5
1.0000002 0.28888687 0.75724417 0.796875 0.5
1.0000002 0.19509031 0.78569704 0.78125 0.5
1.0000002 0.097545154 0.7953044 0.765625 0.5
1.0000002 -4.440892e-16 0.8049118 0.75 0.5
1.0000002 -0.097545154 0.7953044 0.734375 0.5
1.0000002 -0.19509031 0.78569704 0.71875 0.5
1.0000002 -0.28888687 0.75724417 0.703125 0.5
1.0000002 -0.38268343 0.7287913 0.6875 0.5
1.0000002 -0.46912682 0.6825864 0.671875 0.5
1.0000002 -0.5555702 0.63638145 0.65625 0.5
1.0000002 -0.6313385 0.57420003 0.640625 0.5
1.0000002 -0.7071067 0.5120186 0.625 0.5
1.0000002 -0.7692881 0.43625036 0.609375 0.5
1.0000002 -0.83146954 0.3604821 0.59375 0.5
1.0000002 -0.87767446 0.2740387 0.578125 0.5
1.0000002 -0.92387944 0.18759531 0.5625 0.5
1.0000002 -0.9523323 0.09379873 0.546875 0.5
1.0000002 -0.9807852 2.1457672e-06 0.53125 0.5
-0.85714257 0.9807852 2.0861626e-06 0.96875 0.96428573
-0.99999976 0.9807852 2.0861626e-06 0.96875 1
4 0 1 2 3
4 4 5 6 7
4 8 9 10 11
4 12 13 14 15
4 16 17 18 19
4 20 21 22 23
4 24 25 26 27
4 28 29 30 31
4 32 33 34 35
4 36 37 38 39
4 40 41 42 43
4 44 45 46 47
4 48 49 50 51
4 52 53 54 55
4 56 57 58 59
4 60 61 62 63
4 64 65 66 67
4 68 69 70 71
4 72 73 74 75
4 76 77 78 79
4 80 81 82 83
4 84 85 86 87
4 88 89 90 91
4 92 93 94 95
4 96 97 98 99
4 100 101 102 103
4 104 105 106 107
4 108 109 110 111
4 112 113 114 115
4 116 117 118 119
4 120 121 122 123
4 124 125 126 127
4 128 129 130 131
4 132 133 134 135
4 136 137 138 139
4 140 141 142 143
4 144 145 146 147
4 148 149 150 151
4 152 153 154 155
4 156 157 158 159
4 160 161 162 163
4 164 165 166 167
4 168 169 170 171
4 172 173 174 175
4 176 177 178 179
4 180 181 182 183
4 184 185 186 187
4 188 189 190 191
4 192 193 194 195
4 196 197 198 199
4 200 201 202 203
4 204 205 206 207
4 208 209 210 211
4 212 213 214 215
4 216 217 218 219
4 220 221 222 223
4 224 225 226 227
4 228 229 230 231
4 232 233 234 235
4 236 237 238 239
4 240 241 242 243
4 244 245 246 247
4 248 249 250 251
4 252 253 254 255
4 256 257 258 259
4 260 261 262 263
4 264 265 266 267
4 268 269 270 271
4 272 273 274 275
4 276 277 278 279
4 280 281 282 283
4 284 285 286 287
4 288 289 290 291
4 292 293 294 295
4 296 297 298 299
4 300 301 302 303
4 304 305 306 307
4 308 309 310 311
4 312 313 314 315
4 316 317 318 319
4 320 321 322 323
4 324 325 326 327
4 328 329 330 331
4 332 333 334 335
4 336 337 338 339
4 340 341 342 343
4 344 345 346 347
4 348 349 350 351
4 352 353 354 355
4 356 357 358 359
4 360 361 362 363
4 364 365 366 367
4 368 369 370 371
4 372 373 374 375
4 376 377 378 379
4 380 381 382 383
4 384 385 386 387
4 388 389 390 391
4 385 388 391 386
4 392 393 388 385
4 393 394 389 388
4 381 384 387 382
4 395 396 384 381
4 396 392 385 384
4 377 380 383 378
4 397 398 380 377
4 398 395 381 380
4 373 376 379 374
4 399 400 376 373
4 400 397 377 376
4 369 372 375 370
4 401 402 372 369
4 402 399 373 372
4 403 368 371 404
4 405 406 368 403
4 406 401 369 368
4 361 364 367 362
4 386 391 364 361
4 391 390 365 364
4 357 360 363 358
4 382 387 360 357
4 387 386 361 360
4 353 356 359 354
4 378 383 356 353
4 383 382 357 356
4 349 352 355 350
4 374 379 352 349
4 379 378 353 352
4 345 348 351 346
4 370 375 348 345
4 375 374 349 348
4 407 344 347 408
4 404 371 344 407
4 371 370 345 344
4 337 340 343 338
4 362 367 340 337
4 367 366 341 340
4 333 336 339 334
4 358 363 336 333
4 363 362 337 336
4 329 332 335 330
4 354 359 332 329
4 359 358 333 332
4 325 328 331 326
4 350 355 328 325
4 355 354 329 328
4 321 324 327 322
4 346 351 324 321
4 351 350 325 324
4 409 320 323 410
4 408 347 320 409
4 347 346 321 320
4 313 316 319 314
4 338 343 316 313
4 343 342 317 316
4 309 312 315 310
4 334 339 312 309
4 339 338 313 312
4 305 308 311 306
4 330 335 308 305
4 335 334 309 308
4 301 304 307 302
4 326 331 304 301
4 331 330 305 304
4 297 300 303 298
4 322 327 300 297
4 327 326 301 300
4 411 296 299 412
4 410 323 296 411
4 323 322 297 296
4 289 292 295 290
4 314 319 292 289
4 319 318 293 292
4 285 288 291 286
4 310 315 288 285
4 315 314 289 288
4 281 284 287 282
4 306 311 284 281
4 311 310 285 284
4 277 280 283 278
4 302 307 280 277
4 307 306 281 280
4 273 276 279 274
4 298 303 276 273
4 303 302 277 276
4 413 272 275 414
4 412 299 272 413
4 299 298 273 272
4 265 268 271 266
4 290 295 268 265
4 295 294 269 268
4 261 264 267 262
4 286 291 264 261
4 291 290 265 264
4 257 260 263 258
4 282 287 260 257
4 287 286 261 260
4 253 256 259 254
4 278 283 256 253
4 283 282 257 256
4 249 252 255 250
4 274 279 252 249
4 279 278 253 252
4 415 248 251 416
4 414 275 248 415
4 275 274 249 248
4 241 244 247 242
4 266 271 244 241
4 271 270 245 244
4 237 240 243 238
4 262 267 240 237
4 267 266 241 240
4 233 236 239 234
4 258 263 236 233
4 263 262 237 236
4 229 232 235 230
4 254 259 232 229
4 259 258 233 232
4 225 228 231 226
4 250 255 228 225
4 255 254 229 228
4 417 224 227 418
4 416 251 224 417
4 251 250 225 224
4 217 220 223 218
4 242 247 220 217
4 247 246 221 220
4 213 216 219 214
4 238 243 216 213
4 243 242 217 216
4 209 212 215 210
4 234 239 212 209
4 239 238 213 212
4 205 208 211 206
4 230 235 208 205
4 235 234 209 208
4 201 204 207 202
4 226 231 204 201
4 231 230 205 204
4 419 200 203 420
4 418 227 200 419
4 227 226 201 200
4 193 196 199 194
4 218 223 196 193
4 223 222 197 196
4 189 192 195 190
4 214 219 192 189
4 219 218 193 192
4 185 188 191 186
4 210 215 188 185
4 215 214 189 188
4 181 184 187 182
4 206 211 184 181
4 211 210 185 184
4 177 180 183 178
4 202 207 180 177
4 207 206 181 180
4 421 176 179 422
4 420 203 176 421
4 203 202 177 176
4 169 172 175 170
4 194 199 172 169
4 199 198 173 172
4 165 168 171 166
4 190 195 168 165
4 195 194 169 168
4 161 164 167 162
4 186 191 164 161
4 191 190 165 164
4 157 160 163 158
4 182 187 160 157
4 187 186 161 160
4 153 156 159 154
4 178 183 156 153
4 183 182 157 156
4 423 152 155 424
4 422 179 152 423
4 179 178 153 152
4 145 148 151 146
4 170 175 148 145
4 175 174 149 148
4 141 144 147 142
4 166 171 144 141
4 171 170 145 144
4 137 140 143 138
4 162 167 140 137
4 167 166 141 140
4 133 136 139 134
4 158 163 136 133
4 163 162 137 136
4 129 132 135 130
4 154 159 132 129
4 159 158 133 132
4 425 128 131 426
4 424 155 128 425
4 155 154 129 128
4 121 124 127 122
4 146 151 124 121
4 151 150 125 124
4 117 120 123 118
4 142 147 120 117
4 147 146 121 120
4 113 116 119 114
4 138 143 116 113
4 143 142 117 116
4 109 112 115 110
4 134 139 112 109
4 139 138 113 112
4 105 108 111 106
4 130 135 108 105
4 135 134 109 108
4 427 104 107 428
4 426 131 104 427
4 131 130 105 104
4 97 100 103 98
4 122 127 100 97
4 127 126 101 100
4 93 96 99 94
4 118 123 96 93
4 123 122 97 96
4 89 92 95 90
4 114 119 92 89
4 119 118 93 92
4 85 88 91 86
4 110 115 88 85
4 115 114 89 88
4 81 84 87 82
4 106 111 84 81
4 111 110 85 84
4 429 80 83 430
4 428 107 80 429
4 107 106 81 80
4 73 76 79 74
4 98 103 76 73
4 103 102 77 76
4 69 72 75 70
4 94 99 72 69
4 99 98 73 72
4 65 68 71 66
4 90 95 68 65
4 95 94 69 68
4 61 64 67 62
4 86 91 64 61
4 91 90 65 64
4 57 60 63 58
4 82 87 60 57
4 87 86 61 60
4 431 56 59 432
4 430 83 56 431
4 83 82 57 56
4 77 52 55 78
4 102 51 52 77
4 51 50 53 52
4 101 48 51 102
4 126 47 48 101
4 47 46 49 48
4 125 44 47 126
4 150 43 44 125
4 43 42 45 44
4 149 40 43 150
4 174 39 40 149
4 39 38 41 40
4 173 36 39 174
4 198 35 36 173
4 35 34 37 36
4 197 32 35 198
4 222 31 32 197
4 31 30 33 32
4 221 28 31 222
4 246 27 28 221
4 27 26 29 28
4 245 24 27 246
4 270 23 24 245
4 23 22 25 24
4 269 20 23 270
4 294 19 20 269
4 19 18 21 20
4 293 16 19 294
4 318 15 16 293
4 15 14 17 16
4 317 12 15 318
4 342 11 12 317
4 11 10 13 12
4 341 8 11 342
4 366 7 8 341
4 7 6 9 8
4 365 4 7 366
4 390 3 4 365
4 3 2 5 4
4 389 0 3 390
4 394 433 0 389
4 433 434 1 0
