ply
format ascii 1.0
comment Created in Blender version 4.2.1 LTS
element vertex 85
property float x
property float y
property float z
element face 128
property list uchar uint vertex_indices
end_header
0 3 0
0 2 0
1 3 0
0 4 0
1 4 0
1 2 0
0 1 0
1 1 0
0 0 0
1 0 0
0.5 3 0
0 2.5 0
0.5 2.5 0
0.5 4 0
0 3.5 0
0.5 3.5 0
1 3.5 0
1 2.5 0
0.5 2 0
0 1.5 0
0.5 1.5 0
1 1.5 0
0.5 1 0
0 0.5 0
0.5 0.5 0
0.5 0 0
1 0.5 0
0.75 3 0
0 2.25 0
0.75 2.75 0
0.75 4 0
0 3.75 0
0.75 3.75 0
1 3.75 0
1 2.25 0
0.75 2 0
0 1.25 0
0.25 1.25 0
1 1.25 0
0.75 1 0
0 0.25 0
0.25 0.25 0
0.75 0 0
1 0.25 0
0.25 3 0
0 2.75 0
0.25 2.25 0
0.25 4 0
0 3.25 0
0.25 3.25 0
1 3.25 0
1 2.75 0
0.25 2 0
0 1.75 0
0.75 1.75 0
1 1.75 0
0.25 1 0
0 0.75 0
0.75 0.75 0
0.25 0 0
1 0.75 0
0.5 0.25 0
0.75 0.25 0
0.75 0.5 0
0.5 0.75 0
0.25 0.75 0
0.25 0.5 0
0.75 1.25 0
0.75 1.5 0
0.5 1.25 0
0.5 1.75 0
0.25 1.75 0
0.25 1.5 0
0.75 2.25 0
0.75 2.5 0
0.5 2.25 0
0.5 3.25 0
0.75 3.25 0
0.75 3.5 0
0.5 3.75 0
0.25 3.75 0
0.25 3.5 0
0.5 2.75 0
0.25 2.75 0
0.25 2.5 0
3 0 45 44
3 3 31 47
3 2 50 27
3 2 29 51
3 1 53 52
3 5 54 55
3 6 57 56
3 9 43 42
3 25 61 59
3 25 62 61
3 26 60 63
3 22 64 39
3 22 65 64
3 23 40 66
3 21 67 38
3 21 68 67
3 20 37 69
3 18 70 35
3 18 71 70
3 19 36 72
3 17 73 34
3 17 74 73
3 12 46 75
3 10 76 44
3 10 77 76
3 16 33 78
3 13 79 30
3 13 80 79
3 14 48 81
3 10 82 27
3 10 83 82
3 11 28 84
3 84 46 12
3 84 28 46
3 28 1 46
3 82 84 12
3 82 83 84
3 83 11 84
3 27 29 2
3 27 82 29
3 82 12 29
3 81 49 15
3 81 48 49
3 48 0 49
3 79 81 15
3 79 80 81
3 80 14 81
3 30 32 4
3 30 79 32
3 79 15 32
3 78 32 15
3 78 33 32
3 33 4 32
3 76 78 15
3 76 77 78
3 77 16 78
3 44 49 0
3 44 76 49
3 76 15 49
3 75 52 18
3 75 46 52
3 46 1 52
3 73 75 18
3 73 74 75
3 74 12 75
3 34 35 5
3 34 73 35
3 73 18 35
3 72 37 20
3 72 36 37
3 36 6 37
3 70 72 20
3 70 71 72
3 71 19 72
3 35 54 5
3 35 70 54
3 70 20 54
3 69 56 22
3 69 37 56
3 37 6 56
3 67 69 22
3 67 68 69
3 68 20 69
3 38 39 7
3 38 67 39
3 67 22 39
3 66 41 24
3 66 40 41
3 40 8 41
3 64 66 24
3 64 65 66
3 65 23 66
3 39 58 7
3 39 64 58
3 64 24 58
3 63 58 24
3 63 60 58
3 60 7 58
3 61 63 24
3 61 62 63
3 62 26 63
3 59 41 8
3 59 61 41
3 61 24 41
3 42 62 25
3 42 43 62
3 43 26 62
3 56 65 22
3 56 57 65
3 57 23 65
3 55 68 21
3 55 54 68
3 54 20 68
3 52 71 18
3 52 53 71
3 53 19 71
3 51 74 17
3 51 29 74
3 29 12 74
3 27 77 10
3 27 50 77
3 50 16 77
3 47 80 13
3 47 31 80
3 31 14 80
3 44 83 10
3 44 45 83
3 45 11 83
