ply
format ascii 1.0
comment Created in Blender version 4.2.1 LTS
element vertex 120
property float x
property float y
property float z
property float s
property float t
element face 98
property list uchar uint vertex_indices
end_header
-0.71428543 0.9807852 2.0861626e-06 0.96875 0.92857146
-0.99999976 0.9807852 2.0861626e-06 0.96875 1
-0.99999976 0.92387944 0.18759519 0.9375 1
-0.7142855 0.92387944 0.18759522 0.93750006 0.92857146
-0.99999976 0.83146954 0.36048204 0.90625 1
-0.7142855 0.83146954 0.36048204 0.90624994 0.92857146
-0.9999998 0.7071067 0.5120185 0.875 1
-0.7142855 0.7071067 0.5120185 0.875 0.92857146
-0.9999997 0.5555702 0.6363813 0.84375 1
-0.7142854 0.5555702 0.6363813 0.84375 0.92857146
-0.99999976 0.38268343 0.72879124 0.8125 1
-0.7142855 0.38268343 0.72879124 0.8125 0.92857146
-1 0.19509031 0.78569704 0.78125 1
-0.7142855 0.19509031 0.78569704 0.78125 0.92857146
-0.99999976 -4.440892e-16 0.8049118 0.75 1
-0.7142855 -4.440892e-16 0.8049118 0.75 0.92857146
-0.99999976 -0.19509031 0.78569704 0.71875 1
-0.7142855 -0.19509031 0.78569704 0.71875006 0.92857146
-0.99999976 -0.38268343 0.72879124 0.6875 1
-0.7142855 -0.38268343 0.72879124 0.6874999 0.92857134
-0.9999997 -0.5555702 0.6363813 0.65625 1
-0.7142854 -0.5555702 0.6363813 0.65625 0.92857146
-0.9999998 -0.7071067 0.5120185 0.625 1
-0.7142855 -0.7071067 0.5120185 0.625 0.92857146
-0.99999976 -0.83146954 0.36048204 0.59375 1
-0.7142855 -0.83146954 0.36048204 0.59375 0.9285715
-0.99999976 -0.92387944 0.18759519 0.5625 1
-0.7142855 -0.92387944 0.18759522 0.5625 0.92857146
-0.99999976 -0.9807852 2.0861626e-06 0.53125 1
-0.71428543 -0.9807852 2.0861626e-06 0.53125 0.92857146
1.0000002 -0.92387944 0.18759531 0.5625 0.5
0.71428597 -0.92387944 0.18759531 0.5625 0.57142854
0.71428597 -0.9807852 2.1457672e-06 0.53124994 0.5714285
1.0000002 -0.9807852 2.1457672e-06 0.53125 0.5
0.4285717 -0.92387944 0.18759528 0.5625 0.6428571
0.4285717 -0.9807852 2.115965e-06 0.53125 0.6428571
0.14285743 -0.92387944 0.18759525 0.56249994 0.71428573
0.14285743 -0.9807852 2.0861626e-06 0.53125 0.71428573
-0.14285684 -0.92387944 0.18759525 0.5625 0.7857143
-0.14285684 -0.9807852 2.0861626e-06 0.53125 0.7857143
-0.42857116 -0.92387944 0.18759525 0.5625 0.8571429
-0.42857116 -0.9807852 2.0861626e-06 0.53125 0.85714287
1.0000002 -0.83146954 0.3604821 0.59375 0.5
0.71428597 -0.83146954 0.3604821 0.59375 0.57142854
0.4285717 -0.83146954 0.36048207 0.59375 0.6428572
0.14285743 -0.83146954 0.36048207 0.59375 0.71428573
-0.14285684 -0.83146954 0.36048207 0.59375006 0.7857144
-0.42857116 -0.83146954 0.36048204 0.59374994 0.85714287
1.0000002 -0.7071067 0.5120186 0.625 0.5
0.71428597 -0.7071067 0.5120186 0.625 0.57142854
0.4285717 -0.7071067 0.51201856 0.625 0.6428572
0.14285731 -0.7071067 0.51201856 0.62500006 0.71428573
-0.14285696 -0.7071067 0.51201856 0.625 0.7857143
-0.42857122 -0.7071067 0.51201856 0.62500006 0.8571429
1.0000002 -0.5555702 0.63638145 0.65625 0.5
0.71428597 -0.5555702 0.6363814 0.6562499 0.5714284
0.4285717 -0.5555702 0.6363814 0.65625 0.64285713
0.14285743 -0.5555702 0.6363814 0.6562501 0.7142858
-0.14285684 -0.5555702 0.6363814 0.65625006 0.7857143
-0.42857113 -0.5555702 0.6363814 0.65624994 0.8571428
1.0000002 -0.38268343 0.7287913 0.6875 0.5
0.71428597 -0.38268343 0.7287913 0.6875 0.57142854
0.4285717 -0.38268343 0.7287913 0.6875 0.6428572
0.14285743 -0.38268343 0.72879124 0.6874999 0.71428573
-0.14285684 -0.38268343 0.72879124 0.68749994 0.7857143
-0.42857116 -0.38268343 0.72879124 0.6875 0.8571429
1.0000002 -0.19509031 0.78569704 0.71875 0.5
0.71428597 -0.19509031 0.78569704 0.71875 0.57142854
0.4285717 -0.19509031 0.78569704 0.71875 0.64285713
0.14285743 -0.19509031 0.78569704 0.71875006 0.71428573
-0.14285684 -0.19509031 0.78569704 0.71875006 0.7857143
-0.42857116 -0.19509031 0.78569704 0.71875006 0.85714287
1.0000002 -4.440892e-16 0.8049118 0.75 0.5
0.71428597 -4.440892e-16 0.8049118 0.75 0.57142854
0.4285717 -4.440892e-16 0.8049118 0.75 0.64285713
0.14285743 -4.440892e-16 0.8049118 0.75 0.71428573
-0.14285684 -4.440892e-16 0.8049118 0.75 0.7857143
-0.42857116 -4.440892e-16 0.8049118 0.75 0.85714287
1.0000002 0.19509031 0.78569704 0.78125 0.5
0.71428597 0.19509031 0.78569704 0.78125 0.57142854
0.4285717 0.19509031 0.78569704 0.78125 0.64285713
0.14285743 0.19509031 0.78569704 0.78125 0.71428573
-0.14285684 0.19509031 0.78569704 0.78125 0.7857143
-0.42857116 0.19509031 0.78569704 0.78125 0.85714287
1.0000002 0.38268343 0.7287913 0.8125 0.5
0.71428597 0.38268343 0.7287913 0.8125 0.57142854
0.4285717 0.38268343 0.7287913 0.8125 0.64285713
0.14285743 0.38268343 0.72879124 0.81250006 0.71428573
-0.14285684 0.38268343 0.72879124 0.81250006 0.7857143
-0.42857116 0.38268343 0.72879124 0.81250006 0.8571429
1.0000002 0.5555702 0.63638145 0.84375 0.5
0.71428597 0.5555702 0.6363814 0.84375 0.57142854
0.4285717 0.5555702 0.6363814 0.8437499 0.6428571
0.14285743 0.5555702 0.6363814 0.84375006 0.71428573
-0.14285684 0.5555702 0.6363814 0.84375 0.7857143
-0.42857113 0.5555702 0.6363814 0.84375 0.8571428
1.0000002 0.7071067 0.5120186 0.875 0.5
0.71428597 0.7071067 0.5120186 0.875 0.57142854
0.4285717 0.7071067 0.51201856 0.875 0.6428571
0.14285731 0.7071067 0.51201856 0.875 0.71428573
-0.14285696 0.7071067 0.51201856 0.875 0.78571427
-0.42857122 0.7071067 0.51201856 0.8750001 0.857143
1.0000002 0.83146954 0.3604821 0.90625 0.5
0.71428597 0.83146954 0.3604821 0.90625 0.57142854
0.4285717 0.83146954 0.36048207 0.90625 0.64285713
0.14285743 0.83146954 0.36048207 0.90624994 0.71428573
-0.14285684 0.83146954 0.36048207 0.9062499 0.7857142
-0.42857116 0.83146954 0.36048204 0.90625 0.85714287
1.0000002 0.92387944 0.18759531 0.9375 0.5
0.71428597 0.92387944 0.18759531 0.9375 0.57142854
0.4285717 0.92387944 0.18759528 0.9375 0.6428571
0.14285743 0.92387944 0.18759525 0.9375001 0.71428573
-0.14285684 0.92387944 0.18759525 0.93750006 0.7857143
-0.42857116 0.92387944 0.18759525 0.93750006 0.8571429
1.0000002 0.9807852 2.1457672e-06 0.96875 0.5
0.71428597 0.9807852 2.1457672e-06 0.9687499 0.5714285
0.4285717 0.9807852 2.115965e-06 0.96875 0.6428571
0.14285743 0.9807852 2.0861626e-06 0.96875 0.71428573
-0.14285684 0.9807852 2.0861626e-06 0.96875006 0.7857143
-0.42857116 0.9807852 2.0861626e-06 0.96875 0.85714287
4 0 1 2 3
4 3 2 4 5
4 5 4 6 7
4 7 6 8 9
4 9 8 10 11
4 11 10 12 13
4 13 12 14 15
4 15 14 16 17
4 17 16 18 19
4 19 18 20 21
4 21 20 22 23
4 23 22 24 25
4 25 24 26 27
4 27 26 28 29
4 30 31 32 33
4 31 34 35 32
4 34 36 37 35
4 36 38 39 37
4 38 40 41 39
4 40 27 29 41
4 42 43 31 30
4 43 44 34 31
4 44 45 36 34
4 45 46 38 36
4 46 47 40 38
4 47 25 27 40
4 48 49 43 42
4 49 50 44 43
4 50 51 45 44
4 51 52 46 45
4 52 53 47 46
4 53 23 25 47
4 54 55 49 48
4 55 56 50 49
4 56 57 51 50
4 57 58 52 51
4 58 59 53 52
4 59 21 23 53
4 60 61 55 54
4 61 62 56 55
4 62 63 57 56
4 63 64 58 57
4 64 65 59 58
4 65 19 21 59
4 66 67 61 60
4 67 68 62 61
4 68 69 63 62
4 69 70 64 63
4 70 71 65 64
4 71 17 19 65
4 72 73 67 66
4 73 74 68 67
4 74 75 69 68
4 75 76 70 69
4 76 77 71 70
4 77 15 17 71
4 78 79 73 72
4 79 80 74 73
4 80 81 75 74
4 81 82 76 75
4 82 83 77 76
4 83 13 15 77
4 84 85 79 78
4 85 86 80 79
4 86 87 81 80
4 87 88 82 81
4 88 89 83 82
4 89 11 13 83
4 90 91 85 84
4 91 92 86 85
4 92 93 87 86
4 93 94 88 87
4 94 95 89 88
4 95 9 11 89
4 96 97 91 90
4 97 98 92 91
4 98 99 93 92
4 99 100 94 93
4 100 101 95 94
4 101 7 9 95
4 102 103 97 96
4 103 104 98 97
4 104 105 99 98
4 105 106 100 99
4 106 107 101 100
4 107 5 7 101
4 108 109 103 102
4 109 110 104 103
4 110 111 105 104
4 111 112 106 105
4 112 113 107 106
4 113 3 5 107
4 114 115 109 108
4 115 116 110 109
4 116 117 111 110
4 117 118 112 111
4 118 119 113 112
4 119 0 3 113
