ply
format ascii 1.0
comment Created in Blender version 4.2.1 LTS
element vertex 297
property float x
property float y
property float z
element face 512
property list uchar uint vertex_indices
end_header
0 3 0
0 2 0
1 3 0
0 4 0
1 4 0
1 2 0
0 1 0
1 1 0
0 0 0
1 0 0
0.5 3 0
0 2.5 0
0.5 2.5 0
0.5 4 0
0 3.5 0
0.5 3.5 0
1 3.5 0
1 2.5 0
0.5 2 0
0 1.5 0
0.5 1.5 0
1 1.5 0
0.5 1 0
0 0.5 0
0.5 0.5 0
0.5 0 0
1 0.5 0
0.75 3 0
0 2.25 0
0.75 2.75 0
0.75 4 0
0 3.75 0
0.75 3.75 0
1 3.75 0
1 2.25 0
0.75 2 0
0 1.25 0
0.25 1.25 0
1 1.25 0
0.75 1 0
0 0.25 0
0.25 0.25 0
0.75 0 0
1 0.25 0
0.25 3 0
0 2.75 0
0.25 2.25 0
0.25 4 0
0 3.25 0
0.25 3.25 0
1 3.25 0
1 2.75 0
0.25 2 0
0 1.75 0
0.75 1.75 0
1 1.75 0
0.25 1 0
0 0.75 0
0.75 0.75 0
0.25 0 0
1 0.75 0
0.5 0.25 0
0.75 0.25 0
0.75 0.5 0
0.5 0.75 0
0.25 0.75 0
0.25 0.5 0
0.75 1.25 0
0.75 1.5 0
0.5 1.25 0
0.5 1.75 0
0.25 1.75 0
0.25 1.5 0
0.75 2.25 0
0.75 2.5 0
0.5 2.25 0
0.5 3.25 0
0.75 3.25 0
0.75 3.5 0
0.5 3.75 0
0.25 3.75 0
0.25 3.5 0
0.5 2.75 0
0.25 2.75 0
0.25 2.5 0
0.125 3 0
0 2.875 0
0.125 2.875 0
0.125 4 0
0 3.875 0
0.125 3.875 0
0.875 3 0
1 3.125 0
0.875 3.125 0
1 2.875 0
0.875 2.875 0
0.875 2.75 0
0.125 2 0
0 1.875 0
0.125 1.875 0
1 1.875 0
0.875 1.875 0
0.875 1.75 0
0.125 1 0
0 0.875 0
0.125 0.875 0
0.875 0 0
1 0.125 0
0.875 0.125 0
0.375 0 0
0.5 0.125 0
0.375 0.125 0
0.625 0.125 0
0.625 0.25 0
0.875 0.5 0
1 0.625 0
0.875 0.625 0
0.625 1 0
0.5 0.875 0
0.625 0.875 0
0.375 0.875 0
0.375 0.75 0
0.125 0.5 0
0 0.375 0
0.125 0.375 0
1 1.375 0
0.875 1.375 0
0.875 1.25 0
0.875 1.5 0
0.75 1.375 0
0.5 1.375 0
0.375 1.375 0
0.375 1.25 0
0.625 2 0
0.5 1.875 0
0.625 1.875 0
0.375 1.875 0
0.375 1.75 0
0.125 1.5 0
0 1.375 0
0.125 1.375 0
1 2.375 0
0.875 2.375 0
0.875 2.25 0
0.875 2.5 0
0.75 2.375 0
0.5 2.375 0
0.375 2.375 0
0.375 2.25 0
0.375 3 0
0.5 3.125 0
0.375 3.125 0
0.625 3.125 0
0.625 3.25 0
0.875 3.5 0
1 3.625 0
0.875 3.625 0
0.625 4 0
0.5 3.875 0
0.625 3.875 0
0.375 3.875 0
0.375 3.75 0
0.125 3.5 0
0 3.375 0
0.125 3.375 0
0.625 3 0
0.5 2.875 0
0.625 2.875 0
0.375 2.875 0
0.375 2.75 0
0.125 2.5 0
0 2.375 0
0.125 2.375 0
0.375 2.5 0
0.25 2.375 0
0.125 2.25 0
0 2.125 0
0.125 2.125 0
0.5 2.625 0
0.375 2.625 0
0.25 2.625 0
0.125 2.625 0
0.75 2.875 0
0.625 2.75 0
0.625 2.625 0
0.375 3.5 0
0.25 3.375 0
0.375 3.375 0
0.125 3.25 0
0 3.125 0
0.125 3.125 0
0.5 3.625 0
0.375 3.625 0
0.25 3.625 0
0.125 3.625 0
0.875 4 0
0.75 3.875 0
0.875 3.875 0
0.625 3.75 0
0.625 3.625 0
0.625 3.5 0
0.75 3.625 0
0.875 3.75 0
1 3.875 0
0.5 3.375 0
0.625 3.375 0
0.75 3.375 0
0.875 3.375 0
0.25 3.125 0
0.375 3.25 0
0.5 2.125 0
0.375 2.125 0
0.375 2 0
0.25 2.125 0
0.625 2.125 0
0.625 2.25 0
0.625 2.375 0
0.625 2.5 0
1 2.125 0
0.875 2.125 0
0.875 2 0
0.75 2.125 0
0.375 1.5 0
0.25 1.375 0
0.125 1.25 0
0 1.125 0
0.125 1.125 0
0.5 1.625 0
0.375 1.625 0
0.25 1.625 0
0.125 1.625 0
0.75 1.875 0
0.625 1.75 0
0.625 1.625 0
0.5 1.125 0
0.375 1.125 0
0.375 1 0
0.25 1.125 0
0.625 1.125 0
0.625 1.25 0
0.625 1.375 0
0.625 1.5 0
1 1.125 0
0.875 1.125 0
0.875 1 0
0.75 1.125 0
0.375 0.5 0
0.25 0.375 0
0.375 0.375 0
0.125 0.25 0
0 0.125 0
0.125 0.125 0
0.5 0.625 0
0.375 0.625 0
0.25 0.625 0
0.125 0.625 0
0.75 0.875 0
0.875 0.875 0
0.625 0.75 0
0.625 0.625 0
0.625 0.5 0
0.75 0.625 0
0.875 0.75 0
1 0.875 0
0.5 0.375 0
0.625 0.375 0
0.75 0.375 0
0.875 0.375 0
0.125 0 0
0.25 0.125 0
0.375 0.25 0
0.625 0 0
0.75 0.125 0
0.875 0.25 0
1 0.375 0
0.25 0.875 0
0.125 0.75 0
0 0.625 0
1 1.625 0
0.875 1.625 0
0.75 1.625 0
0.25 1.875 0
0.125 1.75 0
0 1.625 0
1 2.625 0
0.875 2.625 0
0.75 2.625 0
0.75 3.125 0
0.875 3.25 0
1 3.375 0
0.375 4 0
0.25 3.875 0
0.125 3.75 0
0 3.625 0
0.25 2.875 0
0.125 2.75 0
0 2.625 0
3 0 86 85
3 3 89 88
3 2 92 91
3 2 95 94
3 1 98 97
3 5 101 100
3 6 104 103
3 9 107 106
3 25 110 109
3 25 112 110
3 26 115 114
3 22 118 117
3 22 120 118
3 23 123 122
3 21 126 125
3 21 128 126
3 20 131 130
3 18 134 133
3 18 136 134
3 19 139 138
3 17 142 141
3 17 144 142
3 12 147 146
3 10 150 149
3 10 152 150
3 16 155 154
3 13 158 157
3 13 160 158
3 14 163 162
3 10 166 165
3 10 168 166
3 11 171 170
3 84 174 173
3 84 172 174
3 28 176 175
3 82 179 178
3 82 169 179
3 83 181 180
3 27 182 91
3 27 167 182
3 82 178 183
3 81 186 185
3 81 164 186
3 48 189 188
3 79 192 191
3 79 161 192
3 80 194 193
3 30 196 195
3 30 159 196
3 79 191 198
3 78 201 200
3 78 156 201
3 33 203 202
3 76 205 204
3 76 153 205
3 77 207 206
3 44 208 85
3 44 151 208
3 76 204 209
3 75 211 210
3 75 148 211
3 46 177 213
3 73 215 214
3 73 145 215
3 74 217 216
3 34 219 218
3 34 143 219
3 73 214 221
3 72 223 222
3 72 140 223
3 36 225 224
3 70 228 227
3 70 137 228
3 71 230 229
3 35 231 220
3 35 135 231
3 70 227 232
3 69 235 234
3 69 132 235
3 37 226 237
3 67 239 238
3 67 129 239
3 68 241 240
3 38 243 242
3 38 127 243
3 67 238 245
3 66 247 246
3 66 124 247
3 40 250 249
3 64 253 252
3 64 121 253
3 65 255 254
3 39 256 244
3 39 119 256
3 64 252 258
3 63 261 260
3 63 116 261
3 60 263 262
3 61 265 264
3 61 113 265
3 62 267 266
3 59 269 268
3 59 111 269
3 61 264 270
3 42 272 271
3 42 108 272
3 43 274 273
3 56 275 236
3 56 105 275
3 57 277 276
3 55 279 278
3 55 102 279
3 54 233 280
3 52 281 212
3 52 99 281
3 53 283 282
3 51 285 284
3 51 96 285
3 29 184 286
3 27 287 165
3 27 93 287
3 50 289 288
3 47 291 290
3 47 90 291
3 31 293 292
3 44 294 149
3 44 87 294
3 45 296 295
3 295 181 83
3 295 296 181
3 296 11 181
3 294 295 83
3 294 87 295
3 87 45 295
3 149 168 10
3 149 294 168
3 294 83 168
3 292 194 80
3 292 293 194
3 293 14 194
3 291 292 80
3 291 90 292
3 90 31 292
3 290 160 13
3 290 291 160
3 291 80 160
3 288 207 77
3 288 289 207
3 289 16 207
3 287 288 77
3 287 93 288
3 93 50 288
3 165 152 10
3 165 287 152
3 287 77 152
3 286 217 74
3 286 184 217
3 184 12 217
3 285 286 74
3 285 96 286
3 96 29 286
3 284 144 17
3 284 285 144
3 285 74 144
3 282 230 71
3 282 283 230
3 283 19 230
3 281 282 71
3 281 99 282
3 99 53 282
3 212 136 18
3 212 281 136
3 281 71 136
3 280 241 68
3 280 233 241
3 233 20 241
3 279 280 68
3 279 102 280
3 102 54 280
3 278 128 21
3 278 279 128
3 279 68 128
3 276 255 65
3 276 277 255
3 277 23 255
3 275 276 65
3 275 105 276
3 105 57 276
3 236 120 22
3 236 275 120
3 275 65 120
3 273 267 62
3 273 274 267
3 274 26 267
3 272 273 62
3 272 108 273
3 108 43 273
3 271 112 25
3 271 272 112
3 272 62 112
3 270 248 41
3 270 264 248
3 264 24 248
3 269 270 41
3 269 111 270
3 111 61 270
3 268 251 8
3 268 269 251
3 269 41 251
3 266 114 63
3 266 267 114
3 267 26 114
3 265 266 63
3 265 113 266
3 113 62 266
3 264 260 24
3 264 265 260
3 265 63 260
3 262 257 58
3 262 263 257
3 263 7 257
3 261 262 58
3 261 116 262
3 116 60 262
3 260 259 24
3 260 261 259
3 261 58 259
3 258 259 58
3 258 252 259
3 252 24 259
3 256 258 58
3 256 119 258
3 119 64 258
3 244 257 7
3 244 256 257
3 256 58 257
3 254 122 66
3 254 255 122
3 255 23 122
3 253 254 66
3 253 121 254
3 121 65 254
3 252 246 24
3 252 253 246
3 253 66 246
3 249 251 41
3 249 250 251
3 250 8 251
3 247 249 41
3 247 124 249
3 124 40 249
3 246 248 24
3 246 247 248
3 247 41 248
3 245 117 39
3 245 238 117
3 238 22 117
3 243 245 39
3 243 127 245
3 127 67 245
3 242 244 7
3 242 243 244
3 243 39 244
3 240 130 69
3 240 241 130
3 241 20 130
3 239 240 69
3 239 129 240
3 129 68 240
3 238 234 22
3 238 239 234
3 239 69 234
3 237 103 56
3 237 226 103
3 226 6 103
3 235 237 56
3 235 132 237
3 132 37 237
3 234 236 22
3 234 235 236
3 235 56 236
3 232 233 54
3 232 227 233
3 227 20 233
3 231 232 54
3 231 135 232
3 135 70 232
3 220 101 5
3 220 231 101
3 231 54 101
3 229 138 72
3 229 230 138
3 230 19 138
3 228 229 72
3 228 137 229
3 137 71 229
3 227 222 20
3 227 228 222
3 228 72 222
3 224 226 37
3 224 225 226
3 225 6 226
3 223 224 37
3 223 140 224
3 140 36 224
3 222 131 20
3 222 223 131
3 223 37 131
3 221 133 35
3 221 214 133
3 214 18 133
3 219 221 35
3 219 143 221
3 143 73 221
3 218 220 5
3 218 219 220
3 219 35 220
3 216 146 75
3 216 217 146
3 217 12 146
3 215 216 75
3 215 145 216
3 145 74 216
3 214 210 18
3 214 215 210
3 215 75 210
3 213 97 52
3 213 177 97
3 177 1 97
3 211 213 52
3 211 148 213
3 148 46 213
3 210 212 18
3 210 211 212
3 211 52 212
3 209 187 49
3 209 204 187
3 204 15 187
3 208 209 49
3 208 151 209
3 151 76 209
3 85 190 0
3 85 208 190
3 208 49 190
3 206 154 78
3 206 207 154
3 207 16 154
3 205 206 78
3 205 153 206
3 153 77 206
3 204 200 15
3 204 205 200
3 205 78 200
3 202 197 32
3 202 203 197
3 203 4 197
3 201 202 32
3 201 156 202
3 156 33 202
3 200 199 15
3 200 201 199
3 201 32 199
3 198 199 32
3 198 191 199
3 191 15 199
3 196 198 32
3 196 159 198
3 159 79 198
3 195 197 4
3 195 196 197
3 196 32 197
3 193 162 81
3 193 194 162
3 194 14 162
3 192 193 81
3 192 161 193
3 161 80 193
3 191 185 15
3 191 192 185
3 192 81 185
3 188 190 49
3 188 189 190
3 189 0 190
3 186 188 49
3 186 164 188
3 164 48 188
3 185 187 15
3 185 186 187
3 186 49 187
3 183 184 29
3 183 178 184
3 178 12 184
3 182 183 29
3 182 167 183
3 167 82 183
3 91 95 2
3 91 182 95
3 182 29 95
3 180 170 84
3 180 181 170
3 181 11 170
3 179 180 84
3 179 169 180
3 169 83 180
3 178 173 12
3 178 179 173
3 179 84 173
3 175 177 46
3 175 176 177
3 176 1 177
3 174 175 46
3 174 172 175
3 172 28 175
3 173 147 12
3 173 174 147
3 174 46 147
3 170 172 84
3 170 171 172
3 171 28 172
3 166 169 82
3 166 168 169
3 168 83 169
3 165 167 27
3 165 166 167
3 166 82 167
3 162 164 81
3 162 163 164
3 163 48 164
3 158 161 79
3 158 160 161
3 160 80 161
3 157 159 30
3 157 158 159
3 158 79 159
3 154 156 78
3 154 155 156
3 155 33 156
3 150 153 76
3 150 152 153
3 152 77 153
3 149 151 44
3 149 150 151
3 150 76 151
3 146 148 75
3 146 147 148
3 147 46 148
3 142 145 73
3 142 144 145
3 144 74 145
3 141 143 34
3 141 142 143
3 142 73 143
3 138 140 72
3 138 139 140
3 139 36 140
3 134 137 70
3 134 136 137
3 136 71 137
3 133 135 35
3 133 134 135
3 134 70 135
3 130 132 69
3 130 131 132
3 131 37 132
3 126 129 67
3 126 128 129
3 128 68 129
3 125 127 38
3 125 126 127
3 126 67 127
3 122 124 66
3 122 123 124
3 123 40 124
3 118 121 64
3 118 120 121
3 120 65 121
3 117 119 39
3 117 118 119
3 118 64 119
3 114 116 63
3 114 115 116
3 115 60 116
3 110 113 61
3 110 112 113
3 112 62 113
3 109 111 59
3 109 110 111
3 110 61 111
3 106 108 42
3 106 107 108
3 107 43 108
3 103 105 56
3 103 104 105
3 104 57 105
3 100 102 55
3 100 101 102
3 101 54 102
3 97 99 52
3 97 98 99
3 98 53 99
3 94 96 51
3 94 95 96
3 95 29 96
3 91 93 27
3 91 92 93
3 92 50 93
3 88 90 47
3 88 89 90
3 89 31 90
3 85 87 44
3 85 86 87
3 86 45 87
