ply
format ascii 1.0
comment Created in Blender version 4.2.1 LTS
element vertex 289
property float x
property float y
property float z
property float s
property float t
element face 256
property list uchar uint vertex_indices
end_header
0.875 0.875 0 0.9375 0.9375
1 0.82223105 0.29926762 1 0.9375
1 0.9396926 0.34202012 1 1
0.875 1 0 0.9375 1
-0.125 0.875 0 0.4375 0.9375
0 0.875 0 0.5 0.9375
0 1 0 0.5 1
-0.125 1 0 0.4375 1
-0.125 -0.125 0 0.4375 0.4375
0 -0.125 0 0.5 0.4375
0 0 0 0.5 0.5
-0.125 0 0 0.4375 0.5
0.875 -0.125 0 0.9375 0.4375
1 -0.11746158 -0.042752516 1 0.4375
1 0 0 1 0.5
0.875 0 0 0.9375 0.5
0.375 -0.125 0 0.6875 0.4375
0.5 -0.125 0 0.75 0.4375
0.5 0 0 0.75 0.5
0.375 0 0 0.6875 0.5
0.375 -0.625 0 0.6875 0.1875
0.5 -0.625 0 0.75 0.1875
0.5 -0.5 0 0.75 0.25
0.375 -0.5 0 0.6875 0.25
0.875 -0.625 0 0.9375 0.1875
1 -0.5873079 -0.21376258 1 0.1875
1 -0.4698463 -0.17101006 1 0.25
0.875 -0.5 0 0.9375 0.25
-0.625 -0.125 0 0.1875 0.4375
-0.5 -0.125 0 0.25 0.4375
-0.5 0 0 0.25 0.5
-0.625 0 0 0.1875 0.5
-0.625 -0.625 0 0.1875 0.1875
-0.5 -0.625 0 0.25 0.1875
-0.5 -0.5 0 0.25 0.25
-0.625 -0.5 0 0.1875 0.25
-0.125 -0.625 0 0.4375 0.1875
0 -0.625 0 0.5 0.1875
0 -0.5 0 0.5 0.25
-0.125 -0.5 0 0.4375 0.25
-0.625 0.875 0 0.1875 0.9375
-0.5 0.875 0 0.25 0.9375
-0.5 1 0 0.25 1
-0.625 1 0 0.1875 1
-0.625 0.375 0 0.1875 0.6875
-0.5 0.375 0 0.25 0.6875
-0.5 0.5 0 0.25 0.75
-0.625 0.5 0 0.1875 0.75
-0.125 0.375 0 0.4375 0.6875
0 0.375 0 0.5 0.6875
0 0.5 0 0.5 0.75
-0.125 0.5 0 0.4375 0.75
0.375 0.875 0 0.6875 0.9375
0.5 0.875 0 0.75 0.9375
0.5 1 0 0.75 1
0.375 1 0 0.6875 1
0.375 0.375 0 0.6875 0.6875
0.5 0.375 0 0.75 0.6875
0.5 0.5 0 0.75 0.75
0.375 0.5 0 0.6875 0.75
0.875 0.375 0 0.9375 0.6875
1 0.35238475 0.12825754 1 0.6875
1 0.4698463 0.17101006 1 0.75
0.875 0.5 0 0.9375 0.75
0.625 0.375 0 0.8125 0.6875
0.75 0.375 0 0.875 0.6875
0.75 0.5 0 0.875 0.75
0.625 0.5 0 0.8125 0.75
0.625 0.125 0 0.8125 0.5625
0.75 0.125 0 0.875 0.5625
0.75 0.25 0 0.875 0.625
0.625 0.25 0 0.8125 0.625
0.875 0.125 0 0.9375 0.5625
1 0.11746158 0.042752516 1 0.5625
1 0.23492315 0.08550503 1 0.625
0.875 0.25 0 0.9375 0.625
0.125 0.375 0 0.5625 0.6875
0.25 0.375 0 0.625 0.6875
0.25 0.5 0 0.625 0.75
0.125 0.5 0 0.5625 0.75
0.125 0.125 0 0.5625 0.5625
0.25 0.125 0 0.625 0.5625
0.25 0.25 0 0.625 0.625
0.125 0.25 0 0.5625 0.625
0.375 0.125 0 0.6875 0.5625
0.5 0.125 0 0.75 0.5625
0.5 0.25 0 0.75 0.625
0.375 0.25 0 0.6875 0.625
0.125 0.875 0 0.5625 0.9375
0.25 0.875 0 0.625 0.9375
0.25 1 0 0.625 1
0.125 1 0 0.5625 1
0.125 0.625 0 0.5625 0.8125
0.25 0.625 0 0.625 0.8125
0.25 0.75 0 0.625 0.875
0.125 0.75 0 0.5625 0.875
0.375 0.625 0 0.6875 0.8125
0.5 0.625 0 0.75 0.8125
0.5 0.75 0 0.75 0.875
0.375 0.75 0 0.6875 0.875
-0.375 0.375 0 0.3125 0.6875
-0.25 0.375 0 0.375 0.6875
-0.25 0.5 0 0.375 0.75
-0.375 0.5 0 0.3125 0.75
-0.375 0.125 0 0.3125 0.5625
-0.25 0.125 0 0.375 0.5625
-0.25 0.25 0 0.375 0.625
-0.375 0.25 0 0.3125 0.625
-0.125 0.125 0 0.4375 0.5625
0 0.125 0 0.5 0.5625
0 0.25 0 0.5 0.625
-0.125 0.25 0 0.4375 0.625
-0.875 0.375 0 0.0625 0.6875
-0.75 0.375 0 0.125 0.6875
-0.75 0.5 0 0.125 0.75
-0.875 0.5 0 0.0625 0.75
-0.875 0.125 0 0.0625 0.5625
-0.75 0.125 0 0.125 0.5625
-0.75 0.25 0 0.125 0.625
-0.875 0.25 0 0.0625 0.625
-0.625 0.125 0 0.1875 0.5625
-0.5 0.125 0 0.25 0.5625
-0.5 0.25 0 0.25 0.625
-0.625 0.25 0 0.1875 0.625
-0.875 0.875 0 0.0625 0.9375
-0.75 0.875 0 0.125 0.9375
-0.75 1 0 0.125 1
-0.875 1 0 0.0625 1
-0.875 0.625 0 0.0625 0.8125
-0.75 0.625 0 0.125 0.8125
-0.75 0.75 0 0.125 0.875
-0.875 0.75 0 0.0625 0.875
-0.625 0.625 0 0.1875 0.8125
-0.5 0.625 0 0.25 0.8125
-0.5 0.75 0 0.25 0.875
-0.625 0.75 0 0.1875 0.875
-0.375 -0.625 0 0.3125 0.1875
-0.25 -0.625 0 0.375 0.1875
-0.25 -0.5 0 0.375 0.25
-0.375 -0.5 0 0.3125 0.25
-0.375 -0.875 0 0.3125 0.0625
-0.25 -0.875 0 0.375 0.0625
-0.25 -0.75 0 0.375 0.125
-0.375 -0.75 0 0.3125 0.125
-0.125 -0.875 0 0.4375 0.0625
0 -0.875 0 0.5 0.0625
0 -0.75 0 0.5 0.125
-0.125 -0.75 0 0.4375 0.125
-0.875 -0.625 0 0.0625 0.1875
-0.75 -0.625 0 0.125 0.1875
-0.75 -0.5 0 0.125 0.25
-0.875 -0.5 0 0.0625 0.25
-0.875 -0.875 0 0.0625 0.0625
-0.75 -0.875 0 0.125 0.0625
-0.75 -0.75 0 0.125 0.125
-0.875 -0.75 0 0.0625 0.125
-0.625 -0.875 0 0.1875 0.0625
-0.5 -0.875 0 0.25 0.0625
-0.5 -0.75 0 0.25 0.125
-0.625 -0.75 0 0.1875 0.125
-0.875 -0.125 0 0.0625 0.4375
-0.75 -0.125 0 0.125 0.4375
-0.75 0 0 0.125 0.5
-0.875 0 0 0.0625 0.5
-0.875 -0.375 0 0.0625 0.3125
-0.75 -0.375 0 0.125 0.3125
-0.75 -0.25 0 0.125 0.375
-0.875 -0.25 0 0.0625 0.375
-0.625 -0.375 0 0.1875 0.3125
-0.5 -0.375 0 0.25 0.3125
-0.5 -0.25 0 0.25 0.375
-0.625 -0.25 0 0.1875 0.375
0.625 -0.625 0 0.8125 0.1875
0.75 -0.625 0 0.875 0.1875
0.75 -0.5 0 0.875 0.25
0.625 -0.5 0 0.8125 0.25
0.625 -0.875 0 0.8125 0.0625
0.75 -0.875 0 0.875 0.0625
0.75 -0.75 0 0.875 0.125
0.625 -0.75 0 0.8125 0.125
0.875 -0.875 0 0.9375 0.0625
1 -0.82223105 -0.29926762 1 0.0625
1 -0.7047695 -0.2565151 1 0.125
0.875 -0.75 0 0.9375 0.125
0.125 -0.625 0 0.5625 0.1875
0.25 -0.625 0 0.625 0.1875
0.25 -0.5 0 0.625 0.25
0.125 -0.5 0 0.5625 0.25
0.125 -0.875 0 0.5625 0.0625
0.25 -0.875 0 0.625 0.0625
0.25 -0.75 0 0.625 0.125
0.125 -0.75 0 0.5625 0.125
0.375 -0.875 0 0.6875 0.0625
0.5 -0.875 0 0.75 0.0625
0.5 -0.75 0 0.75 0.125
0.375 -0.75 0 0.6875 0.125
0.125 -0.125 0 0.5625 0.4375
0.25 -0.125 0 0.625 0.4375
0.25 0 0 0.625 0.5
0.125 0 0 0.5625 0.5
0.125 -0.375 0 0.5625 0.3125
0.25 -0.375 0 0.625 0.3125
0.25 -0.25 0 0.625 0.375
0.125 -0.25 0 0.5625 0.375
0.375 -0.375 0 0.6875 0.3125
0.5 -0.375 0 0.75 0.3125
0.5 -0.25 0 0.75 0.375
0.375 -0.25 0 0.6875 0.375
0.625 -0.125 0 0.8125 0.4375
0.75 -0.125 0 0.875 0.4375
0.75 0 0 0.875 0.5
0.625 0 0 0.8125 0.5
0.625 -0.375 0 0.8125 0.3125
0.75 -0.375 0 0.875 0.3125
0.75 -0.25 0 0.875 0.375
0.625 -0.25 0 0.8125 0.375
0.875 -0.375 0 0.9375 0.3125
1 -0.35238475 -0.12825754 1 0.3125
1 -0.23492315 -0.08550503 1 0.375
0.875 -0.25 0 0.9375 0.375
-0.375 -0.125 0 0.3125 0.4375
-0.25 -0.125 0 0.375 0.4375
-0.25 0 0 0.375 0.5
-0.375 0 0 0.3125 0.5
-0.375 -0.375 0 0.3125 0.3125
-0.25 -0.375 0 0.375 0.3125
-0.25 -0.25 0 0.375 0.375
-0.375 -0.25 0 0.3125 0.375
-0.125 -0.375 0 0.4375 0.3125
0 -0.375 0 0.5 0.3125
0 -0.25 0 0.5 0.375
-0.125 -0.25 0 0.4375 0.375
-0.375 0.875 0 0.3125 0.9375
-0.25 0.875 0 0.375 0.9375
-0.25 1 0 0.375 1
-0.375 1 0 0.3125 1
-0.375 0.625 0 0.3125 0.8125
-0.25 0.625 0 0.375 0.8125
-0.25 0.75 0 0.375 0.875
-0.375 0.75 0 0.3125 0.875
-0.125 0.625 0 0.4375 0.8125
0 0.625 0 0.5 0.8125
0 0.75 0 0.5 0.875
-0.125 0.75 0 0.4375 0.875
0.625 0.875 0 0.8125 0.9375
0.75 0.875 0 0.875 0.9375
0.75 1 0 0.875 1
0.625 1 0 0.8125 1
0.625 0.625 0 0.8125 0.8125
0.75 0.625 0 0.875 0.8125
0.75 0.75 0 0.875 0.875
0.625 0.75 0 0.8125 0.875
0.875 0.625 0 0.9375 0.8125
1 0.5873079 0.21376258 1 0.8125
1 0.7047695 0.2565151 1 0.875
0.875 0.75 0 0.9375 0.875
0.25 -1 0 0.625 0
0.375 -1 0 0.6875 0
0.5 -1 0 0.75 0
0 -1 0 0.5 0
0.125 -1 0 0.5625 0
0.75 -1 0 0.875 0
0.875 -1 0 0.9375 0
1 -0.9396926 -0.34202012 1 0
0.625 -1 0 0.8125 0
-1 -0.375 0 0 0.3125
-1 -0.25 0 0 0.375
-1 -0.5 0 0 0.25
-1 -0.125 0 0 0.4375
-1 0 0 0 0.5
-0.75 -1 0 0.125 0
-0.625 -1 0 0.1875 0
-0.5 -1 0 0.25 0
-1 -0.875 0 0 0.0625
-1 -0.75 0 0 0.125
-1 -1 0 0 0
-0.875 -1 0 0.0625 0
-1 -0.625 0 0 0.1875
-0.25 -1 0 0.375 0
-0.125 -1 0 0.4375 0
-0.375 -1 0 0.3125 0
-1 0.625 0 0 0.8125
-1 0.75 0 0 0.875
-1 0.5 0 0 0.75
-1 0.875 0 0 0.9375
-1 1 0 0 1
-1 0.125 0 0 0.5625
-1 0.25 0 0 0.625
-1 0.375 0 0 0.6875
4 0 1 2 3
4 4 5 6 7
4 8 9 10 11
4 12 13 14 15
4 16 17 18 19
4 20 21 22 23
4 24 25 26 27
4 28 29 30 31
4 32 33 34 35
4 36 37 38 39
4 40 41 42 43
4 44 45 46 47
4 48 49 50 51
4 52 53 54 55
4 56 57 58 59
4 60 61 62 63
4 64 65 66 67
4 68 69 70 71
4 72 73 74 75
4 76 77 78 79
4 80 81 82 83
4 84 85 86 87
4 88 89 90 91
4 92 93 94 95
4 96 97 98 99
4 100 101 102 103
4 104 105 106 107
4 108 109 110 111
4 112 113 114 115
4 116 117 118 119
4 120 121 122 123
4 124 125 126 127
4 128 129 130 131
4 132 133 134 135
4 136 137 138 139
4 140 141 142 143
4 144 145 146 147
4 148 149 150 151
4 152 153 154 155
4 156 157 158 159
4 160 161 162 163
4 164 165 166 167
4 168 169 170 171
4 172 173 174 175
4 176 177 178 179
4 180 181 182 183
4 184 185 186 187
4 188 189 190 191
4 192 193 194 195
4 196 197 198 199
4 200 201 202 203
4 204 205 206 207
4 208 209 210 211
4 212 213 214 215
4 216 217 218 219
4 220 221 222 223
4 224 225 226 227
4 228 229 230 231
4 232 233 234 235
4 236 237 238 239
4 240 241 242 243
4 244 245 246 247
4 248 249 250 251
4 252 253 254 255
4 249 252 255 250
4 66 63 252 249
4 63 62 253 252
4 97 248 251 98
4 58 67 248 97
4 67 66 249 248
4 53 244 247 54
4 98 251 244 53
4 251 250 245 244
4 237 240 243 238
4 102 51 240 237
4 51 50 241 240
4 133 236 239 134
4 46 103 236 133
4 103 102 237 236
4 41 232 235 42
4 134 239 232 41
4 239 238 233 232
4 225 228 231 226
4 138 39 228 225
4 39 38 229 228
4 169 224 227 170
4 34 139 224 169
4 139 138 225 224
4 29 220 223 30
4 170 227 220 29
4 227 226 221 220
4 213 216 219 214
4 174 27 216 213
4 27 26 217 216
4 205 212 215 206
4 22 175 212 205
4 175 174 213 212
4 17 208 211 18
4 206 215 208 17
4 215 214 209 208
4 201 204 207 202
4 186 23 204 201
4 23 22 205 204
4 229 200 203 230
4 38 187 200 229
4 187 186 201 200
4 9 196 199 10
4 230 203 196 9
4 203 202 197 196
4 189 192 195 190
4 256 257 192 189
4 257 258 193 192
4 145 188 191 146
4 259 260 188 145
4 260 256 189 188
4 37 184 187 38
4 146 191 184 37
4 191 190 185 184
4 177 180 183 178
4 261 262 180 177
4 262 263 181 180
4 193 176 179 194
4 258 264 176 193
4 264 261 177 176
4 21 172 175 22
4 194 179 172 21
4 179 178 173 172
4 165 168 171 166
4 150 35 168 165
4 35 34 169 168
4 265 164 167 266
4 267 151 164 265
4 151 150 165 164
4 268 160 163 269
4 266 167 160 268
4 167 166 161 160
4 153 156 159 154
4 270 271 156 153
4 271 272 157 156
4 273 152 155 274
4 275 276 152 273
4 276 270 153 152
4 277 148 151 267
4 274 155 148 277
4 155 154 149 148
4 141 144 147 142
4 278 279 144 141
4 279 259 145 144
4 157 140 143 158
4 272 280 140 157
4 280 278 141 140
4 33 136 139 34
4 158 143 136 33
4 143 142 137 136
4 129 132 135 130
4 114 47 132 129
4 47 46 133 132
4 281 128 131 282
4 283 115 128 281
4 115 114 129 128
4 284 124 127 285
4 282 131 124 284
4 131 130 125 124
4 117 120 123 118
4 162 31 120 117
4 31 30 121 120
4 286 116 119 287
4 269 163 116 286
4 163 162 117 116
4 288 112 115 283
4 287 119 112 288
4 119 118 113 112
4 105 108 111 106
4 222 11 108 105
4 11 10 109 108
4 121 104 107 122
4 30 223 104 121
4 223 222 105 104
4 45 100 103 46
4 122 107 100 45
4 107 106 101 100
4 93 96 99 94
4 78 59 96 93
4 59 58 97 96
4 241 92 95 242
4 50 79 92 241
4 79 78 93 92
4 5 88 91 6
4 242 95 88 5
4 95 94 89 88
4 81 84 87 82
4 198 19 84 81
4 19 18 85 84
4 109 80 83 110
4 10 199 80 109
4 199 198 81 80
4 49 76 79 50
4 110 83 76 49
4 83 82 77 76
4 69 72 75 70
4 210 15 72 69
4 15 14 73 72
4 85 68 71 86
4 18 211 68 85
4 211 210 69 68
4 57 64 67 58
4 86 71 64 57
4 71 70 65 64
4 65 60 63 66
4 70 75 60 65
4 75 74 61 60
4 77 56 59 78
4 82 87 56 77
4 87 86 57 56
4 89 52 55 90
4 94 99 52 89
4 99 98 53 52
4 101 48 51 102
4 106 111 48 101
4 111 110 49 48
4 113 44 47 114
4 118 123 44 113
4 123 122 45 44
4 125 40 43 126
4 130 135 40 125
4 135 134 41 40
4 137 36 39 138
4 142 147 36 137
4 147 146 37 36
4 149 32 35 150
4 154 159 32 149
4 159 158 33 32
4 161 28 31 162
4 166 171 28 161
4 171 170 29 28
4 173 24 27 174
4 178 183 24 173
4 183 182 25 24
4 185 20 23 186
4 190 195 20 185
4 195 194 21 20
4 197 16 19 198
4 202 207 16 197
4 207 206 17 16
4 209 12 15 210
4 214 219 12 209
4 219 218 13 12
4 221 8 11 222
4 226 231 8 221
4 231 230 9 8
4 233 4 7 234
4 238 243 4 233
4 243 242 5 4
4 245 0 3 246
4 250 255 0 245
4 255 254 1 0
